<svg width="363" height="178" viewBox="0 0 363 178" fill="none" xmlns="http://www.w3.org/2000/svg">
<path d="M205.12 102.842L206.578 103.838L207.087 105.528C210.495 116.849 216.591 127.541 225.4 136.61C254.697 166.768 302.842 167.417 332.942 138.06C363.046 108.697 363.697 60.4371 334.395 30.2733C305.098 0.11509 256.953 -0.534113 226.854 28.8232C217.912 37.5441 211.576 47.9203 207.845 58.9918L207.285 60.655L205.808 61.603L174.335 81.8026L205.12 102.842Z" fill="white" stroke="black" stroke-width="10"/>
<path d="M288.35 40.7723L287.954 48.322L277.489 47.7735L277.884 40.2239L288.35 40.7723ZM290.617 51.025L291.278 38.4023L275.26 37.5629L274.448 53.0616L277.204 53.2061L277.355 50.33L290.617 51.025ZM293.749 31.7626L273.617 30.7075L273.481 33.3039L293.613 34.359L293.749 31.7626ZM300.387 25.1008L267.632 23.3842L265.823 57.8968L268.699 58.0476L270.359 26.371L297.322 27.7841L295.863 55.6259C295.829 56.265 295.577 56.4921 294.856 56.4944C294.175 56.4988 291.858 56.3773 289.346 56.1656C289.783 56.9896 290.196 58.293 290.271 59.1381C293.707 59.3181 295.708 59.3429 296.972 58.9285C298.197 58.472 298.683 57.6162 298.779 55.7787L300.387 25.1008ZM269.224 81.6674L276.454 82.0463L276.244 86.0408L269.014 85.6619L269.224 81.6674ZM277.094 69.8231L276.91 73.3383L269.68 72.9593L269.864 69.4442L277.094 69.8231ZM269.554 75.3561L276.784 75.735L276.579 79.6496L269.349 79.2707L269.554 75.3561ZM281.916 86.3381L279 86.1853L279.85 69.9675L282.766 70.1203L282.907 67.444L279.991 67.2912L280.242 62.4978L277.486 62.3533L277.234 67.1467L270.004 66.7678L270.256 61.9744L267.539 61.8321L267.288 66.6255L263.933 66.4496L263.792 69.126L267.148 69.3018L266.298 85.5196L262.423 85.3165L262.283 87.9928L281.776 89.0144L281.916 86.3381ZM267.751 89.1206C266.415 91.6941 264.198 94.2616 261.906 95.944C262.604 96.3811 263.679 97.2786 264.213 97.7873C266.513 95.9451 268.949 93.0286 270.548 90.0282L267.751 89.1206ZM273.359 90.6561C274.858 92.6173 276.52 95.3079 277.155 96.9434L279.625 95.6709C278.952 93.9934 277.244 91.4205 275.74 89.5393L273.359 90.6561ZM286.789 82.7882C286.9 81.4322 287.011 80.0761 287.076 78.8378L287.216 76.1615L295.365 76.5886L295.018 83.2195L286.789 82.7882ZM295.838 67.561L295.505 73.9123L287.357 73.4852L287.689 67.1339L295.838 67.561ZM298.857 64.9954L285.036 64.2711L284.28 78.6913C283.981 84.4035 283.263 91.9763 279.671 97.0753C280.338 97.3506 281.488 98.3321 281.938 98.9165C284.536 95.2073 285.8 90.1866 286.449 85.4541L294.877 85.8958L294.375 95.4826C294.341 96.1218 294.091 96.3089 293.492 96.2775C292.931 96.2882 290.934 96.1835 288.819 96.0326C289.138 96.8104 289.511 98.1117 289.587 98.9568C292.543 99.1117 294.384 99.1281 295.568 98.7095C296.671 98.2867 297.157 97.4309 297.249 95.6733L298.857 64.9954ZM289.079 131.575L288.876 135.45L270.141 134.468L270.344 130.593L289.079 131.575ZM287.083 120.736L286.905 124.131L270.728 123.283L270.906 119.888L287.083 120.736ZM270.608 125.56L289.702 126.561L290.119 118.612L268.229 117.464L267.153 137.996L269.949 138.143L270.02 136.785L288.754 137.766L288.687 139.045L291.603 139.198L292.116 129.411L270.466 128.276L270.608 125.56ZM297.867 106.04L284.326 105.33C284.847 104.556 285.293 103.699 285.696 102.879L282.895 102.051C281.992 104.006 280.655 105.819 279.091 107.379L279.213 105.062L268.747 104.514C269.228 103.738 269.672 102.92 270.035 102.098L267.317 101.234C265.955 104.287 263.635 107.29 261.129 109.242C261.829 109.639 262.946 110.498 263.482 110.967C264.701 109.869 265.975 108.494 267.139 106.913L268.857 107.003C269.543 108.441 270.258 110.08 270.521 111.176L273.199 110.515C272.966 109.622 272.431 108.352 271.813 107.158L278.923 107.53C278.12 108.33 277.244 109.005 276.332 109.598C276.76 109.82 277.381 110.213 277.921 110.602L277.789 113.119L262.73 112.33L262.338 119.799L265.135 119.946L265.403 114.833L293.164 116.288L292.896 121.401L295.773 121.552L296.164 114.082L280.625 113.267L280.789 110.152L280.189 110.12C280.988 109.401 281.791 108.602 282.558 107.721L285.754 107.888C286.799 109.345 287.832 111.042 288.21 112.223L290.975 111.447C290.584 110.505 289.81 109.223 288.989 108.058L297.737 108.516L297.867 106.04Z" fill="black"/>
<path d="M108.625 101.531V121.281H125.906C131.144 121.281 136.168 119.2 139.872 115.497C143.575 111.793 145.656 106.769 145.656 101.531V69.4375H125.906V94.125C125.906 96.0893 125.126 97.9731 123.737 99.362C122.348 100.751 120.464 101.531 118.5 101.531H108.625Z" fill="#999999"/>
<path d="M125.906 136.094C125.906 110.188 104.589 76.8438 71.5938 76.8438C38.5983 76.8438 17.2812 110.188 17.2812 136.094C17.2812 161.999 38.5983 175.594 71.5938 175.594C104.589 175.594 125.906 161.999 125.906 136.094Z" fill="#EAEAEA"/>
<path d="M50.9822 173.491C57.1716 174.886 64.0786 175.594 71.5938 175.594C104.589 175.594 125.906 161.999 125.906 136.094C125.906 126.515 122.989 115.921 117.647 106.37C105.182 136.683 81.2094 160.819 50.9822 173.491Z" fill="#CCCCCC"/>
<path d="M12.3438 175.594H32.0938V160.781H17.2812C14.6622 160.781 12.1505 161.822 10.2986 163.674C8.44665 165.525 7.40625 168.037 7.40625 170.656C7.40625 171.966 7.92645 173.222 8.85241 174.148C9.77837 175.074 11.0342 175.594 12.3438 175.594Z" fill="#CCCCCC"/>
<path d="M51.8438 136.094C51.8438 125.186 43.0014 116.344 32.0938 116.344C21.1861 116.344 12.3438 125.186 12.3438 136.094V155.844C12.3438 166.751 21.1861 175.594 32.0938 175.594C43.0014 175.594 51.8438 166.751 51.8438 155.844V136.094Z" fill="#FDB62F"/>
<path d="M12.8315 160.2C13.8203 164.57 16.2655 168.474 19.7657 171.271C23.2658 174.069 27.613 175.593 32.0937 175.594C37.3317 175.594 42.3552 173.513 46.059 169.809C49.7629 166.105 51.8437 161.082 51.8437 155.844V136.094C51.8465 133.417 51.3034 130.768 50.2476 128.309C40.0285 141.329 27.3066 152.172 12.8315 160.2Z" fill="#FDA909"/>
<path d="M125.906 92.6601C132.881 89.0391 139.494 84.7612 145.656 79.8843V69.4375H125.906V92.6601Z" fill="#808080"/>
<path d="M125.906 74.375H145.656C146.966 74.375 148.222 73.8548 149.148 72.9288C150.074 72.0029 150.594 70.747 150.594 69.4375C150.594 66.8185 149.553 64.3067 147.701 62.4548C145.85 60.6029 143.338 59.5625 140.719 59.5625H130.844C128.225 59.5625 125.713 60.6029 123.861 62.4548C122.009 64.3067 120.969 66.8185 120.969 69.4375C120.969 70.747 121.489 72.0029 122.415 72.9288C123.341 73.8548 124.597 74.375 125.906 74.375Z" fill="#CCCCCC"/>
<path d="M108.847 94.125C106.372 91.4041 103.643 88.9242 100.699 86.7188H42.4893C39.5449 88.9242 36.8164 91.4041 34.3406 94.125H108.847Z" fill="#CCCCCC"/>
<path d="M41.9688 59.5625L44.1175 35.9276C44.2049 34.9654 44.6489 34.0706 45.3624 33.419C46.0759 32.7675 47.0072 32.4062 47.9734 32.4063C48.8791 32.4063 49.7562 32.7238 50.452 33.3036L64.1875 44.75L41.9688 59.5625Z" fill="#F92714"/>
<path d="M106.156 59.5625L104.008 35.9276C103.92 34.9654 103.476 34.0706 102.763 33.419C102.049 32.7675 101.118 32.4062 100.152 32.4063C99.2459 32.4063 98.3688 32.7238 97.673 33.3036L83.9375 44.75L106.156 59.5625Z" fill="#F92714"/>
<path d="M22.2188 116.344H41.9688C43.2783 116.344 44.5341 115.824 45.4601 114.898C46.386 113.972 46.9062 112.716 46.9062 111.406C46.9062 108.787 45.8658 106.275 44.0139 104.424C42.162 102.572 39.6503 101.531 37.0312 101.531H27.1562C24.5372 101.531 22.0255 102.572 20.1736 104.424C18.3216 106.275 17.2813 108.787 17.2812 111.406C17.2813 112.716 17.8014 113.972 18.7274 114.898C19.6534 115.824 20.9092 116.344 22.2188 116.344Z" fill="#CCCCCC"/>
<path d="M37.0312 81.7812V71.9062C37.0313 64.0492 40.1524 56.514 45.7082 50.9582C51.264 45.4024 58.7992 42.2813 66.6562 42.2812H81.4688C89.3258 42.2813 96.861 45.4024 102.417 50.9582C107.973 56.514 111.094 64.0492 111.094 71.9062V81.7812H37.0312Z" fill="#EAEAEA"/>
<path d="M111.094 81.7812H37.0312C34.3043 81.7812 32.0938 83.9918 32.0938 86.7188C32.0938 89.4457 34.3043 91.6562 37.0312 91.6562H111.094C113.821 91.6562 116.031 89.4457 116.031 86.7188C116.031 83.9918 113.821 81.7812 111.094 81.7812Z" fill="#F92714"/>
<path d="M74.0625 106.469C78.1529 106.469 81.4688 103.153 81.4688 99.0625C81.4688 94.9721 78.1529 91.6562 74.0625 91.6562C69.9721 91.6562 66.6562 94.9721 66.6562 99.0625C66.6562 103.153 69.9721 106.469 74.0625 106.469Z" fill="#FDB62F"/>
<path d="M133.312 165.719V143.5C133.312 140.881 132.272 138.369 130.42 136.517C128.568 134.665 126.057 133.625 123.438 133.625C120.818 133.625 118.307 134.665 116.455 136.517C114.603 138.369 113.562 140.881 113.562 143.5V165.719H133.312Z" fill="#999999"/>
<path d="M113.562 158.199V165.719H133.312V146.771C131.048 149.996 128.108 152.689 124.697 154.662C121.287 156.636 117.487 157.843 113.562 158.199Z" fill="#808080"/>
<path d="M113.562 175.594H133.312C134.622 175.594 135.878 175.074 136.804 174.148C137.73 173.222 138.25 171.966 138.25 170.656C138.25 168.037 137.21 165.525 135.358 163.674C133.506 161.822 130.994 160.781 128.375 160.781H118.5C115.881 160.781 113.369 161.822 111.517 163.674C109.665 165.525 108.625 168.037 108.625 170.656C108.625 171.966 109.145 173.222 110.071 174.148C110.997 175.074 112.253 175.594 113.562 175.594Z" fill="#CCCCCC"/>
<path d="M61.7189 54.625C62.1775 54.6238 62.6318 54.7135 63.0556 54.889C63.4794 55.0645 63.8641 55.3222 64.1876 55.6474L64.9106 56.3707L68.4021 52.8793L67.6787 52.1562C66.8961 51.3736 65.9669 50.7527 64.9443 50.3291C63.9217 49.9055 62.8257 49.6875 61.7189 49.6875C60.612 49.6875 59.516 49.9055 58.4934 50.3291C57.4708 50.7527 56.5416 51.3736 55.759 52.1562L55.0356 52.8793L58.5271 56.3707L59.2501 55.6474C59.5736 55.3222 59.9584 55.0645 60.3821 54.889C60.8059 54.7135 61.2602 54.6238 61.7189 54.625Z" fill="black"/>
<path d="M92.3662 52.1562C91.5836 51.3736 90.6544 50.7527 89.6318 50.3291C88.6092 49.9055 87.5132 49.6875 86.4064 49.6875C85.2995 49.6875 84.2035 49.9055 83.1809 50.3291C82.1583 50.7527 81.2291 51.3736 80.4465 52.1562L79.7231 52.8793L83.2146 56.3707L83.9376 55.6474C84.5924 54.9927 85.4804 54.6249 86.4064 54.6249C87.3323 54.6249 88.2203 54.9927 88.8751 55.6474L89.5981 56.3707L93.0896 52.8793L92.3662 52.1562Z" fill="black"/>
<path d="M44.8208 72.2446L54.3601 69.687L55.6389 74.4566L46.0996 77.0143L44.8208 72.2446Z" fill="black"/>
<path d="M92.5215 74.4658L93.8003 69.6962L103.34 72.2538L102.061 77.0234L92.5215 74.4658Z" fill="black"/>
<path d="M92.5142 62.1011L102.053 59.5435L103.332 64.3131L93.793 66.8707L92.5142 62.1011Z" fill="black"/>
<path d="M44.8191 64.3311L46.0979 59.5614L55.6371 62.1191L54.3583 66.8887L44.8191 64.3311Z" fill="black"/>
<path d="M12.3438 178.063H32.0938C36.8399 178.068 41.4617 176.545 45.2753 173.72C53.4327 176.602 63.1056 178.063 74.0625 178.063C86.6917 178.063 97.532 176.145 106.353 172.356C106.738 173.979 107.659 175.425 108.967 176.461C110.275 177.496 111.894 178.06 113.562 178.063H133.312C135.276 178.06 137.159 177.279 138.547 175.891C139.936 174.502 140.717 172.62 140.719 170.656C140.719 168.741 140.273 166.852 139.416 165.139C138.558 163.426 137.314 161.936 135.781 160.787V143.5C135.781 141.572 135.329 139.67 134.461 137.948C133.592 136.226 132.332 134.732 130.782 133.585C130.606 130.182 130.133 126.801 129.368 123.481C134.593 122.649 139.352 119.983 142.789 115.961C146.226 111.938 148.118 106.822 148.125 101.531V76.4207C149.568 75.9085 150.817 74.9624 151.701 73.7122C152.585 72.4619 153.061 70.9688 153.062 69.4375C153.059 66.1649 151.757 63.0274 149.443 60.7133C147.129 58.3992 143.991 57.0975 140.719 57.0938H130.844C127.571 57.0975 124.434 58.3992 122.119 60.7133C119.805 63.0274 118.504 66.1649 118.5 69.4375C118.502 70.9688 118.977 72.4619 119.861 73.7122C120.745 74.9624 121.994 75.9085 123.438 76.4207V94.125C123.436 95.4341 122.915 96.689 121.99 97.6147C121.064 98.5403 119.809 99.061 118.5 99.0625V99.1551C117.126 97.1926 115.647 95.3049 114.072 93.5001C115.431 92.903 116.58 91.9111 117.368 90.6531C118.157 89.3951 118.549 87.9292 118.494 86.4455C118.439 84.9618 117.94 83.5288 117.06 82.3325C116.181 81.1363 114.962 80.2319 113.562 79.7369V71.9063C113.57 65.552 111.68 59.3401 108.136 54.0665L106.465 35.7042C106.36 34.5527 105.943 33.4517 105.257 32.5203C104.572 31.589 103.645 30.8627 102.577 30.4202C101.509 29.9777 100.34 29.8357 99.1967 30.0097C98.0536 30.1836 96.9798 30.6668 96.0915 31.4071L85.6764 40.0872C84.2814 39.904 82.8758 39.8122 81.4688 39.8125H66.6562C65.2492 39.8122 63.8436 39.904 62.4486 40.0872L52.0326 31.4074C51.1443 30.6674 50.0706 30.1844 48.9277 30.0106C47.7847 29.8368 46.616 29.9788 45.5479 30.4212C44.4798 30.8637 43.553 31.5898 42.8678 32.5209C42.1825 33.4521 41.7649 34.5529 41.6602 35.7042L39.9907 54.0656C36.4452 59.3393 34.5551 65.5516 34.5625 71.9063V79.7356C33.1627 80.2306 31.944 81.1348 31.0645 82.3311C30.185 83.5273 29.6853 84.9602 29.6303 86.4439C29.5753 87.9276 29.9675 89.3936 30.7561 90.6517C31.5446 91.9097 32.6931 92.9017 34.0524 93.4989C32.5004 95.2755 31.0432 97.1326 29.6867 99.0625H27.1562C23.8836 99.0662 20.7461 100.368 18.432 102.682C16.1179 104.996 14.8162 108.134 14.8125 111.406C14.8138 112.811 15.2141 114.187 15.9667 115.373C16.7194 116.559 17.7935 117.507 19.064 118.106C16.2193 120.165 13.9032 122.868 12.3058 125.995C10.7085 129.122 9.87541 132.583 9.875 136.094V155.844C9.87422 157.388 10.0344 158.928 10.353 160.439C8.6877 161.574 7.32413 163.097 6.38047 164.877C5.4368 166.658 4.94151 168.641 4.9375 170.656C4.93971 172.62 5.72071 174.502 7.10918 175.891C8.49764 177.279 10.3802 178.06 12.3438 178.063ZM133.312 173.125H130.844V168.188H125.906V173.125H120.969V168.188H116.031V173.125H113.562C112.908 173.124 112.28 172.864 111.818 172.401C111.355 171.938 111.094 171.311 111.094 170.656C111.096 168.693 111.877 166.81 113.265 165.422C114.654 164.033 116.536 163.252 118.5 163.25H128.375C130.339 163.252 132.221 164.033 133.61 165.422C134.998 166.81 135.779 168.693 135.781 170.656C135.781 171.311 135.52 171.938 135.057 172.401C134.595 172.864 133.967 173.124 133.312 173.125ZM128.375 158.313H118.5C117.671 158.312 116.844 158.394 116.031 158.559V143.5C116.031 141.536 116.812 139.652 118.2 138.263C119.589 136.874 121.473 136.094 123.438 136.094C125.402 136.094 127.286 136.874 128.675 138.263C130.063 139.652 130.844 141.536 130.844 143.5V158.559C130.031 158.394 129.204 158.312 128.375 158.313ZM130.844 62.0313H140.719C142.682 62.0335 144.565 62.8145 145.953 64.203C147.342 65.5914 148.123 67.474 148.125 69.4375C148.124 70.0921 147.864 70.7196 147.401 71.1824C146.938 71.6452 146.311 71.9056 145.656 71.9063H143.188V66.9688H138.25V71.9063H133.312V66.9688H128.375V71.9063H125.906C125.252 71.9056 124.624 71.6452 124.161 71.1824C123.699 70.7196 123.438 70.0921 123.438 69.4375C123.44 67.474 124.221 65.5914 125.609 64.203C126.998 62.8145 128.88 62.0335 130.844 62.0313ZM128.375 94.125V76.8438H143.188V101.531C143.182 105.737 141.646 109.797 138.865 112.952C136.084 116.108 132.25 118.143 128.078 118.677C127.357 116.349 126.514 114.061 125.553 111.821C124.335 108.985 122.934 106.232 121.358 103.578C123.386 102.962 125.163 101.711 126.426 100.009C127.689 98.3071 128.372 96.2445 128.375 94.125ZM99.2536 35.2003C99.4502 35.0365 99.6878 34.9295 99.9407 34.891C100.194 34.8525 100.452 34.8839 100.689 34.9819C100.925 35.0798 101.13 35.2405 101.282 35.4466C101.433 35.6526 101.526 35.8963 101.549 36.1511L102.606 47.7743C99.4236 44.9803 95.7204 42.8434 91.7091 41.4867L99.2536 35.2003ZM47.9734 34.875C48.3015 34.8752 48.6192 34.9903 48.8714 35.2003L56.4159 41.4876C52.4047 42.8441 48.7014 44.9806 45.5194 47.7743L46.5761 36.1502C46.6065 35.8011 46.7671 35.4762 47.0259 35.24C47.2848 35.0037 47.6229 34.8735 47.9734 34.875ZM39.5 71.9063C39.5082 64.7065 42.3719 57.804 47.4629 52.7129C52.5539 47.6219 59.4565 44.7582 66.6562 44.75H81.4688C88.6685 44.7582 95.5711 47.6219 100.662 52.7129C105.753 57.804 108.617 64.7065 108.625 71.9063V79.3125H39.5V71.9063ZM37.0312 84.25H111.094C111.749 84.25 112.376 84.5101 112.839 84.9731C113.302 85.4361 113.562 86.064 113.562 86.7188C113.562 87.3736 113.302 88.0015 112.839 88.4645C112.376 88.9274 111.749 89.1875 111.094 89.1875H37.0312C36.3765 89.1875 35.7486 88.9274 35.2856 88.4645C34.8226 88.0015 34.5625 87.3736 34.5625 86.7188C34.5625 86.064 34.8226 85.4361 35.2856 84.9731C35.7486 84.5101 36.3765 84.25 37.0312 84.25ZM79 99.0625C78.9995 99.929 78.7711 100.78 78.3378 101.53C77.9045 102.281 77.2815 102.904 76.5312 103.337V99.0625H71.5938V103.337C70.8431 102.904 70.2198 102.28 69.7864 101.53C69.3531 100.779 69.1249 99.9276 69.125 99.0608C69.1251 98.1941 69.3533 97.3426 69.7868 96.592C70.2202 95.8414 70.8436 95.2181 71.5943 94.7849C72.345 94.3516 73.1966 94.1235 74.0634 94.1237C74.9301 94.1238 75.7816 94.3522 76.5321 94.7857C77.2827 95.2192 77.9059 95.8427 78.3391 96.5935C78.7723 97.3442 79.0002 98.1958 79 99.0625ZM40.2082 94.125H65.5129C64.6453 95.6262 64.1881 97.3293 64.1875 99.0631C64.1869 100.797 64.6427 102.5 65.5093 104.002C66.3758 105.504 67.6225 106.751 69.124 107.618C70.6254 108.485 72.3287 108.942 74.0625 108.942C75.7963 108.942 77.4996 108.485 79.001 107.618C80.5025 106.751 81.7492 105.504 82.6157 104.002C83.4823 102.5 83.9381 100.797 83.9375 99.0631C83.9369 97.3293 83.4797 95.6262 82.6121 94.125H107.917C117.693 104.031 124.348 118.127 125.666 131.358C123.886 131.032 122.057 131.102 120.306 131.561C118.556 132.021 116.928 132.859 115.538 134.018C114.148 135.176 113.029 136.626 112.261 138.265C111.493 139.903 111.095 141.69 111.094 143.5V160.787C109.1 162.286 107.604 164.351 106.802 166.712C98.2254 170.968 87.2169 173.125 74.0625 173.125C64.7374 173.125 56.4393 172.026 49.3256 169.854C52.5554 165.9 54.3174 160.949 54.3125 155.844V136.094C54.3121 132.583 53.479 129.122 51.8817 125.995C50.2843 122.868 47.9682 120.165 45.1235 118.106C46.394 117.507 47.4681 116.559 48.2208 115.373C48.9734 114.187 49.3737 112.811 49.375 111.406C49.3713 108.134 48.0696 104.996 45.7555 102.682C43.4414 100.368 40.3039 99.0662 37.0312 99.0625H35.8453C37.2082 97.3381 38.6647 95.6898 40.2082 94.125ZM27.1562 104H37.0312C38.9948 104.002 40.8774 104.783 42.2658 106.172C43.6543 107.56 44.4353 109.443 44.4375 111.406C44.4368 112.061 44.1764 112.688 43.7136 113.151C43.2508 113.614 42.6233 113.874 41.9688 113.875H39.5V108.938H34.5625V113.875H29.625V108.938H24.6875V113.875H22.2188C21.5642 113.874 20.9367 113.614 20.4739 113.151C20.0111 112.688 19.7507 112.061 19.75 111.406C19.7522 109.443 20.5332 107.56 21.9217 106.172C23.3101 104.783 25.1927 104.002 27.1562 104ZM14.8125 136.094C14.8125 131.511 16.6332 127.115 19.8741 123.874C23.1149 120.633 27.5105 118.813 32.0938 118.813C36.677 118.813 41.0726 120.633 44.3134 123.874C47.5543 127.115 49.375 131.511 49.375 136.094V155.844C49.375 160.427 47.5543 164.823 44.3134 168.063C41.0726 171.304 36.677 173.125 32.0938 173.125C27.5105 173.125 23.1149 171.304 19.8741 168.063C16.6332 164.823 14.8125 160.427 14.8125 155.844V136.094ZM12.0463 165.42C13.4821 168.408 15.5647 171.04 18.1432 173.125H12.3438C11.6892 173.124 11.0617 172.864 10.5989 172.401C10.1361 171.938 9.87574 171.311 9.875 170.656C9.8786 168.692 10.6592 166.81 12.0463 165.42Z" fill="black"/>
<path d="M22.2188 128.688H41.9688V133.625H22.2188V128.688Z" fill="black"/>
<path d="M22.2188 138.562H41.9688V143.5H22.2188V138.562Z" fill="black"/>
<path d="M22.2188 148.438H41.9688V153.375H22.2188V148.438Z" fill="black"/>
<path d="M22.2188 158.312H41.9688V163.25H22.2188V158.312Z" fill="black"/>
<path d="M83.9375 65.7344C83.9375 66.7165 83.5474 67.6584 82.8529 68.3529C82.1584 69.0473 81.2165 69.4375 80.2344 69.4375C79.2522 69.4375 78.3103 69.0473 77.6159 68.3529C76.9214 67.6584 76.5313 66.7165 76.5313 65.7344V64.5C76.5313 63.8452 76.2712 63.2173 75.8082 62.7543C75.3452 62.2914 74.7173 62.0312 74.0625 62.0312C73.4078 62.0312 72.7798 62.2914 72.3168 62.7543C71.8539 63.2173 71.5938 63.8452 71.5938 64.5V65.7344C71.5938 66.7165 71.2036 67.6584 70.5091 68.3529C69.8147 69.0473 68.8728 69.4375 67.8906 69.4375C66.9085 69.4375 65.9666 69.0473 65.2721 68.3529C64.5777 67.6584 64.1875 66.7165 64.1875 65.7344V64.5H59.25V65.7344C59.2492 67.4512 59.7601 69.1293 60.7175 70.5545C61.6749 71.9796 63.0353 73.0871 64.625 73.7354C66.2147 74.3838 67.9616 74.5437 69.6426 74.1946C71.3235 73.8455 72.8624 73.0034 74.0625 71.7757C75.2626 73.0034 76.8015 73.8455 78.4825 74.1946C80.1634 74.5437 81.9103 74.3838 83.5 73.7354C85.0897 73.0871 86.4501 71.9796 87.4075 70.5545C88.3649 69.1293 88.8758 67.4512 88.875 65.7344V64.5H83.9375V65.7344Z" fill="black"/>
</svg>
