<svg width="363" height="184" viewBox="0 0 363 184" fill="none" xmlns="http://www.w3.org/2000/svg">
<path d="M205.12 103.082L206.578 104.078L207.087 105.769C210.495 117.09 216.591 127.782 225.4 136.851C254.697 167.009 302.842 167.658 332.942 138.301C363.046 108.938 363.697 60.6779 334.395 30.514C305.098 0.355812 256.953 -0.29339 226.854 29.0639C217.912 37.7849 211.576 48.161 207.845 59.2325L207.285 60.8958L205.808 61.8438L174.335 82.0433L205.12 103.082Z" fill="white" stroke="black" stroke-width="10"/>
<path d="M251.779 53.6347C251.928 53.3293 252.191 53.11 252.567 52.9768C252.942 52.8436 253.42 52.7669 253.999 52.7466C254.579 52.7264 255.04 52.7603 255.384 52.8484C255.727 52.9365 255.991 53.0473 256.176 53.1809C256.361 53.3146 256.508 53.5096 256.617 53.7659C256.728 54.1022 256.796 54.6202 256.821 55.3197L257.402 71.9596C257.418 72.4193 257.41 72.7698 257.379 73.011C257.366 73.2316 257.285 73.4946 257.136 73.8C256.875 74.3494 256.105 74.6465 254.826 74.6912C253.427 74.74 252.594 74.3989 252.328 73.6677C252.197 73.3321 252.119 72.8145 252.094 72.1149L251.882 66.0286L243.936 66.3061L244.15 72.4224C244.166 72.8821 244.158 73.2326 244.127 73.4738C244.114 73.6944 244.034 73.9574 243.884 74.2628C243.623 74.8122 242.853 75.1093 241.574 75.1539C240.175 75.2028 239.342 74.8616 239.077 74.1305C238.945 73.7949 238.867 73.2773 238.842 72.5777L238.261 55.9378C238.245 55.4781 238.243 55.138 238.256 54.9174C238.287 54.6762 238.378 54.4028 238.527 54.0974C238.788 53.548 239.558 53.2509 240.837 53.2063C242.237 53.1574 243.079 53.4982 243.365 54.2287C243.476 54.565 243.545 55.0829 243.569 55.7825L243.783 61.8988L251.728 61.6213L251.513 55.4751C251.497 55.0153 251.495 54.6752 251.507 54.4546C251.539 54.2134 251.63 53.9401 251.779 53.6347Z" fill="black"/>
<path d="M274.79 64.2381C274.832 65.4573 274.554 66.3776 273.955 66.9989C273.376 67.5994 272.717 67.9127 271.977 67.9385L264.871 68.1866C264.891 68.7463 265.237 69.2045 265.91 69.5612C266.583 69.9179 267.249 70.0848 267.909 70.0618C269.068 70.0213 269.973 69.8696 270.624 69.6067L270.95 69.4753C271.422 69.2386 271.818 69.1147 272.138 69.1036C272.777 69.0812 273.343 69.5118 273.834 70.3952C274.113 70.9258 274.259 71.381 274.272 71.7607C274.334 73.5396 272.236 74.5034 267.979 74.6521C266.5 74.7038 265.172 74.5 263.995 74.0408C262.838 73.5609 261.925 72.9123 261.256 72.0952C259.94 70.5201 259.247 68.7332 259.177 66.7345C259.089 64.216 259.829 62.1789 261.395 60.6233C262.981 59.047 264.994 58.2163 267.432 58.1311C270.21 58.0341 272.283 58.9423 273.651 60.8557C274.367 61.8714 274.746 62.9988 274.79 64.2381ZM268.494 65.3284C269.253 65.3019 269.622 64.9689 269.6 64.3292C269.584 63.8695 269.391 63.506 269.021 63.2388C268.672 62.9708 268.167 62.8483 267.508 62.8714C266.868 62.8937 266.238 63.1859 265.617 63.7479C264.995 64.2899 264.695 64.8607 264.716 65.4604L268.494 65.3284Z" fill="black"/>
<path d="M287.275 57.9485C287.659 58.0552 287.976 58.2542 288.226 58.5457C288.496 58.8164 288.642 59.2716 288.664 59.9112C288.687 60.5508 288.521 61.257 288.168 62.0298C287.815 62.8026 287.278 63.2016 286.559 63.2267C286.199 63.2393 285.846 63.1715 285.501 63.0235C285.176 62.8748 284.743 62.8098 284.203 62.8287C283.664 62.8475 283.161 63.0552 282.694 63.4517C282.248 63.8475 282.034 64.3153 282.053 64.855L282.273 71.1511C282.289 71.6108 282.281 71.9613 282.249 72.2026C282.237 72.4231 282.156 72.6861 282.007 72.9915C281.725 73.5217 280.955 73.8087 279.695 73.8527C278.736 73.8862 278.041 73.7404 277.609 73.4153C277.279 73.1466 277.084 72.7231 277.024 72.1449C277.017 71.945 277.007 71.6552 276.994 71.2754L276.626 60.7518C276.61 60.2921 276.608 59.952 276.621 59.7314C276.652 59.4902 276.733 59.2272 276.863 58.9425C277.124 58.393 277.894 58.096 279.174 58.0513C280.373 58.0094 281.131 58.2131 281.446 58.6624C281.677 58.9745 281.799 59.3004 281.811 59.6402C281.906 59.4968 282.04 59.322 282.213 59.1159C282.406 58.909 282.806 58.6249 283.414 58.2635C284.021 57.902 284.555 57.7133 285.015 57.6972C285.495 57.6805 285.895 57.6965 286.217 57.7453C286.538 57.7741 286.891 57.8418 287.275 57.9485Z" fill="black"/>
<path d="M300.978 57.47C301.362 57.5767 301.679 57.7757 301.929 58.0672C302.199 58.3379 302.345 58.7931 302.367 59.4327C302.389 60.0723 302.224 60.7785 301.871 61.5513C301.517 62.3241 300.981 62.7231 300.261 62.7482C299.902 62.7608 299.549 62.693 299.204 62.545C298.878 62.3963 298.446 62.3313 297.906 62.3502C297.366 62.369 296.863 62.5767 296.397 62.9732C295.95 63.369 295.737 63.8368 295.755 64.3765L295.975 70.6726C295.991 71.1323 295.984 71.4828 295.952 71.7241C295.94 71.9446 295.859 72.2076 295.709 72.513C295.428 73.0432 294.657 73.3302 293.398 73.3742C292.439 73.4077 291.743 73.2619 291.311 72.9368C290.982 72.6681 290.787 72.2446 290.727 71.6664C290.72 71.4665 290.71 71.1767 290.696 70.7969L290.329 60.2733C290.313 59.8136 290.311 59.4735 290.323 59.2529C290.355 59.0117 290.436 58.7487 290.566 58.464C290.827 57.9145 291.597 57.6175 292.876 57.5728C294.076 57.5309 294.833 57.7346 295.149 58.1839C295.38 58.496 295.501 58.8219 295.513 59.1617C295.608 59.0183 295.742 58.8435 295.915 58.6374C296.108 58.4305 296.508 58.1464 297.116 57.7849C297.724 57.4235 298.258 57.2348 298.717 57.2187C299.197 57.202 299.598 57.218 299.92 57.2668C300.241 57.2956 300.594 57.3633 300.978 57.47Z" fill="black"/>
<path d="M302.859 65.149C302.776 62.7505 303.546 60.7424 305.171 59.1247C306.795 57.507 308.687 56.6605 310.845 56.5851C313.004 56.5097 314.94 57.2226 316.654 58.7237C318.366 60.2048 319.265 62.1446 319.348 64.5432C319.406 66.2022 319.028 67.6963 318.214 69.0255C317.399 70.3347 316.383 71.3208 315.165 71.9837C313.967 72.6259 312.708 72.97 311.389 73.0161C310.07 73.0622 308.78 72.787 307.518 72.1907C306.256 71.5744 305.173 70.6516 304.269 69.4224C303.385 68.1725 302.915 66.748 302.859 65.149ZM309.201 67.0889C309.857 67.5462 310.515 67.7634 311.175 67.7404C311.835 67.7173 312.485 67.4445 313.128 66.9217C313.77 66.399 314.074 65.6479 314.04 64.6685C314.005 63.6891 313.67 62.9704 313.034 62.5123C312.397 62.0542 311.719 61.8378 311 61.8629C310.28 61.888 309.619 62.1613 309.017 62.6826C308.415 63.2039 308.131 63.9543 308.165 64.9337C308.199 65.8931 308.544 66.6115 309.201 67.0889Z" fill="black"/>
<path d="M234.703 92.7845C236.435 92.724 237.896 93.332 239.085 94.6086C240.291 95.8846 240.928 97.4754 240.995 99.3809L241.154 103.954C241.168 104.353 241.161 104.656 241.134 104.865C241.123 105.057 241.053 105.284 240.924 105.549C240.714 106.007 240.055 106.256 238.947 106.295C237.89 106.331 237.224 106.129 236.948 105.688C236.801 105.433 236.706 105.202 236.664 104.995C236.639 104.788 236.62 104.477 236.605 104.061L236.446 99.5137C236.422 98.8035 236.203 98.2561 235.791 97.8716C235.378 97.4871 234.86 97.3057 234.237 97.3275C233.63 97.3487 233.1 97.558 232.646 97.9554C232.191 98.3355 231.937 98.7606 231.884 99.2308L232.06 104.272C232.074 104.67 232.067 104.974 232.04 105.183C232.029 105.374 231.959 105.602 231.829 105.867C231.62 106.325 230.961 106.573 229.852 106.612C228.761 106.65 228.086 106.44 227.827 105.98C227.697 105.725 227.611 105.502 227.569 105.313C227.545 105.123 227.526 104.82 227.512 104.405L226.969 88.866C226.955 88.4676 226.954 88.1728 226.964 87.9816C226.992 87.7725 227.062 87.5446 227.174 87.2979C227.401 86.8217 228.068 86.5642 229.177 86.5255C230.268 86.4874 230.934 86.6983 231.176 87.1581C231.324 87.4131 231.41 87.6443 231.434 87.8515C231.476 88.0409 231.503 88.3347 231.517 88.7332L231.718 94.4757C232.547 93.3887 233.542 92.825 234.703 92.7845Z" fill="black"/>
<path d="M242.696 99.3215C242.623 97.2428 243.291 95.5024 244.699 94.1004C246.107 92.6984 247.746 91.9648 249.617 91.8994C251.488 91.8341 253.166 92.4519 254.651 93.7529C256.135 95.0365 256.913 96.7177 256.986 98.7965C257.036 100.234 256.709 101.529 256.003 102.681C255.297 103.816 254.416 104.67 253.361 105.245C252.322 105.801 251.231 106.1 250.088 106.14C248.945 106.18 247.827 105.941 246.733 105.424C245.639 104.89 244.701 104.09 243.918 103.025C243.151 101.942 242.744 100.707 242.696 99.3215ZM248.192 101.003C248.761 101.399 249.331 101.587 249.902 101.567C250.474 101.547 251.038 101.311 251.595 100.858C252.151 100.405 252.415 99.7539 252.385 98.9051C252.355 98.0563 252.065 97.4334 251.513 97.0364C250.962 96.6394 250.374 96.4518 249.751 96.4736C249.127 96.4953 248.554 96.7321 248.032 97.184C247.51 97.6358 247.264 98.2861 247.294 99.1349C247.323 99.9664 247.622 100.589 248.192 101.003Z" fill="black"/>
<path d="M258.276 98.7774C258.203 96.6987 258.871 94.9583 260.279 93.5563C261.687 92.1544 263.326 91.4207 265.197 91.3554C267.068 91.29 268.746 91.9078 270.231 93.2088C271.715 94.4925 272.494 96.1736 272.566 98.2524C272.617 99.6902 272.289 100.985 271.583 102.137C270.877 103.272 269.997 104.126 268.941 104.701C267.903 105.257 266.812 105.556 265.669 105.596C264.525 105.636 263.407 105.397 262.313 104.88C261.22 104.346 260.281 103.546 259.498 102.481C258.732 101.398 258.324 100.163 258.276 98.7774ZM263.772 100.459C264.341 100.855 264.911 101.043 265.483 101.023C266.054 101.003 266.619 100.767 267.175 100.314C267.732 99.8608 267.995 99.2098 267.965 98.361C267.936 97.5122 267.645 96.8893 267.094 96.4923C266.542 96.0953 265.955 95.9077 265.331 95.9295C264.707 95.9513 264.135 96.1881 263.613 96.6399C263.091 97.0917 262.845 97.742 262.874 98.5908C262.903 99.4223 263.203 100.045 263.772 100.459Z" fill="black"/>
<path d="M278.539 93.0227C279.311 91.7644 280.268 91.1153 281.411 91.0753C283.178 91.0136 284.521 91.7212 285.44 93.198C285.621 92.9315 285.837 92.6552 286.087 92.3689C286.354 92.0648 286.776 91.7378 287.354 91.3881C287.931 91.0211 288.531 90.8267 289.154 90.8049C290.54 90.7565 291.72 91.253 292.693 92.2944C293.665 93.3184 294.194 95.0603 294.28 97.5201L294.439 102.067C294.453 102.466 294.446 102.77 294.419 102.979C294.408 103.17 294.338 103.398 294.208 103.662C293.999 104.138 293.341 104.395 292.232 104.434C291.141 104.472 290.465 104.253 290.206 103.776C290.075 103.521 289.99 103.298 289.948 103.109C289.924 102.901 289.905 102.599 289.891 102.2L289.732 97.653C289.679 96.1459 289.116 95.4111 288.042 95.4486C287.436 95.4698 287.027 95.6835 286.815 96.0898C286.622 96.4955 286.537 97.0621 286.563 97.7896L286.721 102.337C286.736 102.753 286.729 103.056 286.701 103.248C286.691 103.439 286.62 103.667 286.491 103.932C286.265 104.408 285.597 104.666 284.489 104.704C283.397 104.742 282.722 104.523 282.463 104.047C282.332 103.791 282.246 103.568 282.205 103.379C282.18 103.172 282.161 102.869 282.147 102.471L281.989 97.9234C281.936 96.4163 281.373 95.6815 280.299 95.719C279.259 95.7553 278.766 96.527 278.818 98.0341L278.979 102.633C278.993 103.032 278.986 103.335 278.959 103.545C278.948 103.736 278.878 103.964 278.749 104.228C278.504 104.688 277.837 104.937 276.745 104.975C275.654 105.013 274.979 104.802 274.72 104.343C274.59 104.087 274.504 103.865 274.463 103.676C274.439 103.486 274.419 103.183 274.405 102.767L274.086 93.6205C274.072 93.2221 274.07 92.9273 274.081 92.7362C274.108 92.5271 274.187 92.2989 274.317 92.0515C274.56 91.5747 275.167 91.3194 276.137 91.2855C277.107 91.2516 277.745 91.3855 278.05 91.687C278.356 91.9885 278.519 92.4338 278.539 93.0227Z" fill="black"/>
<path d="M305.046 91.7329C305.116 90.7592 305.783 90.2503 307.048 90.2061C307.723 90.1825 308.227 90.2169 308.56 90.3094C308.893 90.4018 309.125 90.5758 309.255 90.8314C309.403 91.0865 309.489 91.3176 309.513 91.5249C309.555 91.7142 309.582 92.0081 309.596 92.4065L309.914 101.501C309.928 101.899 309.921 102.203 309.893 102.412C309.883 102.603 309.821 102.831 309.709 103.095C309.482 103.554 308.893 103.8 307.94 103.833C307.004 103.866 306.368 103.775 306.031 103.562C305.711 103.33 305.517 102.99 305.449 102.541C304.84 103.482 303.782 103.978 302.275 104.031C300.786 104.083 299.376 103.447 298.046 102.124C296.716 100.8 296.02 99.2371 295.957 97.4356C295.894 95.6167 296.479 94.0092 297.714 92.6133C298.965 91.1994 300.362 90.4656 301.904 90.4117C302.493 90.3912 303.033 90.4764 303.526 90.6673C304.018 90.8582 304.363 91.0456 304.56 91.2295C304.757 91.3961 304.918 91.5639 305.046 91.7329ZM300.505 97.3027C300.525 97.8744 300.769 98.3862 301.235 98.8382C301.702 99.2729 302.255 99.479 302.896 99.4566C303.537 99.4342 304.057 99.1819 304.457 98.6997C304.873 98.2169 305.072 97.6983 305.053 97.144C305.033 96.5723 304.806 96.0512 304.374 95.5807C303.958 95.1096 303.404 94.8861 302.711 94.9103C302.036 94.9339 301.49 95.1958 301.074 95.6959C300.675 96.1955 300.485 96.7311 300.505 97.3027Z" fill="black"/>
<path d="M319.201 89.7817C320.933 89.7212 322.394 90.3379 323.584 91.6319C324.79 92.9079 325.427 94.4986 325.494 96.4041L325.653 100.977C325.667 101.376 325.66 101.68 325.633 101.889C325.622 102.08 325.561 102.299 325.448 102.545C325.222 103.022 324.554 103.279 323.446 103.318C322.216 103.361 321.494 103.065 321.281 102.431C321.167 102.14 321.1 101.7 321.079 101.111L320.919 96.5378C320.895 95.8276 320.667 95.2805 320.238 94.8966C319.825 94.5121 319.273 94.332 318.58 94.3562C317.904 94.3798 317.357 94.607 316.939 95.0379C316.537 95.4681 316.349 96.021 316.372 96.6966L316.533 101.296C316.547 101.694 316.54 101.998 316.513 102.207C316.502 102.398 316.432 102.618 316.301 102.865C316.093 103.34 315.434 103.598 314.325 103.636C313.234 103.674 312.559 103.464 312.3 103.005C312.17 102.749 312.084 102.527 312.042 102.337C312.018 102.13 311.999 101.827 311.985 101.429L311.663 92.2302C311.65 91.8491 311.649 91.563 311.659 91.3719C311.687 91.1628 311.766 90.9346 311.896 90.6872C312.123 90.2457 312.782 90.0058 313.874 89.9677C314.931 89.9308 315.587 90.1073 315.844 90.4973C316.027 90.7857 316.126 91.1378 316.141 91.5536C316.206 91.4299 316.355 91.2512 316.59 91.0176C316.825 90.7839 317.052 90.5938 317.273 90.4474C317.848 90.0284 318.49 89.8065 319.201 89.7817Z" fill="black"/>
<path d="M327.945 99.2323C328.106 98.8798 328.358 98.6368 328.7 98.5035C329.06 98.3695 329.612 98.2895 330.357 98.2635C331.119 98.2369 331.671 98.3824 332.011 98.7001C332.369 99.0171 332.561 99.5307 332.585 100.241L332.6 100.657C332.614 101.072 332.608 101.385 332.581 101.594C332.57 101.785 332.5 102.022 332.371 102.304C332.112 102.816 331.453 103.09 330.397 103.127C329.357 103.163 328.659 103.023 328.301 102.706C327.96 102.371 327.772 101.719 327.738 100.748C327.714 100.073 327.784 99.5675 327.945 99.2323ZM331.321 96.0705C330.995 96.1686 330.555 96.2274 330 96.2467C329.446 96.2661 329.003 96.2382 328.671 96.1631C328.338 96.088 328.099 95.9402 327.953 95.7199C327.824 95.4989 327.739 95.3024 327.698 95.1304C327.675 94.9578 327.657 94.6896 327.644 94.3258L327.356 86.0888C327.344 85.7251 327.343 85.4562 327.354 85.2824C327.382 85.0907 327.461 84.8798 327.592 84.6497C327.723 84.4197 327.951 84.2556 328.277 84.1575C328.603 84.0421 329.043 83.9747 329.597 83.9553C330.151 83.936 330.595 83.9725 330.928 84.065C331.26 84.1401 331.491 84.2968 331.621 84.5351C331.767 84.7554 331.852 84.9606 331.876 85.1505C331.917 85.3225 331.944 85.5904 331.956 85.9542L332.244 94.1912C332.257 94.555 332.249 94.8241 332.22 94.9985C332.209 95.1723 332.138 95.3743 332.007 95.6043C331.876 95.817 331.647 95.9724 331.321 96.0705Z" fill="black"/>
<path d="M108.625 101.772V121.522H125.906C131.144 121.522 136.168 119.441 139.872 115.737C143.575 112.033 145.656 107.01 145.656 101.772V69.6782H125.906V94.3657C125.906 96.33 125.126 98.2138 123.737 99.6027C122.348 100.992 120.464 101.772 118.5 101.772H108.625Z" fill="#999999"/>
<path d="M125.906 136.334C125.906 110.429 104.589 77.0845 71.5938 77.0845C38.5983 77.0845 17.2812 110.429 17.2812 136.334C17.2812 162.24 38.5983 175.834 71.5938 175.834C104.589 175.834 125.906 162.24 125.906 136.334Z" fill="#EAEAEA"/>
<path d="M50.9822 173.732C57.1716 175.127 64.0786 175.834 71.5938 175.834C104.589 175.834 125.906 162.24 125.906 136.334C125.906 126.756 122.989 116.161 117.647 106.61C105.182 136.923 81.2094 161.06 50.9822 173.732V173.732Z" fill="#CCCCCC"/>
<path d="M12.3438 175.834H32.0938V161.022H17.2812C14.6622 161.022 12.1505 162.062 10.2986 163.914C8.44665 165.766 7.40625 168.278 7.40625 170.897C7.40625 172.206 7.92645 173.462 8.85241 174.388C9.77837 175.314 11.0342 175.834 12.3438 175.834Z" fill="#CCCCCC"/>
<path d="M51.8438 136.334C51.8438 125.427 43.0014 116.584 32.0938 116.584C21.1861 116.584 12.3438 125.427 12.3438 136.334V156.084C12.3438 166.992 21.1861 175.834 32.0938 175.834C43.0014 175.834 51.8438 166.992 51.8438 156.084V136.334Z" fill="#FDB62F"/>
<path d="M12.8315 160.44C13.8203 164.81 16.2655 168.715 19.7657 171.512C23.2658 174.309 27.613 175.834 32.0937 175.835C37.3317 175.835 42.3552 173.754 46.059 170.05C49.7629 166.346 51.8437 161.323 51.8437 156.085V136.335C51.8465 133.658 51.3034 131.009 50.2476 128.549C40.0285 141.57 27.3066 152.413 12.8315 160.44V160.44Z" fill="#FDA909"/>
<path d="M125.906 92.9008C132.881 89.2799 139.494 85.0019 145.656 80.125V69.6782H125.906V92.9008Z" fill="#808080"/>
<path d="M125.906 74.6157H145.656C146.966 74.6157 148.222 74.0955 149.148 73.1696C150.074 72.2436 150.594 70.9877 150.594 69.6782C150.594 67.0592 149.553 64.5475 147.701 62.6955C145.85 60.8436 143.338 59.8032 140.719 59.8032H130.844C128.225 59.8032 125.713 60.8436 123.861 62.6955C122.009 64.5475 120.969 67.0592 120.969 69.6782C120.969 70.9877 121.489 72.2436 122.415 73.1696C123.341 74.0955 124.597 74.6157 125.906 74.6157Z" fill="#CCCCCC"/>
<path d="M108.847 94.3657C106.372 91.6448 103.643 89.1649 100.699 86.9595H42.4893C39.5449 89.1649 36.8164 91.6448 34.3406 94.3657H108.847Z" fill="#CCCCCC"/>
<path d="M41.9688 59.8032L44.1175 36.1683C44.2049 35.2061 44.6489 34.3113 45.3624 33.6597C46.0759 33.0082 47.0072 32.6469 47.9734 32.647C48.8791 32.647 49.7562 32.9645 50.452 33.5444L64.1875 44.9907L41.9688 59.8032Z" fill="#F92714"/>
<path d="M106.156 59.8032L104.008 36.1683C103.92 35.2061 103.476 34.3113 102.763 33.6597C102.049 33.0082 101.118 32.6469 100.152 32.647C99.2459 32.647 98.3688 32.9645 97.673 33.5444L83.9375 44.9907L106.156 59.8032Z" fill="#F92714"/>
<path d="M22.2188 116.584H41.9688C43.2783 116.584 44.5341 116.064 45.4601 115.138C46.386 114.212 46.9062 112.956 46.9062 111.647C46.9062 109.028 45.8658 106.516 44.0139 104.664C42.162 102.812 39.6503 101.772 37.0312 101.772H27.1562C24.5372 101.772 22.0255 102.812 20.1736 104.664C18.3216 106.516 17.2813 109.028 17.2812 111.647C17.2813 112.956 17.8014 114.212 18.7274 115.138C19.6534 116.064 20.9092 116.584 22.2188 116.584Z" fill="#CCCCCC"/>
<path d="M37.0312 82.022V72.147C37.0313 64.2899 40.1524 56.7547 45.7082 51.1989C51.264 45.6432 58.7992 42.522 66.6562 42.522H81.4688C89.3258 42.522 96.861 45.6432 102.417 51.1989C107.973 56.7547 111.094 64.2899 111.094 72.147V82.022H37.0312Z" fill="#EAEAEA"/>
<path d="M111.094 82.022H37.0312C34.3043 82.022 32.0938 84.2326 32.0938 86.9595C32.0938 89.6864 34.3043 91.897 37.0312 91.897H111.094C113.821 91.897 116.031 89.6864 116.031 86.9595C116.031 84.2326 113.821 82.022 111.094 82.022Z" fill="#F92714"/>
<path d="M74.0625 106.709C78.1529 106.709 81.4688 103.394 81.4688 99.3032C81.4688 95.2129 78.1529 91.897 74.0625 91.897C69.9721 91.897 66.6562 95.2129 66.6562 99.3032C66.6562 103.394 69.9721 106.709 74.0625 106.709Z" fill="#FDB62F"/>
<path d="M133.312 165.959V143.741C133.312 141.122 132.272 138.61 130.42 136.758C128.568 134.906 126.057 133.866 123.438 133.866C120.818 133.866 118.307 134.906 116.455 136.758C114.603 138.61 113.562 141.122 113.562 143.741V165.959H133.312Z" fill="#999999"/>
<path d="M113.562 158.44V165.959H133.312V147.012C131.048 150.237 128.108 152.929 124.697 154.903C121.287 156.877 117.487 158.084 113.562 158.44V158.44Z" fill="#808080"/>
<path d="M113.562 175.834H133.312C134.622 175.834 135.878 175.314 136.804 174.388C137.73 173.462 138.25 172.206 138.25 170.897C138.25 168.278 137.21 165.766 135.358 163.914C133.506 162.062 130.994 161.022 128.375 161.022H118.5C115.881 161.022 113.369 162.062 111.517 163.914C109.665 165.766 108.625 168.278 108.625 170.897C108.625 172.206 109.145 173.462 110.071 174.388C110.997 175.314 112.253 175.834 113.562 175.834Z" fill="#CCCCCC"/>
<path d="M61.7189 54.8657C62.1775 54.8645 62.6318 54.9542 63.0556 55.1297C63.4794 55.3052 63.8641 55.563 64.1876 55.8881L64.9106 56.6114L68.4021 53.12L67.6787 52.397C66.8961 51.6143 65.9669 50.9934 64.9443 50.5698C63.9217 50.1462 62.8257 49.9282 61.7189 49.9282C60.612 49.9282 59.516 50.1462 58.4934 50.5698C57.4708 50.9934 56.5416 51.6143 55.759 52.397L55.0356 53.12L58.5271 56.6114L59.2501 55.8881C59.5736 55.563 59.9584 55.3052 60.3821 55.1297C60.8059 54.9542 61.2602 54.8645 61.7189 54.8657V54.8657Z" fill="black"/>
<path d="M92.3662 52.397C91.5836 51.6143 90.6544 50.9934 89.6318 50.5698C88.6092 50.1462 87.5132 49.9282 86.4064 49.9282C85.2995 49.9282 84.2035 50.1462 83.1809 50.5698C82.1583 50.9934 81.2291 51.6143 80.4465 52.397L79.7231 53.12L83.2146 56.6114L83.9376 55.8881C84.5924 55.2334 85.4804 54.8657 86.4064 54.8657C87.3323 54.8657 88.2203 55.2334 88.8751 55.8881L89.5981 56.6114L93.0896 53.12L92.3662 52.397Z" fill="black"/>
<path d="M44.8208 72.4854L54.3601 69.9277L55.6389 74.6974L46.0996 77.255L44.8208 72.4854Z" fill="black"/>
<path d="M92.5215 74.7065L93.8003 69.9369L103.34 72.4945L102.061 77.2642L92.5215 74.7065Z" fill="black"/>
<path d="M92.5142 62.3418L102.053 59.7842L103.332 64.5538L93.793 67.1114L92.5142 62.3418Z" fill="black"/>
<path d="M44.8191 64.5718L46.0979 59.8021L55.6371 62.3598L54.3583 67.1294L44.8191 64.5718Z" fill="black"/>
<path d="M12.3438 178.303H32.0938C36.8399 178.309 41.4617 176.786 45.2753 173.961C53.4327 176.843 63.1056 178.303 74.0625 178.303C86.6917 178.303 97.532 176.385 106.353 172.597C106.738 174.22 107.659 175.666 108.967 176.701C110.275 177.737 111.894 178.301 113.562 178.303H133.312C135.276 178.301 137.159 177.52 138.547 176.132C139.936 174.743 140.717 172.861 140.719 170.897C140.719 168.982 140.273 167.092 139.416 165.379C138.558 163.666 137.314 162.177 135.781 161.028V143.741C135.781 141.812 135.329 139.911 134.461 138.189C133.592 136.467 132.332 134.972 130.782 133.826C130.606 130.423 130.133 127.042 129.368 123.721C134.593 122.89 139.352 120.224 142.789 116.201C146.226 112.179 148.118 107.063 148.125 101.772V76.6614C149.568 76.1493 150.817 75.2031 151.701 73.9529C152.585 72.7026 153.061 71.2095 153.062 69.6783C153.059 66.4056 151.757 63.2681 149.443 60.954C147.129 58.6399 143.991 57.3382 140.719 57.3345H130.844C127.571 57.3382 124.434 58.6399 122.119 60.954C119.805 63.2681 118.504 66.4056 118.5 69.6783C118.502 71.2095 118.977 72.7026 119.861 73.9529C120.745 75.2031 121.994 76.1493 123.438 76.6614V94.3658C123.436 95.6748 122.915 96.9298 121.99 97.8554C121.064 98.781 119.809 99.3017 118.5 99.3033V99.3958C117.126 97.4333 115.647 95.5456 114.072 93.7409C115.431 93.1437 116.58 92.1518 117.368 90.8938C118.157 89.6359 118.549 88.1699 118.494 86.6862C118.439 85.2025 117.94 83.7695 117.06 82.5732C116.181 81.377 114.962 80.4726 113.562 79.9776V72.147C113.57 65.7927 111.68 59.5809 108.136 54.3072L106.465 35.945C106.36 34.7934 105.943 33.6924 105.257 32.761C104.572 31.8297 103.645 31.1035 102.577 30.6609C101.509 30.2184 100.34 30.0764 99.1967 30.2504C98.0536 30.4243 96.9798 30.9076 96.0915 31.6478L85.6764 40.3279C84.2814 40.1447 82.8758 40.0529 81.4688 40.0533H66.6562C65.2492 40.0529 63.8436 40.1447 62.4486 40.3279L52.0326 31.6481C51.1443 30.9081 50.0706 30.4251 48.9277 30.2513C47.7847 30.0775 46.616 30.2195 45.5479 30.662C44.4798 31.1044 43.553 31.8305 42.8678 32.7617C42.1825 33.6928 41.7649 34.7936 41.6602 35.945L39.9907 54.3063C36.4452 59.58 34.5551 65.7923 34.5625 72.147V79.9764C33.1627 80.4713 31.944 81.3756 31.0645 82.5718C30.185 83.768 29.6853 85.2009 29.6303 86.6846C29.5753 88.1684 29.9675 89.6344 30.7561 90.8924C31.5446 92.1504 32.6931 93.1424 34.0524 93.7396C32.5004 95.5162 31.0432 97.3733 29.6867 99.3033H27.1562C23.8836 99.3069 20.7461 100.609 18.432 102.923C16.1179 105.237 14.8162 108.374 14.8125 111.647C14.8138 113.052 15.2141 114.427 15.9667 115.614C16.7194 116.8 17.7935 117.748 19.064 118.347C16.2193 120.405 13.9032 123.109 12.3058 126.236C10.7085 129.362 9.87541 132.823 9.875 136.335V156.085C9.87422 157.629 10.0344 159.169 10.353 160.68C8.6877 161.814 7.32413 163.338 6.38047 165.118C5.4368 166.898 4.94151 168.882 4.9375 170.897C4.93971 172.861 5.72071 174.743 7.10918 176.132C8.49764 177.52 10.3802 178.301 12.3438 178.303V178.303ZM133.312 173.366H130.844V168.428H125.906V173.366H120.969V168.428H116.031V173.366H113.562C112.908 173.365 112.28 173.105 111.818 172.642C111.355 172.179 111.094 171.552 111.094 170.897C111.096 168.933 111.877 167.051 113.265 165.662C114.654 164.274 116.536 163.493 118.5 163.491H128.375C130.339 163.493 132.221 164.274 133.61 165.662C134.998 167.051 135.779 168.933 135.781 170.897C135.781 171.552 135.52 172.179 135.057 172.642C134.595 173.105 133.967 173.365 133.312 173.366V173.366ZM128.375 158.553H118.5C117.671 158.552 116.844 158.635 116.031 158.8V143.741C116.031 141.776 116.812 139.893 118.2 138.504C119.589 137.115 121.473 136.335 123.438 136.335C125.402 136.335 127.286 137.115 128.675 138.504C130.063 139.893 130.844 141.776 130.844 143.741V158.8C130.031 158.635 129.204 158.552 128.375 158.553V158.553ZM130.844 62.272H140.719C142.682 62.2742 144.565 63.0552 145.953 64.4437C147.342 65.8322 148.123 67.7147 148.125 69.6783C148.124 70.3328 147.864 70.9603 147.401 71.4231C146.938 71.8859 146.311 72.1463 145.656 72.147H143.188V67.2095H138.25V72.147H133.312V67.2095H128.375V72.147H125.906C125.252 72.1463 124.624 71.8859 124.161 71.4231C123.699 70.9603 123.438 70.3328 123.438 69.6783C123.44 67.7147 124.221 65.8322 125.609 64.4437C126.998 63.0552 128.88 62.2742 130.844 62.272V62.272ZM128.375 94.3658V77.0845H143.188V101.772C143.182 105.978 141.646 110.038 138.865 113.193C136.084 116.348 132.25 118.383 128.078 118.917C127.357 116.59 126.514 114.301 125.553 112.062C124.335 109.226 122.934 106.472 121.358 103.819C123.386 103.203 125.163 101.952 126.426 100.25C127.689 98.5479 128.372 96.4853 128.375 94.3658V94.3658ZM99.2536 35.441C99.4502 35.2772 99.6878 35.1703 99.9407 35.1318C100.194 35.0933 100.452 35.1247 100.689 35.2226C100.925 35.3205 101.13 35.4812 101.282 35.6873C101.433 35.8934 101.526 36.137 101.549 36.3918L102.606 48.015C99.4236 45.221 95.7204 43.0841 91.7091 41.7274L99.2536 35.441ZM47.9734 35.1158C48.3015 35.116 48.6192 35.231 48.8714 35.441L56.4159 41.7283C52.4047 43.0848 48.7014 45.2213 45.5194 48.015L46.5761 36.3909C46.6065 36.0418 46.7671 35.7169 47.0259 35.4807C47.2848 35.2445 47.6229 35.1142 47.9734 35.1158V35.1158ZM39.5 72.147C39.5082 64.9472 42.3719 58.0447 47.4629 52.9537C52.5539 47.8627 59.4565 44.9989 66.6562 44.9908H81.4688C88.6685 44.9989 95.5711 47.8627 100.662 52.9537C105.753 58.0447 108.617 64.9472 108.625 72.147V79.5533H39.5V72.147ZM37.0312 84.4908H111.094C111.749 84.4908 112.376 84.7509 112.839 85.2138C113.302 85.6768 113.562 86.3048 113.562 86.9595C113.562 87.6143 113.302 88.2422 112.839 88.7052C112.376 89.1682 111.749 89.4283 111.094 89.4283H37.0312C36.3765 89.4283 35.7486 89.1682 35.2856 88.7052C34.8226 88.2422 34.5625 87.6143 34.5625 86.9595C34.5625 86.3048 34.8226 85.6768 35.2856 85.2138C35.7486 84.7509 36.3765 84.4908 37.0312 84.4908V84.4908ZM79 99.3033C78.9995 100.17 78.7711 101.021 78.3378 101.771C77.9045 102.521 77.2815 103.144 76.5312 103.578V99.3033H71.5938V103.578C70.8431 103.145 70.2198 102.521 69.7864 101.771C69.3531 101.02 69.1249 100.168 69.125 99.3016C69.1251 98.4348 69.3533 97.5833 69.7868 96.8327C70.2202 96.0821 70.8436 95.4589 71.5943 95.0256C72.345 94.5923 73.1966 94.3643 74.0634 94.3644C74.9301 94.3646 75.7816 94.5929 76.5321 95.0264C77.2827 95.46 77.9059 96.0834 78.3391 96.8342C78.7723 97.5849 79.0002 98.4365 79 99.3033V99.3033ZM40.2082 94.3658H65.5129C64.6453 95.8669 64.1881 97.57 64.1875 99.3038C64.1869 101.038 64.6427 102.741 65.5093 104.243C66.3758 105.745 67.6225 106.992 69.124 107.859C70.6254 108.726 72.3287 109.182 74.0625 109.182C75.7963 109.182 77.4996 108.726 79.001 107.859C80.5025 106.992 81.7492 105.745 82.6157 104.243C83.4823 102.741 83.9381 101.038 83.9375 99.3038C83.9369 97.57 83.4797 95.8669 82.6121 94.3658H107.917C117.693 104.272 124.348 118.368 125.666 131.599C123.886 131.273 122.057 131.342 120.306 131.802C118.556 132.262 116.928 133.1 115.538 134.259C114.148 135.417 113.029 136.867 112.261 138.505C111.493 140.144 111.095 141.931 111.094 143.741V161.028C109.1 162.527 107.604 164.591 106.802 166.953C98.2254 171.208 87.2169 173.366 74.0625 173.366C64.7374 173.366 56.4393 172.267 49.3256 170.095C52.5554 166.14 54.3174 161.19 54.3125 156.085V136.335C54.3121 132.823 53.479 129.362 51.8817 126.236C50.2843 123.109 47.9682 120.405 45.1235 118.347C46.394 117.748 47.4681 116.8 48.2208 115.614C48.9734 114.427 49.3737 113.052 49.375 111.647C49.3713 108.374 48.0696 105.237 45.7555 102.923C43.4414 100.609 40.3039 99.3069 37.0312 99.3033H35.8453C37.2082 97.5788 38.6647 95.9305 40.2082 94.3658V94.3658ZM27.1562 104.241H37.0312C38.9948 104.243 40.8774 105.024 42.2658 106.412C43.6543 107.801 44.4353 109.683 44.4375 111.647C44.4368 112.302 44.1764 112.929 43.7136 113.392C43.2508 113.855 42.6233 114.115 41.9688 114.116H39.5V109.178H34.5625V114.116H29.625V109.178H24.6875V114.116H22.2188C21.5642 114.115 20.9367 113.855 20.4739 113.392C20.0111 112.929 19.7507 112.302 19.75 111.647C19.7522 109.683 20.5332 107.801 21.9217 106.412C23.3101 105.024 25.1927 104.243 27.1562 104.241V104.241ZM14.8125 136.335C14.8125 131.751 16.6332 127.356 19.8741 124.115C23.1149 120.874 27.5105 119.053 32.0938 119.053C36.677 119.053 41.0726 120.874 44.3134 124.115C47.5543 127.356 49.375 131.751 49.375 136.335V156.085C49.375 160.668 47.5543 165.063 44.3134 168.304C41.0726 171.545 36.677 173.366 32.0938 173.366C27.5105 173.366 23.1149 171.545 19.8741 168.304C16.6332 165.063 14.8125 160.668 14.8125 156.085V136.335ZM12.0463 165.66C13.4821 168.649 15.5647 171.281 18.1432 173.366H12.3438C11.6892 173.365 11.0617 173.105 10.5989 172.642C10.1361 172.179 9.87574 171.552 9.875 170.897C9.8786 168.933 10.6592 167.051 12.0463 165.66V165.66Z" fill="black"/>
<path d="M22.2188 128.928H41.9688V133.866H22.2188V128.928Z" fill="black"/>
<path d="M22.2188 138.803H41.9688V143.741H22.2188V138.803Z" fill="black"/>
<path d="M22.2188 148.678H41.9688V153.616H22.2188V148.678Z" fill="black"/>
<path d="M22.2188 158.553H41.9688V163.491H22.2188V158.553Z" fill="black"/>
<path d="M83.9375 65.9751C83.9375 66.9572 83.5474 67.8991 82.8529 68.5936C82.1584 69.2881 81.2165 69.6782 80.2344 69.6782C79.2522 69.6782 78.3103 69.2881 77.6159 68.5936C76.9214 67.8991 76.5313 66.9572 76.5313 65.9751V64.7407C76.5313 64.086 76.2712 63.458 75.8082 62.9951C75.3452 62.5321 74.7173 62.272 74.0625 62.272C73.4078 62.272 72.7798 62.5321 72.3168 62.9951C71.8539 63.458 71.5938 64.086 71.5938 64.7407V65.9751C71.5938 66.9572 71.2036 67.8991 70.5091 68.5936C69.8147 69.2881 68.8728 69.6782 67.8906 69.6782C66.9085 69.6782 65.9666 69.2881 65.2721 68.5936C64.5777 67.8991 64.1875 66.9572 64.1875 65.9751V64.7407H59.25V65.9751C59.2492 67.6919 59.7601 69.3701 60.7175 70.7952C61.6749 72.2203 63.0353 73.3278 64.625 73.9761C66.2147 74.6245 67.9616 74.7844 69.6426 74.4353C71.3235 74.0863 72.8624 73.2441 74.0625 72.0164C75.2626 73.2441 76.8015 74.0863 78.4825 74.4353C80.1634 74.7844 81.9103 74.6245 83.5 73.9761C85.0897 73.3278 86.4501 72.2203 87.4075 70.7952C88.3649 69.3701 88.8758 67.6919 88.875 65.9751V64.7407H83.9375V65.9751Z" fill="black"/>
</svg>
