<svg version="1" xmlns="http://www.w3.org/2000/svg" width="162.667" height="162.667" viewBox="0 0 122.000000 122.000000"><path d="M32.3 11.4c-8.8 2.8-17.6 10.7-21.6 19.4-2.1 4.5-2.2 6.1-2.2 35.2v30.5l2.8 5.6c3.2 6.7 10.9 14.2 17.5 17.2 4.5 2.1 6.1 2.2 32.2 2.2s27.7-.1 32.2-2.2c6.6-3 14.3-10.5 17.5-17.2l2.8-5.6v-61l-2.8-5.6c-3.2-6.7-10.9-14.2-17.5-17.2-4.4-2.1-6.3-2.2-30.7-2.4-19.4-.2-27.1.1-30.2 1.1zM90.4 17c6.6 2.5 13 8.5 15.9 14.8 2.1 4.4 2.2 6.5 2.5 32.8.3 26.4.2 28.3-1.8 33.6-2.5 6.8-8.4 13.2-14.8 16.1-4.3 2-6.6 2.2-29.7 2.5-23.5.3-25.5.2-30.7-1.8-6.8-2.5-13.2-8.4-16.1-14.8-2.1-4.4-2.2-6.5-2.5-32.6-.3-23.2-.1-28.6 1.3-32.4 3.1-9.3 9.7-15.9 18.7-18.7 3.1-1 11.1-1.4 28-1.4 21.5-.1 24.2.1 29.2 1.9z"/><path d="M35 25.3c-4.8 1.6-10.7 7.8-12 12.7-.7 2.6-1 13.3-.8 29.8.3 29.3.8 31.1 8.7 36.7l4.3 3h25.1c28.8 0 30.5-.4 36.2-8.4l3-4.3V66.7c0-32.2-.3-33.4-8.4-39.2l-4.3-3-24.1-.2c-15.8-.1-25.4.2-27.7 1zm42.5 6.6c5.1 2.3 10.2 8.1 11.1 12.6 1.1 5.8-.1 12.2-2.9 15.8l-2.6 3.4 2.5 4.8c5.7 11.4.7 25.8-11 31.5-5.7 2.7-16.3 3.6-25.1 2.1-12.1-2.1-18.4-6.8-19.2-14.4-.6-5.1 2.3-11.7 6.2-14.3l2.5-1.6-2.1-2.9c-4.4-6.2-4.1-18.4.6-26.5 6.7-11.4 26.2-16.5 40-10.5z"/><path d="M53 39.6c-7.5 3.2-11 8.6-11 16.7 0 8 2.6 11.3 12.7 16.1 4.5 2.2 8.5 4.6 8.7 5.3 1.7 4.3-5.3 6.4-12.5 3.8-6.6-2.5-8.9-2.4-11.2.7-5.2 7 2.4 12.1 18.3 12.2 10.8.1 15.5-1.5 19.1-6.6 2.3-3.2 3.5-9.3 2.5-13.2-1.2-4.7-6.3-9.3-13.6-12.2-10.5-4.1-12.9-8.3-6.5-11.3 2.5-1.2 3.2-1.2 5.4 0 1.6.9 2.7 2.5 2.9 4.2.3 2.4.7 2.7 4.1 2.7 5.8 0 9.1-3.1 9.1-8.4C81 41.4 76.1 38 64.3 38c-4.7.1-9.2.7-11.3 1.6z"/></svg>