<?xml version="1.0" standalone="no"?>
<!DOCTYPE svg PUBLIC "-//W3C//DTD SVG 20010904//EN"
 "http://www.w3.org/TR/2001/REC-SVG-20010904/DTD/svg10.dtd">
<svg version="1.0" xmlns="http://www.w3.org/2000/svg"
 width="700.000000pt" height="700.000000pt" viewBox="0 0 700.000000 700.000000"
 preserveAspectRatio="xMidYMid meet">
<metadata>
Created by potrace 1.11, written by Peter Selinger 2001-2013
</metadata>
<g transform="translate(0.000000,700.000000) scale(0.100000,-0.100000)"
fill="#000000" stroke="none">
<path d="M229 6986 c-98 -26 -171 -91 -210 -186 -12 -30 -14 -495 -14 -3305
l0 -3270 27 -51 c36 -68 81 -112 148 -143 l55 -26 3265 0 3265 0 55 26 c70 33
116 79 149 149 l26 55 3 3245 c2 2954 1 3249 -14 3300 -25 85 -73 143 -152
182 l-67 33 -3245 2 c-2550 1 -3255 -1 -3291 -11z m4098 -1060 c385 -58 645
-188 828 -415 152 -188 224 -445 195 -693 -23 -199 -78 -318 -200 -439 -138
-135 -325 -208 -593 -229 -135 -11 -243 -3 -287 20 -30 16 -50 69 -50 133 0
163 -61 340 -145 421 -87 85 -183 116 -359 116 -178 0 -311 -48 -415 -149 -72
-71 -102 -134 -109 -227 -8 -127 43 -240 143 -317 85 -65 376 -201 700 -328
326 -127 458 -188 578 -265 191 -123 321 -248 433 -415 155 -232 202 -416 191
-754 -8 -241 -41 -382 -134 -568 -227 -458 -663 -715 -1318 -778 -189 -18
-597 -6 -832 25 -457 60 -685 117 -918 231 -292 142 -396 278 -382 499 12 183
92 360 218 486 98 98 193 137 311 127 73 -6 112 -22 283 -119 117 -66 351
-149 495 -175 119 -21 471 -25 572 -5 230 43 307 109 308 263 0 215 -124 307
-745 554 -292 117 -388 163 -535 260 -224 149 -374 314 -482 530 -100 200
-144 488 -120 782 33 402 163 678 444 948 293 282 718 444 1308 499 98 9 518
-3 617 -18z"/>
</g>
</svg>
