<svg width="623" height="200" viewBox="0 0 623 200" fill="none" xmlns="http://www.w3.org/2000/svg">
<rect x="-160" width="443" height="200" fill="white"/>
<g clip-path="url(#clip0)">
<path d="M543.006 -4.24429L284.147 4.79527C251.889 5.92176 226.651 32.9857 227.778 65.2442L230.698 148.876C231.825 181.134 258.889 206.372 291.147 205.245L550.006 196.205C582.265 195.079 607.502 168.015 606.376 135.757L603.455 52.1252C602.329 19.8667 575.265 -5.37078 543.006 -4.24429Z" fill="#FF694E"/>
<path d="M543.123 -0.925761L284.264 8.11379C253.838 9.17628 230.034 34.7025 231.097 65.1281L234.017 148.759C235.08 179.185 260.606 202.989 291.032 201.926L549.891 192.887C580.316 191.824 604.12 166.298 603.057 135.872L600.137 52.2409C599.074 21.8153 573.548 -1.98825 543.123 -0.925761Z" fill="#FF694E" stroke="white" stroke-width="15"/>
<path d="M304.452 65.8094C312.05 65.544 317.69 66.8685 321.371 69.7827C325.049 72.6075 326.97 76.3439 327.132 80.9918C327.269 84.9248 326.123 87.9627 323.692 90.106C321.35 92.2461 317.855 93.3973 313.207 93.5596C311.956 93.6033 311.102 93.4989 310.646 93.2463C310.19 92.9938 309.949 92.51 309.924 91.7949C309.896 90.9905 309.775 90.0998 309.562 89.1228C309.435 88.0533 309.088 87.0809 308.521 86.2059C308.039 85.2382 307.252 84.4603 306.157 83.8721C305.152 83.2808 303.711 83.0179 301.834 83.0834C299.331 83.1708 297.342 83.8667 295.866 85.1712C294.387 86.3862 293.679 87.8875 293.741 89.6753C293.807 91.5523 294.62 93.0454 296.18 94.1542C297.826 95.1707 299.828 96.1299 302.187 97.032C304.634 97.931 307.262 98.8683 310.071 99.8441C312.876 100.731 315.47 101.982 317.854 103.6C320.326 105.214 322.368 107.29 323.978 109.829C325.674 112.276 326.592 115.51 326.733 119.532C326.958 125.968 324.862 131.322 320.447 135.592C316.032 139.863 309.266 142.158 300.149 142.476C297.646 142.563 294.734 142.442 291.411 142.11C288.181 141.865 285.077 141.391 282.099 140.69C279.118 139.9 276.575 138.824 274.469 137.466C272.452 136.105 271.407 134.351 271.332 132.206C271.304 131.402 271.403 130.413 271.631 129.242C271.948 128.068 272.401 126.934 272.989 125.839C273.667 124.742 274.44 123.82 275.309 123.073C276.264 122.235 277.412 121.792 278.752 121.745C279.825 121.707 280.818 121.941 281.73 122.446C282.643 122.951 283.691 123.497 284.875 124.082C286.145 124.574 287.683 125.057 289.49 125.531C291.296 126.005 293.674 126.191 296.624 126.088C298.858 126.01 300.815 125.673 302.495 125.077C304.264 124.478 305.116 123.241 305.05 121.364C304.991 119.665 304.229 118.349 302.764 117.416C301.297 116.393 299.43 115.474 297.164 114.658C294.988 113.84 292.586 112.984 289.96 112.091C287.42 111.106 285.003 109.803 282.709 108.183C280.504 106.559 278.642 104.477 277.121 101.934C275.597 99.3029 274.762 95.8866 274.615 91.6855C274.456 87.127 275.216 83.2523 276.894 80.0614C278.659 76.778 280.937 74.1031 283.729 72.0369C286.61 69.9675 289.868 68.4665 293.505 67.534C297.139 66.5123 300.788 65.9373 304.452 65.8094Z" fill="#FF694E"/>
<path d="M362.277 77.4826C362.349 79.5384 362.301 82.0011 362.132 84.8708C361.961 87.651 361.747 90.4775 361.489 93.3503C361.317 96.1305 361.141 98.7768 360.961 101.289C360.777 103.712 360.708 105.593 360.755 106.934C360.874 110.331 361.767 112.85 363.435 114.492C365.191 116.042 367.274 116.774 369.687 116.69C373.888 116.543 377.164 114.236 379.513 109.769C381.864 105.302 383.225 99.4375 383.597 92.1755L384.867 67.0285C384.923 66.0421 385.211 65.3608 385.735 64.9846C386.346 64.5157 387.009 64.2689 387.723 64.244L392.55 64.0754C394.427 64.0099 396.176 64.1278 397.797 64.4291C399.506 64.6379 401.001 65.1675 402.283 66.0176C403.563 66.7783 404.585 67.8613 405.349 69.2665C406.115 70.6716 406.536 72.4916 406.614 74.7261C406.645 75.6199 406.616 77.3214 406.524 79.8304C406.519 82.2468 406.419 85.7853 406.223 90.4457C406.114 95.0137 405.915 100.838 405.625 107.918C405.332 114.908 405.005 123.466 404.642 133.592C404.402 139.507 403.232 144.425 401.131 148.346C399.123 152.355 396.505 155.534 393.275 157.883C390.049 160.323 386.397 162.062 382.315 163.099C378.235 164.136 374.049 164.73 369.759 164.879C365.2 165.039 360.986 164.783 357.114 164.113C353.331 163.44 350.03 162.436 347.21 161.103C344.389 159.77 342.141 158.192 340.467 156.371C338.882 154.547 338.052 152.563 337.977 150.418C337.917 148.72 338.223 147.232 338.895 145.956C339.656 144.676 340.648 143.612 341.871 142.764C343.094 141.916 344.502 141.241 346.096 140.737C347.782 140.321 349.518 140.081 351.305 140.018C352.2 139.987 352.841 140.413 353.229 141.294C353.708 142.171 354.367 143.133 355.209 144.178C356.145 145.308 357.565 146.288 359.473 147.116C361.382 147.944 364.213 148.293 367.967 148.162C371.275 148.047 373.929 147.149 375.927 145.468C377.927 143.787 379.419 141.676 380.405 139.136C381.48 136.594 382.144 133.84 382.398 130.878C382.654 127.916 382.733 125.094 382.64 122.413C381.297 124.965 379.76 127.077 378.028 128.749C376.383 130.328 374.637 131.597 372.792 132.556C370.943 133.426 369.084 134.028 367.217 134.362C365.349 134.695 363.567 134.892 361.868 134.951C358.561 135.067 355.507 134.725 352.704 133.929C349.991 133.129 347.617 131.779 345.582 129.882C343.544 127.894 341.933 125.311 340.748 122.131C339.563 118.95 338.891 115.081 338.731 110.522C338.672 108.824 338.683 106.586 338.765 103.809C338.844 100.942 338.957 97.7616 339.103 94.2663C339.247 90.6816 339.381 86.8286 339.505 82.7077C339.719 78.5836 339.93 74.37 340.138 70.0671C340.22 67.29 341.423 65.8608 343.747 65.7797L348.037 65.6298C350.897 65.5299 353.231 65.7169 355.037 66.1908C356.843 66.6647 358.257 67.4208 359.277 68.4591C360.384 69.4049 361.145 70.6759 361.558 72.2723C361.97 73.7794 362.208 75.5162 362.277 77.4826Z" fill="#FF694E"/>
<path d="M465.955 123.53C465.886 121.564 465.931 119.012 466.09 115.874C466.335 112.644 466.531 109.281 466.678 105.786C466.91 102.198 467.103 98.7455 467.256 95.429C467.497 92.1094 467.58 89.3321 467.502 87.0976C467.42 84.7736 466.767 82.7381 465.543 80.991C464.405 79.1514 462.227 78.2877 459.009 78.4001C455.88 78.5094 453.316 79.3596 451.313 80.951C449.309 82.5423 447.663 85.3741 446.374 89.4463C445.174 93.5153 444.249 99.0962 443.603 106.189C442.956 113.281 442.423 122.384 442.006 133.495C441.954 134.571 441.755 135.294 441.41 135.664C441.065 136.033 440.311 136.239 439.15 136.28L434.323 136.448C431.552 136.545 429.264 136.356 427.457 135.882C425.737 135.316 424.322 134.515 423.212 133.48C422.19 132.442 421.431 131.171 420.931 129.667C420.517 128.07 420.274 126.245 420.202 124.188C420.155 122.848 420.135 120.969 420.14 118.553C420.232 116.044 420.381 112.638 420.588 108.335C420.792 103.943 421.003 98.4314 421.219 91.8013C421.521 85.0788 421.858 76.789 422.23 66.9318C422.25 64.9623 422.434 63.7923 422.779 63.4224C423.037 63.1449 423.748 62.9858 424.91 62.9452L430.139 62.7626C432.82 62.669 435.022 62.9054 436.741 63.4718C438.551 64.035 440.011 64.8342 441.121 65.8694C442.228 66.8152 443.029 67.9953 443.526 69.4098C444.021 70.7349 444.337 72.1111 444.476 73.5381C447.081 68.7039 450.141 65.3307 453.654 63.4181C457.163 61.4162 461.6 60.3216 466.963 60.1343C470.717 60.0032 473.994 60.2915 476.792 60.9992C479.591 61.7069 481.919 63.0128 483.775 64.9168C485.718 66.7283 487.191 69.1826 488.194 72.2799C489.193 75.2877 489.773 79.0709 489.933 83.6295C489.983 85.0596 489.965 87.1186 489.88 89.8063C489.794 92.4941 489.674 95.4515 489.519 98.6787C489.36 101.817 489.162 105.135 488.926 108.633C488.777 112.039 488.62 115.222 488.454 118.181C488.289 121.14 488.157 123.74 488.056 125.98C487.954 128.221 487.917 129.699 487.942 130.414C488.011 132.38 487.83 133.595 487.398 134.058C486.963 134.43 485.987 134.644 484.467 134.697L480.177 134.847C477.316 134.947 474.983 134.76 473.177 134.286C471.37 133.812 469.959 133.101 468.941 132.152C467.923 131.202 467.166 130.021 466.669 128.607C466.259 127.099 466.02 125.407 465.955 123.53Z" fill="#FF694E"/>
<path d="M566.965 120.943C566.981 121.39 566.789 122.291 566.388 123.648C565.988 125.004 565.322 126.415 564.388 127.879C563.455 129.343 562.248 130.638 560.765 131.764C559.373 132.887 557.649 133.484 555.592 133.556C553.179 133.64 550.738 132.92 548.268 131.395C545.888 129.867 543.488 127.758 541.067 125.069C538.646 122.379 536.163 119.199 533.619 115.529C531.16 111.767 528.647 107.693 526.078 103.309C525.886 108.058 525.69 112.719 525.492 117.29C525.294 121.861 525.09 126.298 524.883 130.601C524.831 131.676 524.632 132.4 524.287 132.769C523.943 133.139 523.188 133.345 522.027 133.385L517.2 133.554C514.43 133.651 512.141 133.462 510.334 132.988C508.524 132.425 507.11 131.624 506.089 130.586C505.068 129.548 504.307 128.232 503.803 126.639C503.387 124.953 503.14 123.037 503.065 120.892C503.028 119.819 503.034 118.7 503.082 117.535C503.131 116.37 503.207 114.712 503.311 112.561C503.416 110.409 503.54 107.586 503.687 104.09C503.922 100.592 504.164 95.9746 504.411 90.2385C504.659 84.5023 504.905 77.4685 505.151 69.1371C505.483 60.7132 505.797 50.5001 506.095 38.4976C506.115 36.5281 506.299 35.3582 506.643 34.9882C506.902 34.7107 507.613 34.5517 508.774 34.5111L514.003 34.3285C516.774 34.2318 519.064 34.465 520.874 35.0282C522.684 35.5914 524.143 36.3907 525.253 37.4259C526.364 38.461 527.123 39.6874 527.53 41.1051C528.027 42.5195 528.302 43.9866 528.355 45.5062C528.386 46.3999 528.35 47.9226 528.246 50.0741C528.229 52.1331 528.183 54.6852 528.11 57.7304C528.034 60.6864 527.883 64.0476 527.657 67.8142C527.52 71.5777 527.389 75.52 527.265 79.641L548.033 59.3168C548.813 58.5736 549.511 58.057 550.127 57.7671C550.833 57.4739 551.365 57.3211 551.722 57.3086C552.705 57.2743 553.8 57.8625 555.005 59.0733C556.21 60.2842 557.334 61.7216 558.377 63.3855C559.506 64.9569 560.415 66.6255 561.103 68.3914C561.878 70.0646 562.283 71.4377 562.321 72.5103C562.411 75.1024 560.406 77.9019 556.305 80.9089C552.293 83.9128 546.148 87.3492 537.871 91.2179C541.772 95.2879 545.481 99.0065 549 102.374C552.519 105.741 555.576 108.722 558.172 111.316C560.858 113.907 562.989 116.026 564.569 117.67C566.148 119.315 566.946 120.406 566.965 120.943Z" fill="#FF694E"/>
<path fill-rule="evenodd" clip-rule="evenodd" d="M283.728 72.0368C286.609 69.9674 289.868 68.4664 293.505 67.534C297.138 66.5122 300.788 65.9373 304.452 65.8093C312.05 65.544 317.689 66.8684 321.371 69.7826C323.048 71.0705 324.36 72.5481 325.306 74.2152C326.435 76.2042 327.044 78.463 327.132 80.9917C327.145 81.3575 327.146 81.7156 327.137 82.0659C327.135 82.1555 327.131 82.2447 327.127 82.3334C327.008 85.0772 326.191 87.3353 324.676 89.1075C324.585 89.2142 324.491 89.3193 324.395 89.4226C324.371 89.4477 324.348 89.4727 324.324 89.4974C324.144 89.6873 323.954 89.8712 323.756 90.0489C323.734 90.068 323.713 90.0869 323.692 90.1059C323.177 90.5763 322.606 90.999 321.98 91.3738C319.758 92.7044 316.833 93.4329 313.207 93.5595C312.858 93.5717 312.541 93.5724 312.254 93.5616C312.187 93.559 312.122 93.5559 312.059 93.5522C311.417 93.5141 310.945 93.4122 310.646 93.2463C310.189 92.9937 309.949 92.51 309.924 91.7948C309.896 90.9904 309.775 90.0997 309.562 89.1227C309.435 88.0532 309.088 87.0809 308.521 86.2058C308.175 85.5118 307.673 84.9155 307.012 84.4166C306.962 84.3791 306.912 84.3422 306.86 84.3059C306.742 84.2223 306.619 84.1415 306.492 84.0637C306.384 83.9977 306.272 83.9338 306.157 83.872C305.577 83.5309 304.852 83.2992 303.983 83.1765C303.677 83.1335 303.353 83.1039 303.012 83.0879C302.64 83.0704 302.248 83.0689 301.834 83.0833C299.331 83.1707 297.342 83.8666 295.866 85.1711C294.387 86.3861 293.679 87.8874 293.741 89.6752C293.795 91.2145 294.351 92.4956 295.41 93.5183C295.642 93.7427 295.899 93.9546 296.18 94.1542C296.263 94.2056 296.347 94.257 296.432 94.3081C297.258 94.8039 298.169 95.286 299.166 95.7543C299.325 95.8293 299.487 95.9038 299.65 95.9779C300.444 96.3375 301.29 96.6888 302.187 97.0319C302.232 97.0485 302.277 97.0651 302.323 97.0818C302.654 97.2035 302.989 97.3259 303.328 97.449C304.665 97.9355 306.053 98.433 307.494 98.9415C308.335 99.2387 309.194 99.5395 310.071 99.8441C311.241 100.214 312.375 100.647 313.472 101.145C315.004 101.839 316.465 102.657 317.853 103.599C319.35 104.577 320.689 105.723 321.87 107.039C322.64 107.897 323.342 108.827 323.978 109.829C324.019 109.889 324.06 109.95 324.101 110.011C324.315 110.331 324.516 110.665 324.704 111.012C325.938 113.288 326.614 116.128 326.733 119.532C326.8 121.463 326.659 123.295 326.309 125.031C325.492 129.081 323.538 132.603 320.447 135.592C316.032 139.862 309.266 142.157 300.149 142.476C297.646 142.563 294.734 142.442 291.411 142.11C288.18 141.865 285.076 141.391 282.099 140.69C279.118 139.9 276.575 138.824 274.469 137.466C272.452 136.105 271.407 134.351 271.332 132.206C271.304 131.402 271.403 130.413 271.631 129.242C271.948 128.068 272.401 126.933 272.989 125.839C273.666 124.741 274.44 123.82 275.308 123.073C275.864 122.586 276.484 122.232 277.169 122.012C277.663 121.853 278.191 121.764 278.752 121.745C279.825 121.707 280.818 121.941 281.73 122.446C282.643 122.951 283.691 123.496 284.875 124.082C284.998 124.13 285.125 124.177 285.254 124.225C285.422 124.288 285.595 124.35 285.772 124.412C286.85 124.791 288.089 125.164 289.489 125.531C290.099 125.691 290.773 125.819 291.512 125.913C291.946 125.968 292.402 126.012 292.88 126.044C292.94 126.049 293 126.052 293.06 126.056C294.137 126.123 295.325 126.133 296.624 126.088C296.657 126.086 296.691 126.085 296.724 126.084C296.904 126.076 297.081 126.069 297.257 126.057C299.23 125.943 300.976 125.615 302.495 125.077C304.264 124.478 305.115 123.24 305.05 121.363C304.991 119.665 304.229 118.349 302.764 117.416C301.774 116.726 300.602 116.083 299.249 115.487C299.188 115.461 299.127 115.434 299.066 115.408C298.467 115.149 297.833 114.899 297.164 114.658C296.851 114.541 296.534 114.422 296.212 114.303C295.515 114.045 294.797 113.784 294.057 113.519C293.632 113.367 293.2 113.214 292.761 113.059C292.084 112.821 291.39 112.58 290.68 112.337C290.442 112.255 290.202 112.173 289.96 112.091C289.834 112.042 289.708 111.992 289.583 111.942C289.029 111.719 288.481 111.481 287.939 111.228C286.13 110.383 284.386 109.368 282.709 108.183C282.326 107.901 281.954 107.606 281.593 107.297C279.868 105.823 278.378 104.036 277.121 101.934C275.597 99.3028 274.762 95.8865 274.615 91.6855C274.456 87.1269 275.216 83.2522 276.894 80.0613C278.659 76.7779 280.937 74.1031 283.728 72.0368ZM266.077 111.744C265.552 110.994 265.054 110.224 264.582 109.435L264.528 109.346L264.476 109.256C261.38 103.908 260.213 97.9241 260.013 92.1954C259.788 85.7582 260.826 79.2225 263.963 73.2593L263.993 73.2015L264.024 73.1441C266.732 68.1051 270.388 63.7327 275.036 60.2927L275.119 60.2306L275.204 60.1697C279.598 57.0136 284.479 54.7852 289.708 53.424C294.38 52.123 299.132 51.3749 303.942 51.207C312.711 50.9008 322.177 52.1905 329.707 57.7651C329.778 57.6774 329.85 57.5901 329.923 57.5029C333.814 52.8801 339.032 51.324 343.237 51.1772L347.527 51.0274C351.137 50.9013 355.037 51.085 358.744 52.0576C362.227 52.9711 366.02 54.6767 369.246 57.7696C370.114 58.5573 370.895 59.3953 371.592 60.2719C372.559 57.8827 374.207 55.3415 377.005 53.2685C379.809 51.1646 383.301 49.7781 387.213 49.6415L392.04 49.4729C394.699 49.3801 397.382 49.5267 400.046 49.988C403.473 50.4684 406.901 51.6182 410.062 53.6474C410.471 53.8993 410.869 54.1622 411.255 54.4355C411.511 54.1102 411.789 53.7828 412.093 53.4575C415.366 49.9469 419.316 49.0601 420.313 48.8368C421.911 48.479 423.382 48.3785 424.4 48.3429L429.629 48.1603C433.246 48.034 437.284 48.2895 441.191 49.5545C442.604 50 444.04 50.5654 445.456 51.2807C445.81 51.0663 446.171 50.8582 446.537 50.6567C452.634 47.2118 459.517 45.7742 466.453 45.532C471.194 45.3664 475.906 45.7043 480.374 46.8338C484.245 47.8125 487.891 49.4955 491.115 51.952C491.241 47.6808 491.364 43.1071 491.485 38.23C491.502 36.9587 491.571 35.4256 491.812 33.8863C491.936 33.0935 492.158 31.9502 492.593 30.677C492.967 29.5871 493.875 27.2578 495.958 25.0234L506.643 34.9883C506.299 35.3582 506.115 36.5281 506.095 38.4977C505.797 50.5001 505.483 60.7133 505.151 69.1371C504.957 75.7256 504.761 81.5026 504.567 86.468C504.514 87.7817 504.464 89.0385 504.411 90.2385C504.412 90.2478 504.411 90.2571 504.41 90.2666C504.263 93.7059 504.116 96.7425 503.971 99.3764C503.971 99.3877 503.97 99.3992 503.97 99.4105C503.875 101.146 503.781 102.706 503.687 104.09C503.605 106.023 503.532 107.75 503.464 109.271C503.458 109.386 503.453 109.5 503.449 109.612C503.4 110.705 503.354 111.688 503.311 112.561C503.207 114.712 503.131 116.37 503.082 117.535C503.062 118.023 503.05 118.5 503.044 118.971C503.037 119.626 503.044 120.267 503.065 120.892C503.14 123.037 503.387 124.953 503.803 126.639C504.307 128.232 505.068 129.548 506.089 130.586C507.11 131.624 508.524 132.425 510.334 132.988C512.141 133.462 514.43 133.651 517.2 133.554L522.027 133.385C523.188 133.345 523.943 133.139 524.287 132.769C524.632 132.4 524.831 131.677 524.883 130.601C524.917 129.906 524.95 129.207 524.984 128.504C525.095 126.138 525.206 123.733 525.316 121.286C525.32 121.173 525.326 121.058 525.331 120.945C525.385 119.736 525.439 118.517 525.492 117.29C525.69 112.719 525.886 108.058 526.077 103.309C528.647 107.694 531.16 111.767 533.619 115.529C534.137 116.277 534.653 117.003 535.165 117.71C536.746 119.887 538.302 121.872 539.835 123.663C540.248 124.146 540.657 124.614 541.067 125.069C543.488 127.758 545.887 129.867 548.268 131.395C550.738 132.92 553.179 133.64 555.592 133.556C557.649 133.484 559.373 132.887 560.765 131.764C562.248 130.638 563.454 129.343 564.388 127.879C565.322 126.415 565.988 125.004 566.388 123.648C566.789 122.291 566.981 121.39 566.965 120.943C566.946 120.406 566.148 119.315 564.569 117.67C562.989 116.026 560.858 113.907 558.172 111.316C555.576 108.722 552.519 105.741 549 102.374C548.931 102.308 548.864 102.243 548.795 102.177C545.338 98.8619 541.696 95.2088 537.871 91.2179C543.292 88.6845 547.798 86.3365 551.388 84.174C553.281 83.0341 554.92 81.9458 556.305 80.909C560.406 77.9019 562.411 75.1025 562.32 72.5103C562.283 71.4377 561.878 70.0647 561.103 68.3914C560.415 66.6255 559.506 64.9569 558.377 63.3855C557.334 61.7216 556.21 60.2842 555.005 59.0734C553.8 57.8625 552.705 57.2743 551.722 57.3087C551.365 57.3211 550.833 57.474 550.127 57.7671C549.511 58.0571 548.813 58.5736 548.033 59.3168L527.265 79.641C527.295 78.6145 527.328 77.599 527.359 76.5947C527.455 73.5671 527.554 70.6403 527.657 67.8143C527.867 64.3239 528.012 61.1816 528.092 58.3874C528.099 58.1663 528.105 57.9473 528.11 57.7305C528.183 54.6852 528.229 52.1331 528.246 50.0741C528.35 47.9227 528.386 46.4 528.355 45.5062C528.302 43.9866 528.027 42.5196 527.53 41.1051C527.123 39.6875 526.364 38.461 525.253 37.4259C524.143 36.3908 522.684 35.5915 520.874 35.0283L525.217 21.0774C528.614 22.1347 532.154 23.8833 535.218 26.7399C538.098 29.425 540.251 32.776 541.442 36.6306C542.356 39.3453 542.858 42.1496 542.957 44.9963C542.957 45.006 542.958 45.0158 542.958 45.0256C543.265 44.8598 543.581 44.6995 543.906 44.5463L544.211 44.4029L544.523 44.2736C545.431 43.8962 548.042 42.8171 551.212 42.7064C558.4 42.4554 563.269 46.6654 565.359 48.7635C567.33 50.7427 569.036 52.9333 570.518 55.2464C572.136 57.559 573.487 60.0345 574.548 62.6604C575.598 64.9964 576.793 68.2836 576.923 72.0004C577.29 82.5041 569.521 89.3264 565.003 92.649C564.092 93.3293 563.12 94.0105 562.092 94.6929C564.414 96.9372 566.519 99.0035 568.409 100.889C571.116 103.502 573.367 105.736 575.111 107.554C576.089 108.573 577.188 109.789 578.14 111.09C578.613 111.735 579.265 112.692 579.86 113.877C580.338 114.827 581.455 117.215 581.567 120.433C581.641 122.542 581.263 124.343 581.122 125C580.919 125.955 580.659 126.912 580.403 127.782C579.539 130.71 578.219 133.365 576.711 135.732C574.818 138.699 572.45 141.211 569.753 143.285C565.581 146.578 560.757 147.995 556.102 148.158C550.268 148.362 545.014 146.558 540.592 143.828L540.483 143.76L540.376 143.691C539.029 142.826 537.729 141.878 536.474 140.858C536.048 141.482 535.552 142.114 534.973 142.734C532.199 145.71 528.99 146.839 527.304 147.299C525.452 147.803 523.754 147.945 522.537 147.988L517.71 148.156C514.136 148.281 510.3 148.085 506.626 147.121L506.307 147.038L505.991 146.939C503.593 146.193 501.045 145.068 498.658 143.372C498.475 143.59 498.285 143.808 498.084 144.022L497.531 144.614L496.919 145.142C493.961 147.682 490.782 148.482 489.454 148.773C487.789 149.136 486.211 149.256 484.977 149.299L480.686 149.449C477.076 149.575 473.176 149.391 469.469 148.419C466.091 147.533 462.264 145.903 458.976 142.837C457.756 141.7 456.693 140.461 455.782 139.148C455.283 140.801 454.267 143.3 452.096 145.628C449.321 148.604 446.112 149.733 444.427 150.193C442.574 150.698 440.875 150.839 439.659 150.882L434.833 151.05C431.259 151.175 427.423 150.979 423.749 150.015L423.314 149.901L422.887 149.761C420.987 149.135 419.08 148.296 417.251 147.188C416.469 149.915 415.435 152.553 414.107 155.064C411.21 160.788 407.215 165.78 401.984 169.617C397.167 173.237 391.762 175.772 385.916 177.259C380.804 178.558 375.583 179.296 370.269 179.482C364.862 179.67 359.627 179.376 354.622 178.51L354.587 178.503L354.554 178.498C349.778 177.648 345.19 176.309 340.965 174.313C336.869 172.376 332.947 169.78 329.712 166.262L329.573 166.11L329.438 165.955C326.049 162.056 323.716 157.125 323.397 151.428C316.581 155.23 308.65 156.799 300.659 157.078C297.378 157.193 293.842 157.03 290.13 156.666C286.249 156.363 282.45 155.784 278.748 154.911L278.55 154.865L278.352 154.812C274.22 153.716 270.197 152.098 266.548 149.744L266.42 149.661L266.292 149.575C260.997 146 256.991 140.207 256.729 132.716C256.649 130.415 256.94 128.246 257.288 126.456L257.388 125.941L257.524 125.435C258.139 123.157 259.012 120.981 260.119 118.922L260.326 118.536L260.556 118.163C261.913 115.965 263.616 113.867 265.733 112.037C265.847 111.938 265.961 111.84 266.077 111.744ZM340.245 144.161C339.734 144.702 339.284 145.3 338.895 145.955C338.223 147.232 337.917 148.72 337.977 150.417C338.052 152.563 338.882 154.547 340.467 156.371C342.141 158.192 344.389 159.77 347.21 161.103C350.03 162.436 353.331 163.439 357.114 164.113C360.986 164.783 365.2 165.038 369.759 164.879C374.049 164.729 378.235 164.135 382.315 163.098C386.397 162.061 390.049 160.323 393.275 157.883C396.505 155.533 399.123 152.355 401.13 148.346C403.232 144.425 404.402 139.506 404.642 133.592C405.005 123.466 405.332 114.908 405.625 107.918C405.915 100.838 406.114 95.0135 406.223 90.4456C406.419 85.7851 406.519 82.2467 406.524 79.8302C406.616 77.3212 406.645 75.6197 406.614 74.726C406.536 72.4914 406.115 70.6714 405.349 69.2663C404.585 67.8612 403.563 66.7782 402.283 66.0174C401.001 65.1673 399.506 64.6378 397.797 64.4289C396.176 64.1276 394.427 64.0097 392.55 64.0752L387.723 64.2438C387.009 64.2687 386.346 64.5156 385.735 64.9844C385.211 65.3606 384.923 66.0419 384.867 67.0283L383.597 92.1754C383.225 99.4373 381.864 105.302 379.513 109.769C377.494 113.61 374.789 115.853 371.4 116.501C370.848 116.606 370.276 116.669 369.687 116.69C369.485 116.697 369.285 116.698 369.086 116.694C366.926 116.645 365.042 115.911 363.435 114.492C361.767 112.85 360.874 110.331 360.755 106.934C360.708 105.593 360.777 103.711 360.961 101.289C361.141 98.7766 361.317 96.1304 361.489 93.3501C361.747 90.4773 361.961 87.6508 362.132 84.8706C362.301 82.0009 362.349 79.5382 362.277 77.4824C362.208 75.516 361.97 73.7792 361.558 72.2722C361.145 70.6757 360.384 69.4047 359.277 68.4589C358.257 67.4206 356.843 66.6645 355.037 66.1907C353.231 65.7168 350.897 65.5298 348.037 65.6297L343.747 65.7795C341.423 65.8606 340.22 67.2898 340.138 70.0669C340.114 70.5491 340.091 71.0303 340.068 71.5104C339.919 74.5712 339.768 77.5863 339.616 80.5558C339.579 81.2757 339.542 81.993 339.505 82.7075C339.389 86.5368 339.266 90.1345 339.134 93.5007C339.124 93.7571 339.114 94.0123 339.103 94.2661C338.957 97.7614 338.844 100.942 338.765 103.809C338.738 104.749 338.718 105.627 338.706 106.443C338.684 108.039 338.692 109.399 338.731 110.522C338.843 113.71 339.205 116.561 339.818 119.075C340.081 120.156 340.391 121.174 340.748 122.13C340.908 122.559 341.075 122.979 341.251 123.386C341.731 124.5 342.269 125.534 342.865 126.486C343.666 127.765 344.572 128.896 345.582 129.882C347.199 131.39 349.029 132.551 351.073 133.365C351.603 133.576 352.146 133.765 352.704 133.929C355.507 134.725 358.561 135.067 361.868 134.951C362.837 134.917 363.832 134.839 364.856 134.715C365.054 134.692 365.252 134.667 365.452 134.64C365.693 134.607 365.935 134.572 366.178 134.535C366.182 134.533 366.186 134.533 366.189 134.533C366.198 134.531 366.208 134.53 366.218 134.528C366.368 134.505 366.52 134.48 366.672 134.455C366.853 134.426 367.034 134.394 367.217 134.362C367.306 134.345 367.395 134.329 367.483 134.312C367.59 134.291 367.696 134.27 367.801 134.248C368.027 134.202 368.251 134.15 368.475 134.096C369.92 133.743 371.358 133.231 372.792 132.556C373.944 131.958 375.057 131.238 376.129 130.399C376.153 130.381 376.175 130.363 376.198 130.345C376.821 129.854 377.431 129.321 378.028 128.749C379.76 127.077 381.297 124.965 382.64 122.413C382.697 124.064 382.689 125.77 382.615 127.528C382.568 128.625 382.497 129.741 382.398 130.878C382.337 131.601 382.25 132.309 382.139 133.007C382.138 133.015 382.137 133.022 382.136 133.028C381.792 135.183 381.215 137.219 380.405 139.136C379.847 140.575 379.126 141.878 378.242 143.041C378.136 143.179 378.028 143.316 377.918 143.451C377.323 144.18 376.659 144.853 375.927 145.468C374.281 146.852 372.192 147.705 369.658 148.027C369.116 148.097 368.551 148.142 367.967 148.162C365.769 148.239 363.886 148.15 362.32 147.898C361.213 147.72 360.264 147.459 359.473 147.116C357.565 146.288 356.145 145.308 355.209 144.178C354.367 143.133 353.708 142.171 353.229 141.293C352.841 140.413 352.2 139.987 351.305 140.018C351.193 140.022 351.08 140.027 350.968 140.033C350.946 140.033 350.925 140.034 350.903 140.035C349.257 140.118 347.655 140.352 346.096 140.737C344.502 141.241 343.094 141.916 341.871 142.764C341.274 143.178 340.732 143.644 340.245 144.161ZM422.23 66.9317C422.25 64.9622 422.434 63.7923 422.779 63.4223C423.037 63.1448 423.748 62.9858 424.91 62.9452L430.139 62.7626C431.491 62.7154 432.721 62.752 433.828 62.8727C434.918 62.9912 435.889 63.191 436.741 63.4717C438.551 64.0349 440.01 64.8342 441.12 65.8693C442.045 66.6598 442.758 67.614 443.257 68.7319C443.355 68.9515 443.445 69.1775 443.526 69.4098C443.85 70.2804 444.098 71.1729 444.27 72.0876C444.359 72.5651 444.428 73.0486 444.476 73.538C444.604 73.3001 444.733 73.0658 444.863 72.835C445.982 70.855 447.182 69.1352 448.463 67.6758C448.509 67.6232 448.555 67.5708 448.601 67.5187C449.511 66.5001 450.462 65.6116 451.452 64.8533C452.164 64.3074 452.898 63.8291 453.653 63.4181C454.486 62.9434 455.37 62.5196 456.307 62.1469C459.319 60.9481 462.871 60.2772 466.963 60.1343C470.717 60.0032 473.994 60.2915 476.792 60.9992C479.591 61.7069 481.918 63.0128 483.775 64.9167C485.718 66.7283 487.191 69.1826 488.194 72.2798C489.193 75.2876 489.773 79.0709 489.933 83.6294C489.956 84.315 489.964 85.145 489.957 86.1193C489.95 87.1288 489.927 88.2931 489.886 89.6127C489.883 89.6768 489.881 89.7414 489.88 89.8063C489.794 92.4941 489.674 95.4515 489.518 98.6787C489.445 100.121 489.364 101.601 489.275 103.119C489.267 103.241 489.261 103.363 489.253 103.486C489.154 105.156 489.046 106.872 488.926 108.633C488.878 109.732 488.829 110.807 488.778 111.859C488.696 113.612 488.61 115.301 488.523 116.926C488.5 117.348 488.477 117.766 488.454 118.181C488.45 118.274 488.444 118.367 488.439 118.459C488.28 121.303 488.152 123.811 488.055 125.98C487.954 128.221 487.917 129.699 487.942 130.414C488.01 132.38 487.83 133.595 487.398 134.058C486.963 134.43 485.987 134.644 484.467 134.697L480.177 134.847C477.316 134.947 474.983 134.76 473.176 134.286C471.37 133.812 469.959 133.101 468.941 132.152C467.923 131.202 467.166 130.021 466.669 128.607C466.259 127.099 466.02 125.407 465.955 123.53C465.886 121.564 465.931 119.012 466.09 115.874C466.335 112.644 466.531 109.281 466.677 105.786C466.91 102.198 467.103 98.7455 467.255 95.429C467.497 92.1093 467.579 89.3321 467.501 87.0975C467.42 84.7735 466.767 82.7381 465.543 80.9909C464.405 79.1513 462.227 78.2877 459.009 78.4001C458.867 78.405 458.725 78.4116 458.585 78.4197C457.21 78.4986 455.946 78.7257 454.796 79.1006C453.49 79.5266 452.329 80.1434 451.312 80.9509C449.309 82.5423 447.663 85.374 446.374 89.4462C445.189 93.4612 444.275 98.9479 443.628 105.906C443.62 106 443.611 106.094 443.602 106.189C442.956 113.281 442.423 122.384 442.005 133.495C441.954 134.571 441.755 135.294 441.41 135.664C441.065 136.033 440.311 136.239 439.149 136.279L434.323 136.448C431.552 136.545 429.264 136.356 427.457 135.882C425.737 135.316 424.321 134.515 423.211 133.48C422.19 132.442 421.431 131.171 420.93 129.667C420.517 128.07 420.274 126.245 420.202 124.188C420.155 122.848 420.135 120.969 420.14 118.553C420.231 116.044 420.381 112.638 420.588 108.335C420.792 103.942 421.003 98.4313 421.219 91.8013C421.521 85.0788 421.858 76.789 422.23 66.9317ZM520.874 35.0283L525.217 21.0774C521.292 19.8557 517.217 19.5962 513.494 19.7262L508.265 19.9088C507.246 19.9444 505.776 20.0449 504.178 20.4027C503.181 20.626 499.231 21.5129 495.958 25.0234L506.643 34.9883C506.902 34.7108 507.613 34.5517 508.774 34.5111L514.003 34.3285C516.774 34.2318 519.064 34.4651 520.874 35.0283Z" fill="white"/>
</g>
<defs>
<clipPath id="clip0">
<rect x="212" y="-5.97656" width="402.472" height="227.138" transform="rotate(-2 212 -5.97656)" fill="white"/>
</clipPath>
</defs>
</svg>
