<svg width="401" height="200" viewBox="0 0 401 200" fill="none" xmlns="http://www.w3.org/2000/svg">
<g clip-path="url(#clip0)">
<path d="M318.241 179.034L303.649 177.757L307.722 75.1919L332.041 77.3195L318.241 179.034Z" fill="#FFD578"/>
<path d="M318.241 179.034L318.454 176.601L306.18 175.528L310.059 77.843L329.277 79.5245L315.822 178.704L318.241 179.034L318.454 176.601L318.241 179.034L320.659 179.36L334.459 77.6459C334.549 76.9808 334.366 76.3169 333.946 75.7936C333.528 75.2691 332.921 74.9454 332.252 74.8868L307.933 72.7592C307.265 72.7007 306.611 72.9142 306.107 73.358C305.604 73.8006 305.308 74.4239 305.281 75.0932L301.21 177.659C301.157 178.961 302.137 180.074 303.435 180.188L318.027 181.465C319.325 181.578 320.483 180.652 320.658 179.36L318.241 179.034Z" fill="#0E0E0E"/>
<path d="M335.264 180.523L318.241 179.034L332.041 77.3195L353.927 79.2343L335.264 180.523Z" fill="#FF927D"/>
<path d="M335.264 180.523L335.477 178.091L321.003 176.824L334.147 79.9504L351.041 81.4285L332.863 180.079L335.264 180.523L335.477 178.091L335.264 180.523L337.665 180.964L356.328 79.6755C356.453 78.998 356.287 78.302 355.869 77.755C355.453 77.2068 354.826 76.8617 354.14 76.8017L332.253 74.8868C330.955 74.7733 329.797 75.697 329.621 76.9898L315.822 178.704C315.731 179.368 315.916 180.033 316.334 180.558C316.754 181.081 317.36 181.406 318.028 181.465L335.051 182.954C336.306 183.064 337.438 182.202 337.665 180.964L335.264 180.523Z" fill="#0E0E0E"/>
<path d="M352.287 182.013L335.264 180.523L353.927 79.2343L373.384 80.9365L352.287 182.013Z" fill="#FFD578"/>
<path d="M352.287 182.013L352.5 179.58L338.151 178.325L355.927 81.8591L370.431 83.1281L349.898 181.512L352.287 182.013L352.5 179.58L352.287 182.013L354.677 182.512L375.773 81.4346C375.916 80.7502 375.759 80.0396 375.342 79.4802C374.927 78.9208 374.291 78.5651 373.596 78.5043L354.14 76.8021C352.886 76.6924 351.755 77.5512 351.527 78.7904L332.863 180.079C332.738 180.757 332.904 181.453 333.322 182.001C333.739 182.549 334.365 182.894 335.051 182.954L352.074 184.444C353.307 184.552 354.424 183.721 354.677 182.512L352.287 182.013Z" fill="#0E0E0E"/>
<path d="M286.625 176.268L269.602 174.778L266.379 71.5747L285.834 73.2768L286.625 176.268Z" fill="#FFD578"/>
<path d="M286.625 176.268L286.838 173.835L271.975 172.535L268.905 74.2455L283.41 75.5145L284.185 176.286L286.625 176.268L286.838 173.835L286.625 176.268L289.067 176.247L288.276 73.2564C288.266 71.9963 287.302 70.9543 286.047 70.8445L266.592 69.1424C265.897 69.0817 265.209 69.3201 264.702 69.8001C264.196 70.2789 263.918 70.9515 263.94 71.6503L267.163 174.855C267.202 176.091 268.157 177.102 269.39 177.21L286.412 178.699C287.098 178.759 287.776 178.528 288.281 178.06C288.788 177.593 289.072 176.936 289.067 176.247L286.625 176.268Z" fill="#0E0E0E"/>
<path d="M303.649 177.757L286.625 176.268L285.834 73.2769L307.722 75.1918L303.649 177.757Z" fill="#FF927D"/>
<path d="M303.649 177.757L303.862 175.325L289.049 174.029L288.296 75.9393L305.19 77.4173L301.21 177.659L303.649 177.757L303.862 175.325L303.649 177.757L306.088 177.853L310.161 75.2876C310.211 73.9838 309.233 72.8732 307.935 72.7596L286.047 70.8446C285.361 70.7846 284.685 71.0157 284.178 71.4832C283.673 71.9494 283.387 72.6059 283.393 73.2948L284.185 176.286C284.194 177.544 285.159 178.589 286.412 178.699L303.437 180.188C304.105 180.247 304.759 180.032 305.263 179.59C305.766 179.146 306.062 178.522 306.089 177.853L303.649 177.757Z" fill="#0E0E0E"/>
<path d="M257.289 63.4277L383.749 74.4916L383.111 81.7875L256.651 70.7236L257.289 63.4277Z" fill="#FFD578"/>
<path d="M383.111 81.7876L383.323 79.3551L259.296 68.5041L259.509 66.0703L381.104 76.7085L380.678 81.5747L383.111 81.7876L383.323 79.3551L383.111 81.7876L385.543 82.0004L386.181 74.7045C386.237 74.063 386.032 73.414 385.619 72.9208C385.205 72.4288 384.602 72.1152 383.962 72.0592L257.502 60.9954C256.861 60.9394 256.213 61.1434 255.721 61.5561C255.227 61.9701 254.914 62.5736 254.858 63.2151L254.219 70.511C254.163 71.1595 254.363 71.7926 254.782 72.2919C255.201 72.7913 255.789 73.0967 256.438 73.1534L382.898 84.2172C383.548 84.2741 384.179 84.0755 384.68 83.6566C385.18 83.2376 385.486 82.6488 385.543 82.0004L383.111 81.7876Z" fill="#0E0E0E"/>
<path d="M347.028 130.092C345.5 147.552 330.107 160.468 312.647 158.941C295.186 157.413 282.271 142.02 283.799 124.56C285.326 107.099 300.718 94.1836 318.179 95.7112C335.639 97.2388 348.556 112.631 347.028 130.092Z" fill="#FFF35F"/>
<path d="M347.028 130.092L349.459 130.304C351.103 111.499 337.196 94.9251 318.392 93.2785C299.587 91.6347 283.013 105.542 281.366 124.347C279.723 143.15 293.629 159.725 312.435 161.371C331.239 163.015 347.813 149.107 349.459 130.304L344.596 129.879C343.889 137.944 339.991 144.938 334.243 149.765C328.492 154.587 320.926 157.211 312.86 156.508C304.794 155.799 297.798 151.902 292.973 146.154C288.15 140.403 285.526 132.837 286.23 124.772C286.937 116.706 290.836 109.71 296.583 104.885C302.334 100.062 309.9 97.4376 317.967 98.1406C326.032 98.849 333.027 102.746 337.854 108.496C342.677 114.246 345.3 121.812 344.596 129.879L347.028 130.092Z" fill="black"/>
<path d="M306.217 120.395C306.041 122.408 304.266 123.899 302.251 123.723C300.236 123.547 298.745 121.77 298.921 119.757C299.097 117.742 300.874 116.251 302.889 116.427C304.904 116.603 306.393 118.38 306.217 120.395Z" fill="black"/>
<path d="M332.968 122.735C332.792 124.749 331.015 126.24 329.002 126.063C326.987 125.887 325.496 124.11 325.672 122.097C325.849 120.082 327.625 118.591 329.64 118.767C331.654 118.944 333.144 120.72 332.968 122.735Z" fill="black"/>
<path d="M286.168 41.4482L361.558 48.044L359.43 72.3642L284.04 65.7684L286.168 41.4482Z" fill="white"/>
<path d="M361.558 48.0437L361.771 45.6127L286.381 39.0169C285.74 38.9609 285.092 39.1649 284.6 39.5776C284.106 39.9916 283.793 40.5937 283.737 41.2352L281.609 65.5554C281.552 66.2039 281.751 66.8368 282.171 67.3363C282.59 67.8371 283.179 68.141 283.828 68.1977L359.218 74.7935C359.866 74.8502 360.499 74.6532 360.998 74.2328C361.499 73.8139 361.804 73.225 361.861 72.5765L363.989 48.2564C364.045 47.6149 363.841 46.9674 363.427 46.4741C363.014 45.9823 362.411 45.6687 361.771 45.6127L361.558 48.0437L359.125 47.8309L357.211 69.7172L286.685 63.5471L288.388 44.0904L361.345 50.4747L361.558 48.0437L359.125 47.8309L361.558 48.0437Z" fill="#0E0E0E"/>
<path d="M355.847 62.0302C355.531 62.8565 355.284 63.7183 355.204 64.6423C354.734 70.0137 358.708 74.7503 364.081 75.2204C369.454 75.6904 374.19 71.7159 374.66 66.3445C375.07 61.6661 372.105 57.475 367.785 56.1575C368.1 55.3312 368.347 54.4694 368.428 53.5468C368.898 48.1741 364.924 43.4374 359.551 42.9674C358.692 42.8923 357.863 42.9683 357.053 43.1064L357.118 42.7546C357.588 37.3832 353.614 32.6466 348.243 32.1766C344.385 31.8392 340.885 33.8129 339.028 36.9288C337.993 36.4316 336.868 36.0822 335.658 35.9763C331.8 35.6388 328.3 37.6126 326.443 40.7285C325.408 40.2313 324.283 39.8819 323.073 39.776C320.759 39.5735 318.588 40.2305 316.801 41.4344C315.25 39.9385 313.226 38.9145 310.913 38.7122C307.915 38.4498 305.145 39.6041 303.173 41.5812C302.927 36.7936 299.227 32.789 294.315 32.3593C288.943 31.8893 284.207 35.8638 283.737 41.2352C283.631 42.4472 283.778 43.6156 284.089 44.7197C281.429 45.7307 279.312 47.8619 278.352 50.6005L278.021 50.5379C272.649 50.068 267.913 54.0425 267.443 59.4139C266.973 64.7867 270.947 69.5233 276.319 69.9932C280.859 70.3905 284.915 67.5987 286.354 63.4858L286.685 63.5484" fill="white"/>
<path d="M353.566 61.1592C353.202 62.1173 352.88 63.2053 352.773 64.4298C352.186 71.1456 357.151 77.0626 363.868 77.6516C370.585 78.2379 376.502 73.273 377.091 66.5574C377.599 60.7056 373.903 55.4689 368.497 53.8223L367.785 56.1578L370.066 57.0276C370.431 56.071 370.752 54.9815 370.859 53.7598C371.446 47.0412 366.479 41.1241 359.764 40.5366C358.625 40.437 357.576 40.5401 356.641 40.7008L357.051 43.1065L359.45 43.5603L359.517 43.2086L359.551 42.9676C360.136 36.2503 355.171 30.3334 348.455 29.7444C343.624 29.3231 339.236 31.7997 336.93 35.6784L339.027 36.9289L340.084 34.7274C338.832 34.1257 337.417 33.678 335.869 33.544C331.039 33.1228 326.651 35.5994 324.346 39.4781L326.442 40.7286L327.499 38.5285C326.247 37.9253 324.832 37.479 323.284 37.345C320.375 37.0877 317.636 37.9249 315.438 39.4069L316.802 41.4346L318.495 39.6758C316.588 37.8333 314.036 36.5331 311.126 36.2813C307.364 35.9494 303.878 37.4097 301.445 39.8597L303.173 41.5828L305.612 41.4554C305.309 35.4793 300.678 30.4693 294.527 29.9284C287.812 29.3423 281.893 34.3057 281.304 41.024C281.169 42.5686 281.361 44.0423 281.74 45.3824L284.089 44.7213L283.224 42.4385C279.901 43.7 277.25 46.3665 276.049 49.7921L278.353 50.6009L278.806 48.202L278.475 48.1394L278.234 48.1057C271.518 47.5196 265.601 52.4845 265.01 59.2013C264.426 65.9185 269.391 71.8355 276.106 72.4245C281.792 72.9177 286.865 69.4256 288.659 64.292L286.354 63.486L285.902 65.8849L286.232 65.9474C287.556 66.1978 288.832 65.3266 289.083 64.0024C289.333 62.6782 288.462 61.4017 287.138 61.1512L286.807 61.0886C285.619 60.8627 284.449 61.5386 284.05 62.68C282.963 65.7694 279.927 67.8622 276.531 67.5624C272.504 67.2016 269.529 63.6545 269.874 59.6282C270.233 55.6002 273.779 52.6251 277.808 52.9692L278.021 50.5381L277.568 52.937L277.898 52.9995C279.086 53.2226 280.255 52.5481 280.655 51.408C281.373 49.3591 282.958 47.7619 284.956 47.0027C286.139 46.5524 286.782 45.2766 286.439 44.0575C286.194 43.1905 286.091 42.3262 286.166 41.4494C286.527 37.4216 290.073 34.4464 294.101 34.7904C297.773 35.1075 300.545 38.1081 300.735 41.7074C300.784 42.6708 301.399 43.5168 302.299 43.8606C303.2 44.2072 304.221 43.988 304.902 43.3044C306.412 41.7988 308.464 40.9506 310.699 41.1447C312.415 41.2976 313.91 42.0454 315.105 43.1932C315.933 43.9905 317.209 44.1022 318.163 43.4607C319.539 42.5378 321.141 42.061 322.859 42.2085C323.734 42.2865 324.567 42.5389 325.383 42.9299C326.525 43.4786 327.889 43.0665 328.538 41.979C329.948 39.6261 332.56 38.1552 335.444 38.4088C336.319 38.4854 337.152 38.7378 337.968 39.1302C339.11 39.6789 340.474 39.2668 341.122 38.1792C342.532 35.8263 345.145 34.3541 348.027 34.6077C352.055 34.9685 355.03 38.5155 354.685 42.5433L357.117 42.7561L354.718 42.3008L354.651 42.6525C354.503 43.4388 354.747 44.2482 355.309 44.8189C355.869 45.3896 356.673 45.6479 357.461 45.5134C358.145 45.3952 358.757 45.3492 359.335 45.3998C363.363 45.7606 366.338 49.3063 365.993 53.3354C365.938 53.9574 365.768 54.5931 365.502 55.2892C365.259 55.9228 365.292 56.6225 365.59 57.232C365.889 57.8428 366.421 58.2946 367.071 58.4945C370.304 59.4799 372.537 62.6269 372.226 66.1332C371.866 70.1582 368.32 73.1334 364.292 72.7908C360.265 72.4286 357.289 68.883 357.635 64.8566C357.689 64.2318 357.86 63.5961 358.125 62.9C358.606 61.6408 357.975 60.2297 356.714 59.7506C355.455 59.2688 354.044 59.9025 353.563 61.1618L353.566 61.1592Z" fill="#0E0E0E"/>
<path d="M322.071 135.26C322.541 129.887 319.655 125.246 315.626 124.893C311.596 124.541 307.949 128.61 307.479 133.983C307.009 139.355 309.894 143.996 313.924 144.348C317.952 144.701 321.601 140.631 322.071 135.26Z" fill="#0E0E0E"/>
<path d="M343.17 50.6782C344.205 51.1768 345.33 51.5262 346.54 51.6321C347.399 51.7072 348.229 51.6312 349.039 51.4917" fill="#FFF35F"/>
<path d="M342.11 52.8765C343.365 53.4827 344.782 53.9278 346.328 54.0616C347.466 54.1612 348.514 54.058 349.451 53.8974C350.779 53.6687 351.672 52.4077 351.445 51.0809C351.217 49.7514 349.956 48.8586 348.628 49.0873C347.944 49.2027 347.332 49.2502 346.753 49.1996C345.877 49.1215 345.043 48.8705 344.231 48.4783C343.016 47.8924 341.556 48.4027 340.97 49.6177C340.386 50.8327 340.896 52.2922 342.11 52.8779L342.11 52.8765Z" fill="#0E0E0E"/>
<path d="M297.778 53.4699C299.417 52.8463 300.874 51.8814 302.081 50.6676L300.353 48.9459L297.913 49.0704C298.216 55.0478 302.848 60.0579 308.999 60.5988C311.908 60.8562 314.647 60.0189 316.845 58.5356C317.964 57.7823 318.261 56.2659 317.507 55.1469C316.754 54.028 315.237 53.7326 314.119 54.4845C312.742 55.4059 311.14 55.8841 309.424 55.7367C305.751 55.4182 302.979 52.419 302.79 48.8184C302.739 47.8548 302.126 47.0104 301.225 46.6651C300.324 46.3199 299.304 46.5377 298.622 47.2212C297.881 47.9654 297.013 48.536 296.043 48.9054C294.783 49.384 294.149 50.7939 294.627 52.0557C295.108 53.3148 296.517 53.9485 297.778 53.4699Z" fill="#0E0E0E"/>
<path d="M294.194 61.7544C293.724 67.1272 297.699 71.8638 303.07 72.3337C308.443 72.8038 313.179 68.8293 313.649 63.4565" fill="white"/>
<path d="M291.762 61.5414C291.177 68.2587 296.142 74.1756 302.857 74.7646C309.574 75.3509 315.491 70.3859 316.08 63.669C316.198 62.3248 315.205 61.1428 313.862 61.0253C312.519 60.9078 311.335 61.8993 311.217 63.2435C310.858 67.2701 307.312 70.2452 303.283 69.9011C299.256 69.5404 296.281 65.9948 296.625 61.9669C296.743 60.6227 295.75 59.4406 294.407 59.3232C293.064 59.2057 291.879 60.1972 291.762 61.5414Z" fill="#0E0E0E"/>
</g>
<path d="M187.085 133.738L185.527 134.569L184.836 136.194C179.418 148.942 170.95 160.614 159.531 170.047C121.551 201.419 65.3974 196.012 34.1019 157.97C2.80143 119.921 8.22091 63.6368 46.2062 32.2598C84.1854 0.88779 140.339 6.29472 171.635 44.337C180.931 55.6366 186.982 68.5321 189.91 81.9042L190.285 83.6187L191.65 84.7224L226.355 112.791L187.085 133.738Z" fill="white" stroke="black" stroke-width="10"/>
<path d="M113.548 51.2334L113.053 60.6705L99.971 59.9849L100.466 50.5478L113.548 51.2334ZM116.381 64.0492L117.208 48.2709L97.1852 47.2216L96.1698 66.595L99.6151 66.7755L99.8035 63.1805L116.381 64.0492ZM120.296 39.9712L95.1308 38.6523L94.9607 41.8978L120.126 43.2167L120.296 39.9712ZM128.593 31.644L87.6497 29.4982L85.3887 72.639L88.9838 72.8274L91.0589 33.2318L124.763 34.9981L122.939 69.8003C122.897 70.5992 122.582 70.8831 121.68 70.886C120.829 70.8914 117.933 70.7396 114.792 70.4749C115.339 71.5049 115.855 73.1342 115.949 74.1906C120.244 74.4156 122.745 74.4466 124.325 73.9285C125.857 73.3579 126.463 72.2882 126.584 69.9914L128.593 31.644ZM89.6395 102.352L98.6771 102.826L98.4154 107.819L89.3778 107.345L89.6395 102.352ZM99.4778 87.5468L99.2476 91.9408L90.21 91.4671L90.4402 87.0732L99.4778 87.5468ZM90.053 94.463L99.0906 94.9367L98.8341 99.83L89.7965 99.3563L90.053 94.463ZM105.506 108.191L101.861 108L102.923 87.7274L106.568 87.9184L106.743 84.573L103.098 84.382L103.412 78.3902L99.9672 78.2096L99.6532 84.2014L90.6156 83.7278L90.9296 77.736L87.5342 77.558L87.2202 83.5498L83.026 83.33L82.8507 86.6754L87.0449 86.8952L85.9825 107.167L81.1391 106.914L80.9638 110.259L105.33 111.536L105.506 108.191ZM87.7994 111.669C86.1287 114.886 83.357 118.095 80.493 120.198C81.3656 120.744 82.7087 121.866 83.3764 122.502C86.2508 120.199 89.2958 116.554 91.2948 112.803L87.7994 111.669ZM94.8085 113.588C96.6828 116.04 98.7596 119.403 99.5537 121.447L102.641 119.857C101.8 117.76 99.6652 114.544 97.7857 112.192L94.8085 113.588ZM111.596 103.753C111.735 102.058 111.874 100.363 111.955 98.8153L112.131 95.4699L122.317 96.0037L121.882 104.292L111.596 103.753ZM122.908 84.7192L122.492 92.6583L112.306 92.1245L112.722 84.1853L122.908 84.7192ZM126.681 81.5122L109.405 80.6068L108.46 98.6321C108.086 105.772 107.189 115.238 102.699 121.612C103.533 121.956 104.97 123.183 105.533 123.914C108.78 119.277 110.361 113.001 111.171 107.086L121.707 107.638L121.079 119.621C121.037 120.42 120.724 120.654 119.975 120.615C119.274 120.628 116.777 120.497 114.133 120.309C114.533 121.281 114.998 122.908 115.093 123.964C118.788 124.158 121.09 124.178 122.57 123.655C123.949 123.126 124.556 122.057 124.671 119.86L126.681 81.5122ZM114.459 164.737L114.205 169.58L90.7869 168.353L91.0407 163.509L114.459 164.737ZM111.964 151.188L111.742 155.432L91.5196 154.372L91.742 150.128L111.964 151.188ZM91.3704 157.218L115.238 158.469L115.758 148.532L88.396 147.098L87.0509 172.763L90.5461 172.946L90.6351 171.249L114.053 172.476L113.969 174.074L117.614 174.265L118.255 162.032L91.1925 160.613L91.3704 157.218ZM125.444 132.818L108.517 131.931C109.169 130.964 109.726 129.891 110.23 128.866L106.729 127.832C105.6 130.276 103.929 132.541 101.974 134.492L102.126 131.596L89.0441 130.91C89.6457 129.94 90.1999 128.918 90.6543 127.89L87.2562 126.811C85.5541 130.627 82.6537 134.38 79.5217 136.82C80.397 137.316 81.7926 138.391 82.4629 138.977C83.9868 137.605 85.5789 135.886 87.0344 133.909L89.1814 134.022C90.0385 135.819 90.9325 137.869 91.2613 139.238L94.6091 138.412C94.3172 137.295 93.6493 135.708 92.8764 134.215L101.764 134.681C100.761 135.68 99.6648 136.524 98.5245 137.265C99.0606 137.543 99.836 138.035 100.511 138.521L100.347 141.666L81.5225 140.68L81.0331 150.017L84.5283 150.2L84.8633 143.809L119.566 145.628L119.231 152.019L122.826 152.207L123.315 142.87L103.892 141.852L104.096 137.958L103.347 137.918C104.345 137.019 105.349 136.021 106.308 134.919L110.302 135.129C111.609 136.949 112.9 139.07 113.373 140.547L116.829 139.576C116.34 138.399 115.372 136.796 114.347 135.34L125.282 135.914L125.444 132.818Z" fill="black"/>
<defs>
<clipPath id="clip0">
<rect x="247.404" y="20.9033" width="153.795" height="153.795" transform="rotate(5 247.404 20.9033)" fill="white"/>
</clipPath>
</defs>
</svg>
