<svg width="401" height="210" viewBox="0 0 401 210" fill="none" xmlns="http://www.w3.org/2000/svg">
<g clip-path="url(#clip0)">
<path d="M318.241 180.762L303.649 179.486L307.722 76.9204L332.041 79.048L318.241 180.762Z" fill="#FFD578"/>
<path d="M318.241 180.762L318.454 178.33L306.18 177.256L310.059 79.5715L329.277 81.253L315.822 180.433L318.241 180.762L318.454 178.33L318.241 180.762L320.659 181.089L334.459 79.3744C334.549 78.7093 334.366 78.0454 333.946 77.5222C333.528 76.9976 332.921 76.6739 332.252 76.6153L307.933 74.4877C307.265 74.4293 306.611 74.6427 306.107 75.0865C305.604 75.5291 305.308 76.1524 305.281 76.8217L301.21 179.387C301.157 180.689 302.137 181.803 303.435 181.917L318.027 183.193C319.325 183.307 320.483 182.38 320.658 181.089L318.241 180.762Z" fill="#0E0E0E"/>
<path d="M335.264 182.252L318.241 180.762L332.041 79.0481L353.927 80.9629L335.264 182.252Z" fill="#FF927D"/>
<path d="M335.264 182.252L335.477 179.819L321.003 178.553L334.147 81.6789L351.041 83.157L332.863 181.807L335.264 182.252L335.477 179.819L335.264 182.252L337.665 182.693L356.328 81.404C356.453 80.7265 356.287 80.0305 355.869 79.4836C355.453 78.9353 354.826 78.5902 354.14 78.5302L332.253 76.6154C330.955 76.5018 329.797 77.4255 329.621 78.7183L315.822 180.433C315.731 181.096 315.916 181.762 316.334 182.286C316.754 182.81 317.36 183.135 318.028 183.193L335.051 184.683C336.306 184.792 337.438 183.931 337.665 182.693L335.264 182.252Z" fill="#0E0E0E"/>
<path d="M352.287 183.741L335.264 182.252L353.927 80.9628L373.384 82.6651L352.287 183.741Z" fill="#FFD578"/>
<path d="M352.287 183.741L352.5 181.309L338.151 180.053L355.927 83.5876L370.431 84.8566L349.898 183.241L352.287 183.741L352.5 181.309L352.287 183.741L354.677 184.241L375.773 83.1632C375.916 82.4787 375.759 81.7681 375.342 81.2087C374.927 80.6493 374.291 80.2936 373.596 80.2328L354.14 78.5306C352.886 78.4209 351.755 79.2797 351.527 80.5189L332.863 181.808C332.738 182.485 332.904 183.181 333.322 183.73C333.739 184.278 334.365 184.623 335.051 184.683L352.074 186.172C353.307 186.28 354.424 185.45 354.677 184.241L352.287 183.741Z" fill="#0E0E0E"/>
<path d="M286.625 177.996L269.602 176.507L266.379 73.3032L285.834 75.0053L286.625 177.996Z" fill="#FFD578"/>
<path d="M286.625 177.996L286.838 175.564L271.975 174.264L268.905 75.974L283.41 77.2431L284.185 178.014L286.625 177.996L286.838 175.564L286.625 177.996L289.067 177.976L288.276 74.9849C288.266 73.7248 287.302 72.6829 286.047 72.573L266.592 70.8709C265.897 70.8102 265.209 71.0486 264.702 71.5286C264.196 72.0074 263.918 72.68 263.94 73.3788L267.163 176.584C267.202 177.82 268.157 178.83 269.39 178.938L286.412 180.427C287.098 180.487 287.776 180.256 288.281 179.789C288.788 179.321 289.072 178.665 289.067 177.976L286.625 177.996Z" fill="#0E0E0E"/>
<path d="M303.649 179.486L286.625 177.996L285.834 75.0054L307.722 76.9203L303.649 179.486Z" fill="#FF927D"/>
<path d="M303.649 179.486L303.862 177.053L289.049 175.757L288.296 77.6678L305.19 79.1458L301.21 179.387L303.649 179.486L303.862 177.053L303.649 179.486L306.088 179.581L310.161 77.0161C310.211 75.7123 309.233 74.6017 307.935 74.4881L286.047 72.5732C285.361 72.5131 284.685 72.7442 284.178 73.2117C283.673 73.6779 283.387 74.3344 283.393 75.0234L284.185 178.014C284.194 179.273 285.159 180.318 286.412 180.428L303.437 181.917C304.105 181.975 304.759 181.761 305.263 181.318C305.766 180.874 306.062 180.251 306.089 179.582L303.649 179.486Z" fill="#0E0E0E"/>
<path d="M257.289 65.1562L383.749 76.2201L383.111 83.516L256.651 72.4522L257.289 65.1562Z" fill="#FFD578"/>
<path d="M383.111 83.5161L383.323 81.0836L259.296 70.2326L259.509 67.7988L381.104 78.437L380.678 83.3033L383.111 83.5161L383.323 81.0836L383.111 83.5161L385.543 83.7289L386.181 76.433C386.237 75.7915 386.032 75.1425 385.619 74.6493C385.205 74.1574 384.602 73.8437 383.962 73.7877L257.502 62.7239C256.861 62.6679 256.213 62.872 255.721 63.2846C255.227 63.6986 254.914 64.3022 254.858 64.9437L254.219 72.2396C254.163 72.888 254.363 73.5211 254.782 74.0205C255.201 74.5198 255.789 74.8252 256.438 74.8819L382.898 85.9457C383.548 86.0026 384.179 85.804 384.68 85.3851C385.18 84.9661 385.486 84.3773 385.543 83.7289L383.111 83.5161Z" fill="#0E0E0E"/>
<path d="M347.028 131.82C345.5 149.28 330.107 162.197 312.647 160.669C295.186 159.141 282.271 143.748 283.799 126.288C285.326 108.827 300.718 95.9121 318.179 97.4398C335.639 98.9673 348.556 114.359 347.028 131.82V131.82Z" fill="#FFF35F"/>
<path d="M347.028 131.82L349.459 132.033C351.103 113.227 337.196 96.6536 318.392 95.0071C299.587 93.3632 283.013 107.27 281.366 126.075C279.723 144.878 293.629 161.453 312.435 163.1C331.239 164.744 347.813 150.835 349.459 132.033L344.596 131.607C343.889 139.673 339.991 146.667 334.243 151.493C328.492 156.316 320.926 158.939 312.86 158.236C304.794 157.528 297.798 153.63 292.973 147.883C288.15 142.131 285.526 134.565 286.23 126.501C286.937 118.434 290.836 111.439 296.583 106.613C302.334 101.791 309.9 99.1662 317.967 99.8691C326.032 100.578 333.027 104.475 337.854 110.224C342.677 115.974 345.3 123.54 344.596 131.607L347.028 131.82Z" fill="black"/>
<path d="M306.217 122.123C306.041 124.137 304.266 125.628 302.251 125.452C300.236 125.275 298.745 123.499 298.921 121.485C299.097 119.47 300.874 117.979 302.889 118.156C304.904 118.332 306.393 120.108 306.217 122.123Z" fill="black"/>
<path d="M332.968 124.464C332.792 126.477 331.015 127.968 329.002 127.792C326.987 127.616 325.496 125.839 325.672 123.825C325.849 121.81 327.625 120.32 329.64 120.496C331.654 120.672 333.144 122.449 332.968 124.464Z" fill="black"/>
<path d="M286.168 43.1768L361.558 49.7725L359.43 74.0927L284.04 67.4969L286.168 43.1768Z" fill="white"/>
<path d="M361.558 49.7722L361.771 47.3412L286.381 40.7454C285.74 40.6894 285.092 40.8934 284.6 41.3061C284.106 41.7201 283.793 42.3223 283.737 42.9638L281.609 67.2839C281.552 67.9324 281.751 68.5653 282.171 69.0648C282.59 69.5656 283.179 69.8695 283.828 69.9262L359.218 76.522C359.866 76.5788 360.499 76.3817 360.998 75.9613C361.499 75.5424 361.804 74.9535 361.861 74.3051L363.989 49.9849C364.045 49.3434 363.841 48.696 363.427 48.2026C363.014 47.7108 362.411 47.3972 361.771 47.3412L361.558 49.7722L359.125 49.5594L357.211 71.4457L286.685 65.2756L288.388 45.8189L361.345 52.2033L361.558 49.7722L359.125 49.5594L361.558 49.7722Z" fill="#0E0E0E"/>
<path d="M355.847 63.7587C355.531 64.585 355.284 65.4468 355.204 66.3708C354.734 71.7422 358.708 76.4788 364.081 76.9489C369.454 77.4189 374.19 73.4444 374.66 68.0731C375.07 63.3947 372.105 59.2035 367.785 57.8861C368.1 57.0597 368.347 56.198 368.428 55.2754C368.898 49.9026 364.924 45.166 359.551 44.6959C358.692 44.6208 357.863 44.6968 357.053 44.8349L357.118 44.4831C357.588 39.1117 353.614 34.3751 348.243 33.9051C344.385 33.5677 340.885 35.5414 339.028 38.6573C337.993 38.1601 336.868 37.8107 335.658 37.7048C331.8 37.3673 328.3 39.3411 326.443 42.457C325.408 41.9598 324.283 41.6104 323.073 41.5045C320.759 41.302 318.588 41.959 316.801 43.1629C315.25 41.667 313.226 40.643 310.913 40.4407C307.915 40.1783 305.145 41.3326 303.173 43.3097C302.927 38.5221 299.227 34.5175 294.315 34.0878C288.943 33.6178 284.207 37.5923 283.737 42.9637C283.631 44.1758 283.778 45.3441 284.089 46.4482C281.429 47.4592 279.312 49.5904 278.352 52.3291L278.021 52.2664C272.649 51.7965 267.913 55.771 267.443 61.1424C266.973 66.5152 270.947 71.2518 276.319 71.7217C280.859 72.119 284.915 69.3272 286.354 65.2143L286.685 65.2769" fill="white"/>
<path d="M353.566 62.8877C353.202 63.8458 352.88 64.9338 352.773 66.1583C352.186 72.8741 357.151 78.7911 363.868 79.3801C370.585 79.9664 376.502 75.0015 377.091 68.286C377.599 62.4341 373.903 57.1974 368.497 55.5508L367.785 57.8863L370.066 58.7561C370.431 57.7995 370.752 56.7101 370.859 55.4883C371.446 48.7697 366.479 42.8526 359.764 42.2651C358.625 42.1655 357.576 42.2686 356.641 42.4293L357.051 44.835L359.45 45.2888L359.517 44.9372L359.551 44.6961C360.136 37.9789 355.171 32.0619 348.455 31.4729C343.624 31.0516 339.236 33.5282 336.93 37.4069L339.027 38.6574L340.084 36.4559C338.832 35.8542 337.417 35.4065 335.869 35.2725C331.039 34.8513 326.651 37.3279 324.346 41.2066L326.442 42.4571L327.499 40.257C326.247 39.6538 324.832 39.2075 323.284 39.0735C320.375 38.8162 317.636 39.6535 315.438 41.1354L316.802 43.1631L318.495 41.4043C316.588 39.5618 314.036 38.2616 311.126 38.0099C307.364 37.6779 303.878 39.1383 301.445 41.5882L303.173 43.3113L305.612 43.1839C305.309 37.2078 300.678 32.1978 294.527 31.657C287.812 31.0708 281.893 36.0342 281.304 42.7525C281.169 44.2971 281.361 45.7708 281.74 47.1109L284.089 46.4498L283.224 44.167C279.901 45.4285 277.25 48.095 276.049 51.5206L278.353 52.3294L278.806 49.9306L278.475 49.8679L278.234 49.8342C271.518 49.2481 265.601 54.213 265.01 60.9298C264.426 67.6471 269.391 73.5641 276.106 74.153C281.792 74.6463 286.865 71.1541 288.659 66.0205L286.354 65.2145L285.902 67.6134L286.232 67.6759C287.556 67.9264 288.832 67.0551 289.083 65.7309C289.333 64.4067 288.462 63.1302 287.138 62.8797L286.807 62.8171C285.619 62.5912 284.449 63.2671 284.05 64.4086C282.963 67.4979 279.927 69.5907 276.531 69.2909C272.504 68.9301 269.529 65.3831 269.874 61.3567C270.233 57.3288 273.779 54.3536 277.808 54.6977L278.021 52.2667L277.568 54.6655L277.898 54.728C279.086 54.9511 280.255 54.2766 280.655 53.1365C281.373 51.0876 282.958 49.4904 284.956 48.7313C286.139 48.2809 286.782 47.0051 286.439 45.786C286.194 44.919 286.091 44.0547 286.166 43.1779C286.527 39.1501 290.073 36.1749 294.101 36.5189C297.773 36.836 300.545 39.8367 300.735 43.4359C300.784 44.3993 301.399 45.2453 302.299 45.5891C303.2 45.9358 304.221 45.7165 304.902 45.033C306.412 43.5273 308.464 42.6791 310.699 42.8732C312.415 43.0261 313.91 43.7739 315.105 44.9217C315.933 45.719 317.209 45.8307 318.163 45.1892C319.539 44.2663 321.141 43.7896 322.859 43.937C323.734 44.015 324.567 44.2674 325.383 44.6584C326.525 45.2071 327.889 44.795 328.538 43.7076C329.948 41.3547 332.56 39.8837 335.444 40.1373C336.319 40.2139 337.152 40.4663 337.968 40.8588C339.11 41.4074 340.474 40.9953 341.122 39.9078C342.532 37.5549 345.145 36.0826 348.027 36.3362C352.055 36.697 355.03 40.244 354.685 44.2718L357.117 44.4846L354.718 44.0293L354.651 44.381C354.503 45.1673 354.747 45.9767 355.309 46.5475C355.869 47.1181 356.673 47.3764 357.461 47.2419C358.145 47.1238 358.757 47.0777 359.335 47.1283C363.363 47.4891 366.338 51.0348 365.993 55.0639C365.939 55.6859 365.768 56.3216 365.502 57.0177C365.259 57.6513 365.292 58.351 365.59 58.9605C365.889 59.5713 366.421 60.0231 367.071 60.223C370.304 61.2084 372.537 64.3554 372.226 67.8617C371.866 71.8868 368.32 74.8619 364.292 74.5193C360.265 74.1571 357.289 70.6115 357.635 66.5851C357.689 65.9603 357.86 65.3246 358.125 64.6285C358.606 63.3693 357.975 61.9582 356.714 61.4791C355.455 60.9974 354.044 61.6311 353.563 62.8903L353.566 62.8877Z" fill="#0E0E0E"/>
<path d="M322.071 136.988C322.541 131.616 319.655 126.974 315.626 126.622C311.596 126.269 307.949 130.339 307.479 135.712C307.009 141.083 309.894 145.724 313.924 146.077C317.952 146.429 321.601 142.36 322.071 136.988Z" fill="#0E0E0E"/>
<path d="M343.17 52.4067C344.205 52.9053 345.33 53.2547 346.54 53.3606C347.399 53.4357 348.229 53.3597 349.039 53.2202" fill="#FFF35F"/>
<path d="M342.11 54.6051C343.365 55.2113 344.782 55.6563 346.328 55.7902C347.466 55.8897 348.514 55.7865 349.451 55.6259C350.779 55.3972 351.672 54.1362 351.445 52.8094C351.217 51.4799 349.956 50.5871 348.628 50.8159C347.944 50.9312 347.332 50.9787 346.753 50.9281C345.877 50.85 345.043 50.599 344.231 50.2068C343.016 49.6209 341.556 50.1313 340.97 51.3462C340.386 52.5613 340.896 54.0207 342.11 54.6064L342.11 54.6051Z" fill="#0E0E0E"/>
<path d="M297.778 55.1984C299.417 54.5748 300.874 53.61 302.081 52.3961L300.353 50.6744L297.913 50.7989C298.216 56.7764 302.848 61.7864 308.999 62.3273C311.908 62.5847 314.647 61.7474 316.845 60.2641C317.964 59.5108 318.261 57.9944 317.507 56.8754C316.754 55.7565 315.237 55.4611 314.119 56.213C312.742 57.1344 311.14 57.6126 309.424 57.4653C305.751 57.1468 302.979 54.1475 302.79 50.5469C302.739 49.5834 302.126 48.7389 301.225 48.3936C300.324 48.0484 299.304 48.2662 298.622 48.9497C297.881 49.6939 297.013 50.2645 296.043 50.6339C294.783 51.1125 294.149 52.5224 294.627 53.7842C295.108 55.0433 296.517 55.677 297.778 55.1984Z" fill="#0E0E0E"/>
<path d="M294.194 63.4829C293.724 68.8557 297.699 73.5923 303.07 74.0622C308.443 74.5323 313.179 70.5578 313.649 65.185" fill="white"/>
<path d="M291.762 63.2699C291.177 69.9872 296.142 75.9042 302.857 76.4931C309.574 77.0794 315.491 72.1144 316.08 65.3975C316.198 64.0533 315.205 62.8713 313.862 62.7538C312.519 62.6363 311.335 63.6278 311.217 64.972C310.858 68.9986 307.312 71.9737 303.283 71.6296C299.256 71.2689 296.281 67.7233 296.625 63.6954C296.743 62.3512 295.75 61.1692 294.407 61.0517C293.064 60.9342 291.879 61.9257 291.762 63.2699Z" fill="#0E0E0E"/>
</g>
<path d="M187.085 135.467L185.527 136.298L184.836 137.922C179.418 150.671 170.95 162.343 159.531 171.775C121.551 203.148 65.3974 197.741 34.1019 159.698C2.80143 121.65 8.22092 65.3654 46.2062 33.9883C84.1854 2.6163 140.339 8.02323 171.635 46.0655C180.931 57.3651 186.982 70.2607 189.91 83.6327L190.285 85.3472L191.65 86.4509L226.355 114.519L187.085 135.467Z" fill="white" stroke="black" stroke-width="10"/>
<path d="M74.9366 73.6974L75.3575 73.3705C75.89 73.0317 76.2682 72.8584 76.492 72.8506C76.9877 72.8333 77.539 73.2623 78.146 74.1377C78.5173 74.6851 78.7088 75.1266 78.7205 75.4624C78.7323 75.7982 78.6301 76.082 78.4141 76.3136C78.214 76.5448 77.9731 76.7533 77.6915 76.9392C77.4098 77.1252 77.1358 77.3029 76.8695 77.4723C76.6193 77.6411 76.0909 77.8677 75.2843 78.152C74.4777 78.4363 73.6907 78.5919 72.9232 78.6187C72.1716 78.6449 71.4007 78.5758 70.6105 78.4113C69.8357 78.2302 69.0245 77.9223 68.1768 77.4876C67.3445 77.0364 66.5889 76.4864 65.9098 75.8377C65.2302 75.1731 64.6561 74.3206 64.1875 73.2803C63.7344 72.2235 63.486 71.0714 63.4425 69.8242C63.3989 68.577 63.5674 67.4424 63.948 66.4205C64.328 65.3826 64.8263 64.5247 65.4431 63.8467C66.0752 63.1522 66.7992 62.5666 67.6151 62.0899C69.152 61.1717 70.7119 60.6849 72.295 60.6296C73.0465 60.6034 73.8102 60.6968 74.5861 60.9099C75.3775 61.1064 75.9772 61.3176 76.3853 61.5434L76.9727 61.8591C77.2667 62.025 77.4956 62.1611 77.6594 62.2674C78.0869 62.5887 78.3081 62.9652 78.3232 63.3969C78.3377 63.8127 78.1852 64.2583 77.8656 64.7337C77.2721 65.619 76.7275 66.0703 76.2318 66.0876C75.944 66.0976 75.5301 65.936 74.9902 65.6026C74.2996 65.0824 73.3946 64.8418 72.2753 64.8809C71.236 64.9172 70.2251 65.3127 69.2429 66.0675C68.7755 66.436 68.393 66.9457 68.0955 67.5964C67.7981 68.2472 67.6636 68.9804 67.6921 69.7959C67.72 70.5954 67.905 71.3094 68.2471 71.9378C68.5893 72.5662 69.0146 73.0557 69.5232 73.4062C70.5231 74.0757 71.5508 74.392 72.6062 74.3551C73.1019 74.3378 73.5633 74.2577 73.9906 74.1147C74.4339 73.9711 74.7492 73.832 74.9366 73.6974Z" fill="black"/>
<path d="M88.5417 65.3215C88.8488 65.4068 89.1025 65.5661 89.3028 65.7992C89.5185 66.0158 89.6353 66.38 89.6531 66.8917C89.671 67.4034 89.5386 67.9683 89.2561 68.5866C88.9735 69.2048 88.5443 69.524 87.9687 69.5441C87.6809 69.5541 87.3988 69.4999 87.1225 69.3815C86.8622 69.2625 86.5162 69.2106 86.0844 69.2256C85.6527 69.2407 85.2502 69.4069 84.8771 69.7241C84.5199 70.0407 84.3489 70.4149 84.3639 70.8467L84.5398 75.8836C84.5527 76.2514 84.5465 76.5318 84.5212 76.7248C84.5113 76.9012 84.4466 77.1116 84.3271 77.3559C84.1018 77.78 83.4854 78.0097 82.478 78.0449C81.7105 78.0717 81.1541 77.955 80.8088 77.6949C80.5451 77.48 80.3892 77.1412 80.341 76.6786C80.3354 76.5187 80.3273 76.2869 80.3167 75.983L80.0227 67.5642C80.0099 67.1964 80.0084 66.9243 80.0183 66.7478C80.0435 66.5548 80.1082 66.3444 80.2123 66.1167C80.4211 65.6771 81.0372 65.4395 82.0606 65.4037C83.02 65.3702 83.6261 65.5332 83.8788 65.8926C84.0636 66.1423 84.1607 66.4031 84.1702 66.6749C84.2463 66.5602 84.3535 66.4203 84.4918 66.2554C84.6461 66.0899 84.9664 65.8626 85.4526 65.5735C85.9388 65.2843 86.3658 65.1333 86.7335 65.1205C87.1173 65.1071 87.438 65.1199 87.6955 65.1589C87.9524 65.182 88.2345 65.2362 88.5417 65.3215Z" fill="black"/>
<path d="M102.539 69.5156C102.573 70.491 102.35 71.2272 101.871 71.7242C101.408 72.2047 100.88 72.4552 100.289 72.4759L94.6042 72.6744C94.6198 73.1221 94.8968 73.4887 95.435 73.7741C95.9733 74.0595 96.5063 74.1929 97.034 74.1745C97.9614 74.1421 98.6856 74.0208 99.2066 73.8105L99.4671 73.7053C99.8447 73.516 100.161 73.4169 100.417 73.408C100.929 73.3901 101.381 73.7345 101.774 74.4412C101.997 74.8657 102.114 75.2299 102.125 75.5337C102.174 76.9568 100.496 77.7279 97.0902 77.8468C95.9069 77.8881 94.8446 77.7251 93.9032 77.3577C92.9772 76.9738 92.2467 76.455 91.7115 75.8013C90.6589 74.5412 90.1047 73.1117 90.0488 71.5127C89.9785 69.4979 90.57 67.8683 91.8233 66.6238C93.0921 65.3627 94.7019 64.6981 96.6527 64.63C98.8753 64.5524 100.534 65.279 101.628 66.8097C102.2 67.6222 102.504 68.5242 102.539 69.5156ZM97.5021 70.3879C98.1098 70.3667 98.4046 70.1002 98.3868 69.5885C98.3739 69.2207 98.2197 68.9299 97.924 68.7161C97.6444 68.5018 97.2407 68.4038 96.713 68.4222C96.2014 68.4401 95.6972 68.6738 95.2006 69.1234C94.7034 69.557 94.4632 70.0137 94.48 70.4934L97.5021 70.3879Z" fill="black"/>
<path d="M112.185 65.6966C112.25 64.7978 112.866 64.328 114.033 64.2872C114.657 64.2655 115.122 64.2972 115.429 64.3826C115.736 64.4679 115.95 64.6285 116.07 64.8645C116.207 65.0999 116.286 65.3132 116.309 65.5045C116.347 65.6793 116.373 65.9506 116.385 66.3184L116.679 74.7133C116.691 75.081 116.685 75.3614 116.66 75.5544C116.65 75.7309 116.593 75.941 116.49 76.1847C116.28 76.6083 115.736 76.8354 114.857 76.8662C113.993 76.8963 113.406 76.8128 113.095 76.6155C112.799 76.4017 112.62 76.0877 112.558 75.6737C111.996 76.5418 111.019 77.0002 109.628 77.0488C108.253 77.0968 106.951 76.5098 105.724 75.2879C104.497 74.066 103.854 72.6236 103.796 70.9606C103.737 69.2816 104.278 67.7978 105.417 66.5093C106.573 65.2042 107.862 64.5268 109.285 64.4771C109.829 64.4581 110.328 64.5367 110.782 64.713C111.236 64.8892 111.555 65.0622 111.737 65.232C111.918 65.3857 112.068 65.5406 112.185 65.6966ZM107.994 70.838C108.012 71.3657 108.237 71.8381 108.668 72.2553C109.098 72.6566 109.609 72.8468 110.201 72.8262C110.792 72.8055 111.273 72.5726 111.641 72.1275C112.026 71.6818 112.209 71.2031 112.191 70.6914C112.173 70.1637 111.964 69.6827 111.565 69.2484C111.181 68.8135 110.67 68.6072 110.03 68.6296C109.407 68.6514 108.903 68.8931 108.519 69.3548C108.15 69.8159 107.976 70.3103 107.994 70.838Z" fill="black"/>
<path d="M125.711 68.13L124.149 68.0885L124.264 71.3985C124.279 71.8302 124.354 72.1398 124.489 72.3272C124.64 72.5141 124.899 72.6011 125.267 72.5882C125.65 72.5748 125.939 72.5808 126.132 72.6061C126.34 72.6148 126.558 72.6792 126.787 72.7993C127.162 72.9944 127.364 73.5236 127.395 74.3871C127.43 75.3945 127.227 76.0179 126.787 76.2574C126.552 76.3777 126.338 76.4572 126.147 76.4959C125.972 76.518 125.709 76.5352 125.357 76.5475C123.694 76.6056 122.417 76.2739 121.528 75.5525C120.638 74.8311 120.162 73.575 120.099 71.7841L119.975 68.2343C119.673 68.2928 119.346 68.3283 118.994 68.3406C118.643 68.3528 118.342 68.2273 118.093 67.9638C117.859 67.6998 117.731 67.24 117.708 66.5844C117.685 65.9288 117.709 65.4557 117.779 65.165C117.848 64.8584 117.953 64.6387 118.092 64.5057C118.341 64.2889 118.657 64.1738 119.041 64.1604L119.835 64.2287L119.749 61.7582C119.736 61.3904 119.735 61.1183 119.745 60.9419C119.771 60.7649 119.844 60.5702 119.964 60.3578C120.158 59.9508 120.767 59.7294 121.79 59.6937C122.878 59.6557 123.536 59.9289 123.764 60.5133C123.853 60.7664 123.907 61.1727 123.927 61.7324L124.009 64.083C124.71 63.9944 125.237 63.944 125.589 63.9317C125.956 63.9189 126.229 63.9254 126.406 63.9512C126.598 63.9605 126.817 64.0249 127.061 64.1445C127.484 64.3378 127.713 64.9462 127.749 65.9696C127.784 66.977 127.59 67.6001 127.166 67.8391C126.93 67.9594 126.717 68.0389 126.526 68.0776C126.351 68.0997 126.079 68.1172 125.711 68.13Z" fill="black"/>
<path d="M140.883 68.1766C140.917 69.152 140.694 69.8882 140.215 70.3852C139.752 70.8657 139.224 71.1162 138.633 71.1369L132.948 71.3354C132.964 71.7831 133.241 72.1497 133.779 72.4351C134.317 72.7205 134.85 72.8539 135.378 72.8355C136.305 72.8031 137.029 72.6818 137.55 72.4715L137.811 72.3663C138.189 72.177 138.505 72.0779 138.761 72.069C139.273 72.0511 139.725 72.3955 140.118 73.1023C140.341 73.5267 140.458 73.8909 140.468 74.1947C140.518 75.6178 138.84 76.3889 135.434 76.5078C134.251 76.5491 133.188 76.3861 132.247 76.0187C131.321 75.6348 130.59 75.116 130.055 74.4623C129.003 73.2022 128.448 71.7727 128.393 70.1737C128.322 68.1589 128.914 66.5293 130.167 65.2848C131.436 64.0237 133.046 63.3591 134.996 63.291C137.219 63.2134 138.877 63.94 139.972 65.4707C140.544 66.2832 140.848 67.1852 140.883 68.1766ZM135.846 69.0489C136.454 69.0277 136.748 68.7612 136.731 68.2495C136.718 67.8817 136.563 67.5909 136.268 67.3771C135.988 67.1628 135.585 67.0648 135.057 67.0832C134.545 67.1011 134.041 67.3348 133.544 67.7844C133.047 68.218 132.807 68.6747 132.824 69.1544L135.846 69.0489Z" fill="black"/>
<path d="M61.7895 95.2734C62.7474 95.6562 63.2367 96.1434 63.2574 96.735C63.2674 97.0229 63.2129 97.2969 63.094 97.5573C62.975 97.8176 62.9158 97.9557 62.9163 97.9717L57.123 112.247C57.0057 112.555 56.9018 112.791 56.8115 112.954C56.7371 113.117 56.6065 113.273 56.4196 113.424C56.2328 113.574 55.9954 113.655 55.7076 113.665C55.4198 113.675 54.9919 113.57 54.4238 113.349C53.4659 112.967 52.9769 112.487 52.9567 111.912C52.9433 111.528 53.6469 109.67 55.0675 106.339L50.0139 98.4703C49.6756 97.9538 49.502 97.5676 49.4931 97.3118C49.4752 96.8001 49.8891 96.2733 50.7347 95.7315C51.2672 95.3927 51.6854 95.218 51.9892 95.2074C52.293 95.1968 52.5431 95.2521 52.7394 95.3733C52.9358 95.4945 53.0764 95.6257 53.1614 95.7668C53.2618 95.8914 53.7275 96.6196 54.5585 97.9514C55.4049 99.2666 56.2083 100.495 56.9686 101.638C57.0396 101.379 57.437 100.38 58.1608 98.6421C58.884 96.8878 59.2677 95.9538 59.3117 95.8402C59.3718 95.726 59.463 95.5868 59.5853 95.4224C59.7837 95.1433 60.0668 94.9973 60.4345 94.9845C60.8183 94.9711 61.27 95.0674 61.7895 95.2734Z" fill="black"/>
<path d="M64.3685 101.379C64.3015 99.4603 64.9178 97.8538 66.2174 96.5596C67.517 95.2655 69.0303 94.5883 70.7573 94.528C72.4842 94.4677 74.0331 95.0379 75.4038 96.2388C76.774 97.4237 77.4926 98.9756 77.5596 100.894C77.606 102.222 77.3035 103.417 76.6522 104.48C76.0004 105.528 75.1874 106.317 74.2133 106.847C73.2547 107.361 72.2477 107.636 71.1923 107.673C70.1369 107.71 69.1046 107.49 68.0954 107.012C67.0855 106.519 66.2192 105.781 65.4965 104.798C64.7892 103.798 64.4132 102.658 64.3685 101.379ZM69.4417 102.931C69.9668 103.297 70.4932 103.471 71.0209 103.452C71.5486 103.434 72.0693 103.215 72.583 102.797C73.0967 102.379 73.3399 101.778 73.3125 100.995C73.2852 100.211 73.0169 99.6362 72.5078 99.2698C71.9987 98.9033 71.4564 98.7301 70.8807 98.7502C70.3051 98.7703 69.7764 98.9889 69.2946 99.406C68.8129 99.823 68.5857 100.423 68.6131 101.207C68.6399 101.974 68.9161 102.549 69.4417 102.931Z" fill="black"/>
<path d="M84.9413 106.928C83.3263 106.985 81.9619 106.424 80.8481 105.246C79.7498 104.052 79.1699 102.575 79.1085 100.816L78.9619 96.6189C78.9485 96.2351 78.9467 95.955 78.9565 95.7786C78.9824 95.6016 79.0471 95.3912 79.1506 95.1474C79.3594 94.7079 79.9755 94.4702 80.9989 94.4345C82.1182 94.3954 82.7844 94.6763 82.9975 95.2772C83.1024 95.5297 83.1646 95.9358 83.1841 96.4955L83.3307 100.693C83.3536 101.349 83.5554 101.854 83.936 102.209C84.3326 102.563 84.8427 102.729 85.4663 102.708C86.1059 102.685 86.6109 102.476 86.9813 102.078C87.3677 101.681 87.5499 101.17 87.5282 100.546L87.3799 96.3009C87.3671 95.9331 87.3656 95.661 87.3754 95.4846C87.4007 95.2916 87.4731 95.0729 87.5927 94.8286C87.786 94.4056 88.3944 94.1762 89.4178 94.1405C90.4251 94.1053 91.0483 94.2997 91.2872 94.7236C91.4075 94.9595 91.479 95.1732 91.5017 95.3645C91.5399 95.5393 91.5653 95.8105 91.5782 96.1783L91.8747 104.669C91.887 105.021 91.8805 105.293 91.8552 105.486C91.8454 105.663 91.7804 105.865 91.6603 106.094C91.4349 106.518 90.8266 106.747 89.8352 106.782C88.8598 106.816 88.2534 106.645 88.0162 106.269C87.8468 106.003 87.7554 105.678 87.742 105.294C87.6819 105.408 87.5436 105.573 87.327 105.789C87.1104 106.004 86.9007 106.188 86.6978 106.339C86.1664 106.71 85.5809 106.906 84.9413 106.928Z" fill="black"/>
<path d="M102.027 93.8683C102.334 93.9536 102.587 94.1129 102.788 94.346C103.003 94.5626 103.12 94.9268 103.138 95.4384C103.156 95.9501 103.024 96.5151 102.741 97.1333C102.458 97.7516 102.029 98.0707 101.454 98.0908C101.166 98.1009 100.884 98.0467 100.607 97.9283C100.347 97.8093 100.001 97.7573 99.5694 97.7724C99.1376 97.7875 98.7352 97.9536 98.362 98.2708C98.0049 98.5875 97.8338 98.9617 97.8489 99.3934L98.0248 104.43C98.0376 104.798 98.0314 105.079 98.0061 105.272C97.9963 105.448 97.9316 105.658 97.812 105.903C97.5867 106.327 96.9703 106.556 95.963 106.592C95.1954 106.618 94.639 106.502 94.2937 106.242C94.0301 106.027 93.8742 105.688 93.826 105.225C93.8204 105.065 93.8123 104.834 93.8017 104.53L93.5077 96.1109C93.4949 95.7432 93.4934 95.4711 93.5032 95.2946C93.5285 95.1016 93.5932 94.8912 93.6973 94.6634C93.9061 94.2239 94.5222 93.9862 95.5455 93.9505C96.505 93.917 97.111 94.08 97.3637 94.4394C97.5485 94.6891 97.6457 94.9498 97.6552 95.2217C97.7312 95.1069 97.8384 94.9671 97.9767 94.8022C98.1311 94.6367 98.4513 94.4094 98.9375 94.1202C99.4237 93.8311 99.8507 93.6801 100.219 93.6673C100.602 93.6538 100.923 93.6667 101.18 93.7057C101.437 93.7288 101.719 93.7829 102.027 93.8683Z" fill="black"/>
<path d="M110.325 99.7743C110.258 97.8554 110.874 96.2489 112.174 94.9548C113.473 93.6607 114.987 92.9834 116.714 92.9231C118.441 92.8628 119.989 93.4331 121.36 94.634C122.73 95.8189 123.449 97.3708 123.516 99.2896C123.562 100.617 123.26 101.812 122.609 102.875C121.957 103.923 121.144 104.712 120.17 105.242C119.211 105.756 118.204 106.031 117.149 106.068C116.093 106.105 115.061 105.885 114.052 105.408C113.042 104.915 112.176 104.176 111.453 103.193C110.746 102.193 110.37 101.053 110.325 99.7743ZM115.398 101.326C115.923 101.692 116.45 101.866 116.977 101.847C117.505 101.829 118.026 101.611 118.539 101.192C119.053 100.774 119.296 100.173 119.269 99.3899C119.242 98.6064 118.973 98.0314 118.464 97.6649C117.955 97.2985 117.413 97.1253 116.837 97.1454C116.261 97.1655 115.733 97.3841 115.251 97.8011C114.769 98.2182 114.542 98.8185 114.569 99.602C114.596 100.37 114.872 100.944 115.398 101.326Z" fill="black"/>
<path d="M140.546 92.4751C141.585 92.8871 142.116 93.4209 142.139 94.0765C142.149 94.3483 142.036 94.7925 141.802 95.4091C141.566 96.0097 141.369 96.5369 141.208 96.9908L138.794 103.511C138.579 104.223 138.197 104.733 137.647 105.04C137.411 105.16 137.109 105.227 136.742 105.24C136.374 105.253 136.009 105.129 135.648 104.87C135.302 104.594 135.068 104.313 134.946 104.03L134.74 103.629C134.601 103.313 134.086 102.082 133.194 99.9362C133.048 100.326 132.83 100.966 132.541 101.856C132.267 102.73 132.086 103.281 131.998 103.508C131.926 103.719 131.875 103.865 131.845 103.946C131.832 104.01 131.772 104.14 131.667 104.336C131.562 104.532 131.44 104.704 131.301 104.853C130.93 105.25 130.497 105.458 130.002 105.475C129.506 105.492 129.085 105.371 128.74 105.111C128.394 104.835 128.16 104.555 128.038 104.271L124.108 95.5707C123.932 95.0965 123.841 94.7875 123.836 94.6436C123.814 94.004 124.252 93.4844 125.15 93.0848C125.655 92.859 126.067 92.7406 126.387 92.7294C126.706 92.7183 126.965 92.7813 127.162 92.9185C127.374 93.0392 127.523 93.1701 127.608 93.3112C127.692 93.4363 127.761 93.57 127.814 93.7122C128.108 94.3423 128.728 95.8256 129.674 98.162L130.954 94.227C131.038 93.9038 131.205 93.6178 131.452 93.369C131.9 92.8891 132.363 92.6408 132.843 92.624C133.323 92.6073 133.735 92.721 134.08 92.9651C134.44 93.2087 134.689 93.4561 134.826 93.7075L135.032 94.1085C135.91 96.3193 136.426 97.582 136.581 97.8968L137.905 93.8641C138.253 92.8273 138.811 92.2956 139.579 92.2688C139.882 92.2581 140.205 92.3269 140.546 92.4751Z" fill="black"/>
<path d="M150.424 92.0341C152.023 91.9783 153.372 92.5475 154.47 93.7419C155.584 94.9198 156.172 96.3882 156.233 98.1471L156.381 102.369C156.393 102.736 156.387 103.017 156.362 103.21C156.352 103.386 156.295 103.588 156.191 103.816C155.982 104.256 155.366 104.493 154.343 104.529C153.207 104.569 152.541 104.296 152.345 103.71C152.24 103.442 152.177 103.036 152.158 102.492L152.011 98.2705C151.988 97.6149 151.778 97.1099 151.382 96.7556C151.001 96.4006 150.491 96.2343 149.851 96.2567C149.228 96.2784 148.723 96.4882 148.336 96.8859C147.966 97.2831 147.792 97.7935 147.813 98.4171L147.962 102.663C147.975 103.03 147.968 103.311 147.943 103.504C147.933 103.68 147.868 103.883 147.748 104.111C147.555 104.55 146.947 104.787 145.924 104.823C144.916 104.858 144.293 104.664 144.054 104.24C143.934 104.004 143.855 103.799 143.817 103.624C143.794 103.432 143.776 103.153 143.763 102.785L143.467 94.2943C143.455 93.9425 143.453 93.6784 143.463 93.5019C143.489 93.3089 143.561 93.0983 143.681 92.8699C143.891 92.4624 144.5 92.241 145.507 92.2058C146.483 92.1717 147.089 92.3347 147.325 92.6947C147.495 92.9609 147.586 93.2859 147.6 93.6697C147.66 93.5555 147.798 93.3906 148.015 93.1749C148.231 92.9592 148.441 92.7838 148.645 92.6486C149.175 92.2618 149.769 92.057 150.424 92.0341Z" fill="black"/>
<path d="M50.5441 128.79L48.9817 128.749L49.0973 132.059C49.1124 132.49 49.1873 132.8 49.3219 132.987C49.4725 133.174 49.7317 133.261 50.0995 133.248C50.4832 133.235 50.7716 133.241 50.9646 133.266C51.173 133.275 51.3914 133.339 51.6198 133.46C51.9948 133.655 52.1974 134.184 52.2275 135.047C52.2627 136.055 52.0603 136.678 51.6204 136.918C51.3845 137.038 51.1711 137.117 50.9804 137.156C50.805 137.178 50.5415 137.195 50.1897 137.208C48.5267 137.266 47.2504 136.934 46.3606 136.213C45.4709 135.491 44.9948 134.235 44.9322 132.444L44.8083 128.895C44.5061 128.953 44.1792 128.989 43.8274 129.001C43.4756 129.013 43.175 128.887 42.9257 128.624C42.6923 128.36 42.5642 127.9 42.5413 127.245C42.5184 126.589 42.5419 126.116 42.6118 125.825C42.6812 125.519 42.7856 125.299 42.925 125.166C43.1736 124.949 43.4898 124.834 43.8735 124.821L44.6684 124.889L44.5821 122.418C44.5693 122.051 44.5678 121.779 44.5776 121.602C44.6035 121.425 44.6767 121.23 44.7974 121.018C44.9913 120.611 45.6 120.39 46.6233 120.354C47.7107 120.316 48.3686 120.589 48.5971 121.174C48.686 121.427 48.7402 121.833 48.7598 122.393L48.8419 124.743C49.5432 124.655 50.0698 124.604 50.4215 124.592C50.7893 124.579 51.0617 124.586 51.2387 124.611C51.4312 124.621 51.6495 124.685 51.8939 124.805C52.3169 124.998 52.5462 125.606 52.582 126.63C52.6172 127.637 52.4228 128.26 51.9989 128.499C51.7629 128.62 51.5496 128.699 51.3588 128.738C51.1835 128.76 50.9119 128.777 50.5441 128.79Z" fill="black"/>
<path d="M66.5773 124.268C67.4261 124.735 67.8603 125.248 67.8799 125.807C67.891 126.127 67.7465 126.573 67.4462 127.143L62.7786 135.832C62.6282 136.109 62.381 136.366 62.037 136.602C61.6925 136.822 61.3443 136.938 60.9925 136.951C60.6568 136.962 60.3262 136.894 60.0008 136.745C59.6908 136.58 59.4688 136.411 59.3347 136.24L59.1097 135.984L53.8225 127.619C53.4843 127.103 53.3093 126.676 53.2976 126.341C53.2775 125.765 53.6745 125.215 54.4887 124.69C55.084 124.317 55.5576 124.124 55.9094 124.112C56.2612 124.1 56.5369 124.202 56.7366 124.419C56.9518 124.62 57.1788 124.932 57.4177 125.356L60.7709 131.291L63.7019 125.137C63.8672 124.827 63.9876 124.607 64.0631 124.476C64.154 124.329 64.2931 124.188 64.4806 124.053C64.6674 123.902 64.9207 123.822 65.2405 123.81C65.5604 123.799 66.0059 123.952 66.5773 124.268Z" fill="black"/>
<path d="M79.3717 129.873C79.3952 130.544 79.6375 131.064 80.0986 131.432C80.5592 131.785 81.0373 131.952 81.533 131.935C82.0447 131.917 82.5114 131.756 82.9331 131.454C83.3702 131.134 83.7247 130.97 83.9965 130.96C84.4762 130.943 85.0746 131.347 85.7918 132.17C86.1758 132.621 86.3742 133.03 86.387 133.398C86.4083 134.006 85.9883 134.589 85.1273 135.147C84.2382 135.819 83.1301 136.178 81.8029 136.224C80.3158 136.276 78.8659 135.79 77.4534 134.767C76.7799 134.278 76.2205 133.617 75.7751 132.784C75.3292 131.935 75.0884 130.999 75.0527 129.976C75.0164 128.936 75.1916 127.994 75.5783 127.148C75.9645 126.286 76.4764 125.587 77.1141 125.053C78.4045 123.951 79.8012 123.374 81.3043 123.321C81.9119 123.3 82.5066 123.367 83.0884 123.523C83.6696 123.663 84.099 123.808 84.3764 123.959L84.7685 124.185C85.063 124.367 85.2922 124.511 85.456 124.617C85.8829 124.923 86.1037 125.283 86.1182 125.699C86.1321 126.099 85.9802 126.56 85.6622 127.084C85.1173 127.983 84.581 128.442 84.0533 128.461C83.7495 128.471 83.3116 128.31 82.7397 127.978C82.4423 127.716 82.0219 127.595 81.4782 127.614C80.9505 127.632 80.4615 127.842 80.0112 128.242C79.5609 128.642 79.3477 129.185 79.3717 129.873Z" fill="black"/>
<path d="M94.4488 123.055C96.0478 122.999 97.3962 123.56 98.494 124.738C99.6078 125.916 100.195 127.385 100.257 129.144L100.404 133.365C100.417 133.733 100.411 134.013 100.386 134.206C100.376 134.383 100.311 134.593 100.191 134.837C99.9981 135.26 99.3898 135.49 98.3664 135.525C97.391 135.559 96.7761 135.373 96.5217 134.965C96.3854 134.73 96.2979 134.517 96.2593 134.326C96.2366 134.135 96.2185 133.847 96.2051 133.464L96.0585 129.266C96.0356 128.611 95.8339 128.105 95.4533 127.75C95.0726 127.395 94.5945 127.228 94.0189 127.248C93.4592 127.268 92.9697 127.461 92.5502 127.828C92.1302 128.179 91.8957 128.571 91.8469 129.005L92.0094 133.658C92.0222 134.026 92.016 134.306 91.9907 134.499C91.9808 134.676 91.9162 134.886 91.7966 135.13C91.6033 135.553 90.9949 135.783 89.9715 135.819C88.9641 135.854 88.341 135.659 88.102 135.235C87.9817 134.999 87.9025 134.794 87.8644 134.619C87.8422 134.444 87.8245 134.164 87.8111 133.781L87.3102 119.437C87.2973 119.07 87.2959 118.798 87.3057 118.621C87.331 118.428 87.3957 118.218 87.4998 117.99C87.7086 117.55 88.3247 117.313 89.348 117.277C90.3554 117.242 90.9706 117.436 91.1935 117.861C91.3298 118.096 91.4093 118.31 91.432 118.501C91.4701 118.676 91.4956 118.947 91.5085 119.315L91.6936 124.616C92.459 123.612 93.3774 123.092 94.4488 123.055Z" fill="black"/>
<path d="M110.216 123.801C110.28 122.902 110.896 122.432 112.064 122.391C112.687 122.37 113.153 122.401 113.46 122.487C113.767 122.572 113.981 122.733 114.101 122.969C114.237 123.204 114.317 123.417 114.339 123.609C114.378 123.783 114.403 124.055 114.416 124.423L114.709 132.817C114.722 133.185 114.716 133.466 114.69 133.659C114.681 133.835 114.624 134.045 114.52 134.289C114.311 134.712 113.767 134.94 112.887 134.97C112.024 135 111.436 134.917 111.125 134.72C110.83 134.506 110.651 134.192 110.588 133.778C110.026 134.646 109.049 135.104 107.658 135.153C106.283 135.201 104.982 134.614 103.754 133.392C102.527 132.17 101.884 130.728 101.826 129.065C101.768 127.386 102.308 125.902 103.448 124.613C104.603 123.308 105.892 122.631 107.315 122.581C107.859 122.562 108.358 122.641 108.812 122.817C109.267 122.993 109.585 123.166 109.767 123.336C109.949 123.49 110.098 123.645 110.216 123.801ZM106.025 128.942C106.043 129.47 106.268 129.942 106.698 130.359C107.129 130.761 107.64 130.951 108.231 130.93C108.823 130.91 109.303 130.677 109.672 130.232C110.056 129.786 110.24 129.307 110.222 128.796C110.204 128.268 109.995 127.787 109.595 127.353C109.212 126.918 108.7 126.711 108.061 126.734C107.437 126.755 106.933 126.997 106.549 127.459C106.181 127.92 106.006 128.414 106.025 128.942Z" fill="black"/>
<path d="M123.282 122C124.881 121.944 126.229 122.513 127.328 123.707C128.441 124.885 129.029 126.354 129.091 128.113L129.238 132.334C129.251 132.702 129.245 132.982 129.219 133.175C129.209 133.352 129.152 133.554 129.048 133.782C128.84 134.221 128.223 134.459 127.2 134.494C126.065 134.534 125.399 134.261 125.202 133.676C125.097 133.407 125.035 133.001 125.016 132.457L124.868 128.236C124.845 127.58 124.636 127.075 124.239 126.721C123.858 126.366 123.348 126.2 122.709 126.222C122.085 126.244 121.58 126.454 121.194 126.851C120.823 127.249 120.649 127.759 120.671 128.383L120.819 132.628C120.832 132.996 120.826 133.276 120.8 133.469C120.791 133.646 120.726 133.848 120.605 134.076C120.413 134.515 119.805 134.753 118.781 134.788C117.774 134.824 117.151 134.629 116.912 134.205C116.791 133.969 116.712 133.764 116.674 133.589C116.651 133.398 116.634 133.118 116.621 132.751L116.324 124.26C116.312 123.908 116.311 123.644 116.321 123.467C116.346 123.274 116.419 123.064 116.539 122.835C116.749 122.428 117.357 122.207 118.365 122.171C119.34 122.137 119.946 122.3 120.183 122.66C120.352 122.926 120.444 123.251 120.457 123.635C120.517 123.521 120.655 123.356 120.872 123.14C121.089 122.925 121.299 122.749 121.502 122.614C122.033 122.227 122.626 122.023 123.282 122Z" fill="black"/>
<path d="M137.827 121.492C139.426 121.436 140.775 122.005 141.874 123.2C142.987 124.377 143.575 125.846 143.636 127.605L143.784 131.826C143.797 132.194 143.79 132.474 143.765 132.667C143.755 132.844 143.698 133.046 143.594 133.274C143.385 133.713 142.769 133.951 141.746 133.987C140.611 134.026 139.945 133.753 139.748 133.168C139.643 132.899 139.58 132.493 139.562 131.95L139.414 127.728C139.391 127.072 139.181 126.568 138.785 126.213C138.404 125.858 137.894 125.692 137.254 125.714C136.631 125.736 136.126 125.946 135.74 126.343C135.369 126.741 135.195 127.251 135.217 127.875L135.365 132.12C135.378 132.488 135.372 132.768 135.346 132.961C135.336 133.138 135.271 133.34 135.151 133.568C134.959 134.007 134.35 134.245 133.327 134.281C132.32 134.316 131.697 134.121 131.458 133.697C131.337 133.461 131.258 133.256 131.22 133.081C131.197 132.89 131.179 132.61 131.167 132.243L130.87 123.752C130.858 123.4 130.857 123.136 130.866 122.959C130.892 122.766 130.964 122.556 131.085 122.328C131.294 121.92 131.903 121.699 132.91 121.663C133.886 121.629 134.492 121.792 134.729 122.152C134.898 122.418 134.989 122.743 135.003 123.127C135.063 123.013 135.201 122.848 135.418 122.632C135.634 122.417 135.844 122.241 136.048 122.106C136.579 121.719 137.172 121.515 137.827 121.492Z" fill="black"/>
<path d="M157.699 125.625C157.733 126.6 157.51 127.336 157.031 127.833C156.568 128.314 156.04 128.564 155.448 128.585L149.764 128.784C149.78 129.231 150.057 129.598 150.595 129.883C151.133 130.169 151.666 130.302 152.194 130.284C153.121 130.251 153.845 130.13 154.366 129.92L154.627 129.814C155.004 129.625 155.321 129.526 155.577 129.517C156.089 129.499 156.541 129.844 156.934 130.55C157.157 130.975 157.274 131.339 157.284 131.643C157.334 133.066 155.656 133.837 152.25 133.956C151.067 133.997 150.004 133.834 149.063 133.467C148.137 133.083 147.406 132.564 146.871 131.91C145.819 130.65 145.264 129.221 145.209 127.622C145.138 125.607 145.73 123.977 146.983 122.733C148.252 121.472 149.862 120.807 151.812 120.739C154.035 120.662 155.693 121.388 156.788 122.919C157.36 123.731 157.664 124.633 157.699 125.625ZM152.662 126.497C153.27 126.476 153.564 126.209 153.547 125.698C153.534 125.33 153.379 125.039 153.084 124.825C152.804 124.611 152.4 124.513 151.873 124.531C151.361 124.549 150.857 124.783 150.36 125.233C149.863 125.666 149.623 126.123 149.64 126.603L152.662 126.497Z" fill="black"/>
<path d="M158.961 116.911C158.948 116.544 158.947 116.271 158.956 116.095C158.982 115.902 159.046 115.684 159.15 115.44C159.359 115 159.975 114.763 160.998 114.727C161.973 114.693 162.589 114.887 162.843 115.311C162.98 115.546 163.059 115.76 163.082 115.951C163.121 116.142 163.146 116.421 163.159 116.789L163.547 127.894C163.567 128.47 163.628 128.836 163.73 128.992C163.83 129.133 164.041 129.198 164.361 129.186C164.696 129.175 164.921 129.183 165.034 129.211C165.146 129.223 165.285 129.282 165.448 129.389C165.775 129.585 165.955 130.147 165.988 131.075C166.023 132.082 165.884 132.703 165.572 132.938C165.167 133.241 164.177 133.323 162.603 133.186C161.366 133.069 160.553 132.689 160.162 132.047C159.687 131.279 159.419 130.039 159.36 128.328L158.961 116.911Z" fill="black"/>
<defs>
<clipPath id="clip0">
<rect width="153.795" height="153.795" fill="white" transform="translate(247.404 22.6318) rotate(5)"/>
</clipPath>
</defs>
</svg>
