<svg width="1730" height="200" viewBox="0 0 1730 200" fill="none" xmlns="http://www.w3.org/2000/svg">
<mask id="mask0" mask-type="alpha" maskUnits="userSpaceOnUse" x="0" y="0" width="1730" height="200">
<rect width="1730" height="200" rx="6" fill="url(#paint0_linear)"/>
</mask>
<g mask="url(#mask0)">
<rect width="1730" height="200" rx="6" fill="url(#paint1_linear)"/>
<rect x="-160" width="443" height="200" fill="white"/>
<g clip-path="url(#clip0)">
<path d="M1599.24 179.034L1584.65 177.757L1588.72 75.1919L1613.04 77.3195L1599.24 179.034Z" fill="#FFD578"/>
<path d="M1599.24 179.034L1599.45 176.601L1587.18 175.528L1591.06 77.843L1610.28 79.5245L1596.82 178.704L1599.24 179.034L1599.45 176.601L1599.24 179.034L1601.66 179.36L1615.46 77.6459C1615.55 76.9808 1615.37 76.3169 1614.95 75.7936C1614.53 75.2691 1613.92 74.9454 1613.25 74.8868L1588.93 72.7592C1588.27 72.7007 1587.61 72.9142 1587.11 73.358C1586.6 73.8006 1586.31 74.4239 1586.28 75.0932L1582.21 177.659C1582.16 178.961 1583.14 180.074 1584.44 180.188L1599.03 181.465C1600.33 181.578 1601.48 180.652 1601.66 179.36L1599.24 179.034Z" fill="#0E0E0E"/>
<path d="M1616.26 180.523L1599.24 179.034L1613.04 77.3193L1634.93 79.2341L1616.26 180.523Z" fill="#FF927D"/>
<path d="M1616.26 180.523L1616.48 178.091L1602 176.824L1615.15 79.9504L1632.04 81.4285L1613.86 180.079L1616.26 180.523L1616.48 178.091L1616.26 180.523L1618.67 180.964L1637.33 79.6755C1637.45 78.998 1637.29 78.302 1636.87 77.755C1636.45 77.2068 1635.83 76.8617 1635.14 76.8017L1613.25 74.8868C1611.96 74.7733 1610.8 75.697 1610.62 76.9898L1596.82 178.704C1596.73 179.368 1596.92 180.033 1597.33 180.558C1597.75 181.081 1598.36 181.406 1599.03 181.465L1616.05 182.954C1617.31 183.064 1618.44 182.202 1618.67 180.964L1616.26 180.523Z" fill="#0E0E0E"/>
<path d="M1633.29 182.013L1616.26 180.523L1634.93 79.2343L1654.38 80.9365L1633.29 182.013Z" fill="#FFD578"/>
<path d="M1633.29 182.012L1633.5 179.58L1619.15 178.325L1636.93 81.8589L1651.43 83.1278L1630.9 181.512L1633.29 182.012L1633.5 179.58L1633.29 182.012L1635.68 182.512L1656.77 81.4344C1656.92 80.75 1656.76 80.0394 1656.34 79.4799C1655.93 78.9206 1655.29 78.5648 1654.6 78.5041L1635.14 76.8018C1633.89 76.6921 1632.76 77.5509 1632.53 78.7902L1613.86 180.079C1613.74 180.756 1613.9 181.452 1614.32 182.001C1614.74 182.549 1615.37 182.894 1616.05 182.954L1633.07 184.444C1634.31 184.551 1635.42 183.721 1635.68 182.512L1633.29 182.012Z" fill="#0E0E0E"/>
<path d="M1567.63 176.268L1550.6 174.778L1547.38 71.5747L1566.83 73.2768L1567.63 176.268Z" fill="#FFD578"/>
<path d="M1567.63 176.268L1567.84 173.835L1552.97 172.535L1549.9 74.2455L1564.41 75.5145L1565.19 176.286L1567.63 176.268L1567.84 173.835L1567.63 176.268L1570.07 176.247L1569.28 73.2564C1569.27 71.9963 1568.3 70.9543 1567.05 70.8445L1547.59 69.1424C1546.9 69.0817 1546.21 69.3201 1545.7 69.8001C1545.2 70.2789 1544.92 70.9515 1544.94 71.6503L1548.16 174.855C1548.2 176.091 1549.16 177.102 1550.39 177.21L1567.41 178.699C1568.1 178.759 1568.78 178.528 1569.28 178.06C1569.79 177.593 1570.07 176.936 1570.07 176.247L1567.63 176.268Z" fill="#0E0E0E"/>
<path d="M1584.65 177.757L1567.63 176.268L1566.83 73.2769L1588.72 75.1918L1584.65 177.757Z" fill="#FF927D"/>
<path d="M1584.65 177.757L1584.86 175.325L1570.05 174.029L1569.3 75.9391L1586.19 77.4171L1582.21 177.659L1584.65 177.757L1584.86 175.325L1584.65 177.757L1587.09 177.853L1591.16 75.2873C1591.21 73.9835 1590.23 72.8729 1588.93 72.7593L1567.05 70.8444C1566.36 70.7844 1565.68 71.0155 1565.18 71.4829C1564.67 71.9492 1564.39 72.6056 1564.39 73.2946L1565.19 176.286C1565.19 177.544 1566.16 178.589 1567.41 178.699L1584.44 180.188C1585.1 180.247 1585.76 180.032 1586.26 179.589C1586.77 179.145 1587.06 178.522 1587.09 177.853L1584.65 177.757Z" fill="#0E0E0E"/>
<path d="M1538.29 63.4277L1664.75 74.4916L1664.11 81.7875L1537.65 70.7236L1538.29 63.4277Z" fill="#FFD578"/>
<path d="M1664.11 81.7876L1664.32 79.3551L1540.3 68.5041L1540.51 66.0703L1662.1 76.7085L1661.68 81.5747L1664.11 81.7876L1664.32 79.3551L1664.11 81.7876L1666.54 82.0004L1667.18 74.7045C1667.24 74.063 1667.03 73.414 1666.62 72.9208C1666.21 72.4288 1665.6 72.1152 1664.96 72.0592L1538.5 60.9954C1537.86 60.9394 1537.21 61.1434 1536.72 61.5561C1536.23 61.9701 1535.91 62.5736 1535.86 63.2151L1535.22 70.511C1535.16 71.1595 1535.36 71.7926 1535.78 72.2919C1536.2 72.7913 1536.79 73.0966 1537.44 73.1534L1663.9 84.2172C1664.55 84.2741 1665.18 84.0755 1665.68 83.6566C1666.18 83.2376 1666.49 82.6488 1666.54 82.0004L1664.11 81.7876Z" fill="#0E0E0E"/>
<path d="M1628.03 130.092C1626.5 147.551 1611.11 160.468 1593.65 158.94C1576.19 157.413 1563.27 142.02 1564.8 124.56C1566.33 107.099 1581.72 94.1833 1599.18 95.711C1616.64 97.2385 1629.56 112.63 1628.03 130.092V130.092Z" fill="#FFF35F"/>
<path d="M1628.03 130.092L1630.46 130.304C1632.1 111.499 1618.2 94.9251 1599.39 93.2785C1580.59 91.6347 1564.01 105.542 1562.37 124.347C1560.72 143.15 1574.63 159.725 1593.43 161.371C1612.24 163.015 1628.81 149.107 1630.46 130.304L1625.6 129.879C1624.89 137.944 1620.99 144.938 1615.24 149.765C1609.49 154.587 1601.93 157.211 1593.86 156.508C1585.79 155.799 1578.8 151.902 1573.97 146.154C1569.15 140.403 1566.53 132.837 1567.23 124.772C1567.94 116.706 1571.84 109.71 1577.58 104.885C1583.33 100.062 1590.9 97.4376 1598.97 98.1406C1607.03 98.849 1614.03 102.746 1618.85 108.496C1623.68 114.246 1626.3 121.812 1625.6 129.879L1628.03 130.092Z" fill="black"/>
<path d="M1587.22 120.395C1587.04 122.408 1585.27 123.899 1583.25 123.723C1581.24 123.547 1579.74 121.77 1579.92 119.757C1580.1 117.742 1581.87 116.251 1583.89 116.427C1585.9 116.603 1587.39 118.38 1587.22 120.395Z" fill="black"/>
<path d="M1613.97 122.735C1613.79 124.749 1612.02 126.24 1610 126.063C1607.99 125.887 1606.5 124.11 1606.67 122.097C1606.85 120.082 1608.63 118.591 1610.64 118.767C1612.65 118.944 1614.14 120.72 1613.97 122.735Z" fill="black"/>
<path d="M1567.17 41.448L1642.56 48.0438L1640.43 72.3639L1565.04 65.7682L1567.17 41.448Z" fill="white"/>
<path d="M1642.56 48.044L1642.77 45.6129L1567.38 39.0171C1566.74 38.9611 1566.09 39.1652 1565.6 39.5779C1565.11 39.9918 1564.79 40.594 1564.74 41.2355L1562.61 65.5556C1562.55 66.2041 1562.75 66.837 1563.17 67.3365C1563.59 67.8373 1564.18 68.1412 1564.83 68.198L1640.22 74.7938C1640.87 74.8505 1641.5 74.6535 1642 74.233C1642.5 73.8141 1642.8 73.2253 1642.86 72.5768L1644.99 48.2566C1645.05 47.6151 1644.84 46.9677 1644.43 46.4743C1644.01 45.9825 1643.41 45.6689 1642.77 45.6129L1642.56 48.044L1640.13 47.8311L1638.21 69.7175L1567.69 63.5473L1569.39 44.0906L1642.35 50.475L1642.56 48.044L1640.13 47.8311L1642.56 48.044Z" fill="#0E0E0E"/>
<path d="M1636.85 62.0305C1636.53 62.8567 1636.28 63.7186 1636.2 64.6425C1635.73 70.0139 1639.71 74.7506 1645.08 75.2206C1650.45 75.6907 1655.19 71.7162 1655.66 66.3448C1656.07 61.6664 1653.1 57.4752 1648.78 56.1578C1649.1 55.3314 1649.35 54.4697 1649.43 53.5471C1649.9 48.1743 1645.92 43.4377 1640.55 42.9676C1639.69 42.8925 1638.86 42.9686 1638.05 43.1066L1638.12 42.7548C1638.59 37.3834 1634.61 32.6468 1629.24 32.1769C1625.39 31.8394 1621.89 33.8132 1620.03 36.929C1618.99 36.4319 1617.87 36.0825 1616.66 35.9765C1612.8 35.6391 1609.3 37.6128 1607.44 40.7287C1606.41 40.2315 1605.28 39.8821 1604.07 39.7762C1601.76 39.5737 1599.59 40.2308 1597.8 41.4346C1596.25 39.9387 1594.23 38.9147 1591.91 38.7124C1588.91 38.45 1586.15 39.6043 1584.17 41.5814C1583.93 36.7938 1580.23 32.7893 1575.31 32.3595C1569.94 31.8896 1565.21 35.8641 1564.74 41.2354C1564.63 42.4475 1564.78 43.6158 1565.09 44.7199C1562.43 45.731 1560.31 47.8622 1559.35 50.6008L1559.02 50.5382C1553.65 50.0682 1548.91 54.0427 1548.44 59.4141C1547.97 64.7869 1551.95 69.5235 1557.32 69.9935C1561.86 70.3907 1565.91 67.599 1567.35 63.4861L1567.69 63.5487" fill="white"/>
<path d="M1634.57 61.1592C1634.2 62.1173 1633.88 63.2053 1633.77 64.4298C1633.19 71.1456 1638.15 77.0626 1644.87 77.6516C1651.59 78.2379 1657.5 73.273 1658.09 66.5574C1658.6 60.7056 1654.9 55.4689 1649.5 53.8223L1648.78 56.1578L1651.07 57.0276C1651.43 56.071 1651.75 54.9815 1651.86 53.7598C1652.45 47.0412 1647.48 41.1241 1640.76 40.5366C1639.63 40.437 1638.58 40.5401 1637.64 40.7008L1638.05 43.1065L1640.45 43.5603L1640.52 43.2086L1640.55 42.9676C1641.14 36.2503 1636.17 30.3334 1629.46 29.7444C1624.62 29.3231 1620.24 31.7997 1617.93 35.6784L1620.03 36.9289L1621.08 34.7274C1619.83 34.1257 1618.42 33.678 1616.87 33.544C1612.04 33.1228 1607.65 35.5994 1605.35 39.4781L1607.44 40.7286L1608.5 38.5285C1607.25 37.9253 1605.83 37.479 1604.28 37.345C1601.37 37.0877 1598.64 37.9249 1596.44 39.4069L1597.8 41.4346L1599.5 39.6758C1597.59 37.8333 1595.04 36.5331 1592.13 36.2813C1588.36 35.9494 1584.88 37.4097 1582.45 39.8597L1584.17 41.5828L1586.61 41.4554C1586.31 35.4793 1581.68 30.4693 1575.53 29.9284C1568.81 29.3423 1562.89 34.3057 1562.3 41.024C1562.17 42.5686 1562.36 44.0423 1562.74 45.3824L1565.09 44.7213L1564.22 42.4385C1560.9 43.7 1558.25 46.3665 1557.05 49.7921L1559.35 50.6009L1559.81 48.202L1559.47 48.1394L1559.23 48.1057C1552.52 47.5196 1546.6 52.4845 1546.01 59.2013C1545.43 65.9186 1550.39 71.8355 1557.11 72.4245C1562.79 72.9177 1567.87 69.4256 1569.66 64.292L1567.35 63.486L1566.9 65.8849L1567.23 65.9474C1568.56 66.1978 1569.83 65.3266 1570.08 64.0024C1570.33 62.6782 1569.46 61.4017 1568.14 61.1512L1567.81 61.0886C1566.62 60.8627 1565.45 61.5386 1565.05 62.68C1563.96 65.7694 1560.93 67.8622 1557.53 67.5624C1553.5 67.2016 1550.53 63.6545 1550.87 59.6282C1551.23 55.6002 1554.78 52.6251 1558.81 52.9692L1559.02 50.5381L1558.57 52.937L1558.9 52.9995C1560.09 53.2226 1561.26 52.5481 1561.66 51.408C1562.37 49.3591 1563.96 47.7619 1565.96 47.0027C1567.14 46.5524 1567.78 45.2766 1567.44 44.0575C1567.19 43.1905 1567.09 42.3262 1567.17 41.4494C1567.53 37.4216 1571.07 34.4464 1575.1 34.7904C1578.77 35.1075 1581.55 38.1081 1581.74 41.7074C1581.78 42.6708 1582.4 43.5168 1583.3 43.8606C1584.2 44.2072 1585.22 43.988 1585.9 43.3044C1587.41 41.7988 1589.46 40.9506 1591.7 41.1447C1593.41 41.2976 1594.91 42.0454 1596.11 43.1932C1596.93 43.9905 1598.21 44.1022 1599.16 43.4607C1600.54 42.5378 1602.14 42.061 1603.86 42.2085C1604.73 42.2865 1605.57 42.5388 1606.38 42.9299C1607.53 43.4786 1608.89 43.0665 1609.54 41.979C1610.95 39.6261 1613.56 38.1552 1616.44 38.4088C1617.32 38.4854 1618.15 38.7378 1618.97 39.1302C1620.11 39.6789 1621.47 39.2668 1622.12 38.1792C1623.53 35.8263 1626.15 34.3541 1629.03 34.6077C1633.06 34.9685 1636.03 38.5155 1635.68 42.5433L1638.12 42.7561L1635.72 42.3008L1635.65 42.6525C1635.5 43.4388 1635.75 44.2482 1636.31 44.8189C1636.87 45.3896 1637.67 45.6479 1638.46 45.5134C1639.15 45.3952 1639.76 45.3492 1640.34 45.3998C1644.36 45.7606 1647.34 49.3063 1646.99 53.3354C1646.94 53.9574 1646.77 54.5931 1646.5 55.2892C1646.26 55.9228 1646.29 56.6225 1646.59 57.232C1646.89 57.8428 1647.42 58.2946 1648.07 58.4945C1651.3 59.4799 1653.54 62.6269 1653.23 66.1332C1652.87 70.1582 1649.32 73.1334 1645.29 72.7908C1641.26 72.4286 1638.29 68.883 1638.63 64.8566C1638.69 64.2318 1638.86 63.5961 1639.13 62.9C1639.61 61.6408 1638.97 60.2297 1637.71 59.7506C1636.46 59.2688 1635.04 59.9025 1634.56 61.1618L1634.57 61.1592Z" fill="#0E0E0E"/>
<path d="M1603.07 135.26C1603.54 129.887 1600.65 125.246 1596.63 124.893C1592.6 124.541 1588.95 128.61 1588.48 133.983C1588.01 139.355 1590.89 143.996 1594.92 144.348C1598.95 144.701 1602.6 140.631 1603.07 135.26Z" fill="#0E0E0E"/>
<path d="M1624.17 50.6782C1625.21 51.1768 1626.33 51.5262 1627.54 51.6321C1628.4 51.7072 1629.23 51.6312 1630.04 51.4917" fill="#FFF35F"/>
<path d="M1623.11 52.8765C1624.37 53.4827 1625.78 53.9278 1627.33 54.0616C1628.47 54.1612 1629.51 54.058 1630.45 53.8974C1631.78 53.6687 1632.67 52.4077 1632.44 51.0809C1632.22 49.7514 1630.96 48.8586 1629.63 49.0873C1628.94 49.2027 1628.33 49.2502 1627.75 49.1996C1626.88 49.1215 1626.04 48.8705 1625.23 48.4783C1624.02 47.8924 1622.56 48.4027 1621.97 49.6177C1621.39 50.8327 1621.9 52.2922 1623.11 52.8779L1623.11 52.8765Z" fill="#0E0E0E"/>
<path d="M1578.78 53.4696C1580.42 52.846 1581.87 51.8812 1583.08 50.6673L1581.35 48.9456L1578.91 49.0701C1579.22 55.0476 1583.85 60.0577 1590 60.5986C1592.91 60.8559 1595.65 60.0187 1597.85 58.5353C1598.96 57.7821 1599.26 56.2656 1598.51 55.1467C1597.75 54.0277 1596.24 53.7324 1595.12 54.4842C1593.74 55.4056 1592.14 55.8838 1590.42 55.7365C1586.75 55.418 1583.98 52.4187 1583.79 48.8181C1583.74 47.8546 1583.13 47.0101 1582.23 46.6649C1581.32 46.3196 1580.3 46.5375 1579.62 47.2209C1578.88 47.9652 1578.01 48.5357 1577.04 48.9051C1575.78 49.3838 1575.15 50.7936 1575.63 52.0554C1576.11 53.3145 1577.52 53.9483 1578.78 53.4696Z" fill="#0E0E0E"/>
<path d="M1575.19 61.7544C1574.72 67.1272 1578.7 71.8638 1584.07 72.3337C1589.44 72.8038 1594.18 68.8293 1594.65 63.4565" fill="white"/>
<path d="M1572.76 61.5416C1572.18 68.2589 1577.14 74.1759 1583.86 74.7648C1590.57 75.3511 1596.49 70.3862 1597.08 63.6693C1597.2 62.325 1596.2 61.143 1594.86 61.0255C1593.52 60.908 1592.33 61.8995 1592.22 63.2438C1591.86 67.2703 1588.31 70.2455 1584.28 69.9014C1580.26 69.5407 1577.28 65.995 1577.63 61.9671C1577.74 60.6229 1576.75 59.4409 1575.41 59.3234C1574.06 59.2059 1572.88 60.1974 1572.76 61.5416Z" fill="#0E0E0E"/>
</g>
<g clip-path="url(#clip1)">
<path d="M543.007 -4.24453L284.148 4.79502C251.889 5.92151 226.652 32.9854 227.778 65.2439L230.699 148.875C231.825 181.134 258.889 206.371 291.147 205.245L550.006 196.205C582.265 195.079 607.502 168.015 606.376 135.756L603.455 52.125C602.329 19.8665 575.265 -5.37103 543.007 -4.24453Z" fill="#FF694E"/>
<path d="M543.122 -0.925761L284.263 8.11379C253.838 9.17628 230.034 34.7025 231.097 65.1281L234.017 148.759C235.08 179.185 260.606 202.989 291.032 201.926L549.891 192.887C580.316 191.824 604.12 166.298 603.057 135.872L600.137 52.2409C599.074 21.8153 573.548 -1.98825 543.122 -0.925761Z" fill="#FF694E" stroke="white" stroke-width="15"/>
<path d="M304.452 65.8094C312.05 65.544 317.69 66.8685 321.371 69.7827C325.049 72.6075 326.97 76.3439 327.132 80.9918C327.269 84.9248 326.123 87.9627 323.692 90.106C321.35 92.2461 317.855 93.3973 313.207 93.5596C311.956 93.6033 311.102 93.4989 310.646 93.2463C310.19 92.9938 309.949 92.51 309.924 91.7949C309.896 90.9905 309.775 90.0998 309.562 89.1228C309.435 88.0533 309.088 87.0809 308.521 86.2059C308.039 85.2382 307.252 84.4603 306.157 83.8721C305.152 83.2808 303.711 83.0179 301.834 83.0834C299.331 83.1708 297.342 83.8667 295.866 85.1712C294.387 86.3862 293.679 87.8875 293.741 89.6753C293.807 91.5523 294.62 93.0454 296.18 94.1542C297.826 95.1707 299.828 96.1299 302.187 97.032C304.634 97.931 307.262 98.8683 310.071 99.8441C312.876 100.731 315.47 101.982 317.854 103.6C320.326 105.214 322.368 107.29 323.978 109.829C325.674 112.276 326.592 115.51 326.733 119.532C326.958 125.968 324.862 131.322 320.447 135.592C316.032 139.863 309.266 142.158 300.149 142.476C297.647 142.563 294.734 142.442 291.411 142.11C288.181 141.865 285.077 141.391 282.099 140.69C279.118 139.9 276.575 138.824 274.469 137.466C272.452 136.105 271.407 134.351 271.332 132.206C271.304 131.402 271.404 130.413 271.631 129.242C271.948 128.068 272.401 126.934 272.989 125.839C273.667 124.742 274.44 123.82 275.309 123.073C276.264 122.235 277.412 121.792 278.752 121.745C279.825 121.707 280.818 121.941 281.73 122.446C282.643 122.951 283.691 123.497 284.875 124.082C286.145 124.574 287.683 125.057 289.49 125.531C291.296 126.005 293.674 126.191 296.624 126.088C298.858 126.01 300.815 125.673 302.495 125.077C304.264 124.478 305.116 123.241 305.05 121.364C304.991 119.665 304.229 118.349 302.764 117.416C301.297 116.393 299.43 115.474 297.164 114.658C294.988 113.84 292.586 112.984 289.96 112.091C287.42 111.106 285.003 109.803 282.709 108.183C280.504 106.559 278.642 104.477 277.121 101.934C275.597 99.3029 274.762 95.8866 274.615 91.6855C274.456 87.127 275.216 83.2523 276.894 80.0614C278.659 76.778 280.937 74.1031 283.729 72.0369C286.61 69.9675 289.868 68.4665 293.505 67.534C297.139 66.5123 300.788 65.9373 304.452 65.8094Z" fill="#FF694E"/>
<path d="M362.277 77.4826C362.349 79.5384 362.301 82.0011 362.132 84.8708C361.961 87.651 361.747 90.4775 361.489 93.3503C361.317 96.1305 361.141 98.7768 360.961 101.289C360.777 103.712 360.708 105.593 360.755 106.934C360.874 110.331 361.767 112.85 363.435 114.492C365.191 116.042 367.274 116.774 369.687 116.69C373.889 116.543 377.164 114.236 379.513 109.769C381.864 105.302 383.225 99.4375 383.597 92.1755L384.867 67.0285C384.923 66.0421 385.211 65.3608 385.735 64.9846C386.346 64.5157 387.009 64.2689 387.723 64.244L392.55 64.0754C394.427 64.0099 396.176 64.1278 397.797 64.4291C399.506 64.6379 401.001 65.1675 402.283 66.0176C403.563 66.7783 404.585 67.8613 405.35 69.2665C406.115 70.6716 406.536 72.4916 406.614 74.7261C406.645 75.6199 406.616 77.3214 406.524 79.8304C406.519 82.2468 406.419 85.7853 406.223 90.4457C406.114 95.0137 405.915 100.838 405.625 107.918C405.332 114.908 405.005 123.466 404.643 133.592C404.403 139.507 403.232 144.425 401.131 148.346C399.123 152.355 396.505 155.534 393.275 157.883C390.049 160.323 386.397 162.062 382.315 163.099C378.235 164.136 374.049 164.73 369.759 164.879C365.2 165.039 360.986 164.783 357.114 164.113C353.332 163.44 350.031 162.436 347.21 161.103C344.389 159.77 342.141 158.192 340.467 156.371C338.882 154.547 338.052 152.563 337.977 150.418C337.918 148.72 338.224 147.232 338.895 145.956C339.656 144.676 340.648 143.612 341.871 142.764C343.094 141.916 344.503 141.241 346.096 140.737C347.782 140.321 349.518 140.081 351.306 140.018C352.2 139.987 352.841 140.413 353.229 141.294C353.708 142.171 354.368 143.133 355.209 144.178C356.145 145.308 357.565 146.288 359.474 147.116C361.382 147.944 364.213 148.293 367.967 148.162C371.275 148.047 373.929 147.149 375.927 145.468C377.927 143.787 379.419 141.676 380.405 139.136C381.48 136.594 382.144 133.84 382.398 130.878C382.654 127.916 382.733 125.094 382.64 122.413C381.297 124.965 379.76 127.077 378.028 128.749C376.384 130.328 374.638 131.597 372.792 132.556C370.943 133.426 369.084 134.028 367.217 134.362C365.349 134.695 363.567 134.892 361.868 134.951C358.561 135.067 355.507 134.725 352.704 133.929C349.991 133.129 347.618 131.779 345.583 129.882C343.544 127.894 341.933 125.311 340.748 122.131C339.563 118.95 338.891 115.081 338.731 110.522C338.672 108.824 338.683 106.586 338.766 103.809C338.844 100.942 338.957 97.7616 339.103 94.2663C339.247 90.6816 339.381 86.8286 339.505 82.7077C339.719 78.5836 339.93 74.37 340.138 70.0671C340.22 67.29 341.423 65.8608 343.747 65.7797L348.037 65.6298C350.897 65.5299 353.231 65.7169 355.037 66.1908C356.844 66.6647 358.257 67.4208 359.277 68.4591C360.384 69.4049 361.145 70.6759 361.558 72.2723C361.97 73.7794 362.209 75.5162 362.277 77.4826Z" fill="#FF694E"/>
<path d="M465.955 123.53C465.886 121.564 465.931 119.012 466.09 115.874C466.335 112.644 466.531 109.281 466.678 105.786C466.91 102.198 467.103 98.7455 467.256 95.429C467.497 92.1094 467.58 89.3321 467.502 87.0976C467.42 84.7736 466.767 82.7381 465.543 80.991C464.405 79.1514 462.227 78.2877 459.009 78.4001C455.88 78.5094 453.316 79.3596 451.312 80.951C449.309 82.5423 447.663 85.3741 446.374 89.4463C445.174 93.5153 444.249 99.0962 443.603 106.189C442.956 113.281 442.423 122.384 442.006 133.495C441.954 134.571 441.755 135.294 441.41 135.664C441.065 136.033 440.311 136.239 439.15 136.28L434.323 136.448C431.552 136.545 429.264 136.356 427.457 135.882C425.737 135.316 424.322 134.515 423.212 133.48C422.19 132.442 421.431 131.171 420.931 129.667C420.517 128.07 420.274 126.245 420.202 124.188C420.155 122.848 420.135 120.969 420.14 118.553C420.232 116.044 420.381 112.638 420.588 108.335C420.792 103.943 421.003 98.4314 421.219 91.8013C421.521 85.0788 421.858 76.789 422.23 66.9318C422.25 64.9623 422.434 63.7923 422.779 63.4224C423.037 63.1449 423.748 62.9858 424.91 62.9452L430.139 62.7626C432.82 62.669 435.022 62.9054 436.741 63.4718C438.551 64.035 440.011 64.8342 441.121 65.8694C442.228 66.8152 443.029 67.9953 443.526 69.4098C444.02 70.7349 444.337 72.1111 444.476 73.5381C447.081 68.7039 450.141 65.3307 453.653 63.4181C457.163 61.4162 461.6 60.3216 466.963 60.1343C470.717 60.0032 473.994 60.2915 476.792 60.9992C479.591 61.7069 481.919 63.0128 483.775 64.9168C485.718 66.7283 487.191 69.1826 488.194 72.2799C489.193 75.2877 489.773 79.0709 489.933 83.6295C489.983 85.0596 489.965 87.1186 489.88 89.8063C489.794 92.4941 489.674 95.4516 489.519 98.6787C489.36 101.817 489.162 105.135 488.926 108.633C488.777 112.039 488.62 115.222 488.454 118.181C488.289 121.14 488.157 123.74 488.056 125.98C487.954 128.221 487.917 129.699 487.942 130.414C488.011 132.38 487.83 133.595 487.398 134.058C486.963 134.43 485.987 134.644 484.467 134.697L480.177 134.847C477.316 134.947 474.983 134.76 473.177 134.286C471.37 133.812 469.959 133.101 468.941 132.152C467.923 131.202 467.166 130.021 466.669 128.607C466.259 127.099 466.02 125.407 465.955 123.53Z" fill="#FF694E"/>
<path d="M566.965 120.943C566.981 121.39 566.789 122.291 566.388 123.648C565.988 125.004 565.322 126.415 564.388 127.879C563.455 129.343 562.248 130.639 560.765 131.764C559.373 132.887 557.649 133.484 555.593 133.556C553.179 133.64 550.738 132.92 548.268 131.395C545.888 129.868 543.488 127.758 541.067 125.069C538.646 122.38 536.164 119.199 533.619 115.53C531.16 111.767 528.647 107.694 526.078 103.309C525.886 108.059 525.69 112.719 525.492 117.29C525.294 121.861 525.09 126.298 524.883 130.601C524.831 131.677 524.632 132.4 524.287 132.77C523.943 133.139 523.188 133.345 522.027 133.386L517.2 133.554C514.43 133.651 512.141 133.462 510.334 132.988C508.524 132.426 507.11 131.624 506.089 130.586C505.068 129.548 504.307 128.232 503.803 126.639C503.387 124.953 503.14 123.037 503.066 120.892C503.028 119.82 503.034 118.7 503.083 117.536C503.131 116.371 503.207 114.712 503.312 112.561C503.416 110.409 503.541 107.586 503.687 104.091C503.922 100.592 504.164 95.9749 504.411 90.2387C504.659 84.5026 504.905 77.4688 505.151 69.1373C505.483 60.7135 505.798 50.5003 506.095 38.4979C506.115 36.5284 506.299 35.3584 506.643 34.9885C506.902 34.711 507.613 34.5519 508.775 34.5113L514.004 34.3287C516.774 34.232 519.064 34.4653 520.874 35.0285C522.684 35.5917 524.144 36.391 525.254 37.4261C526.364 38.4613 527.123 39.6877 527.53 41.1053C528.027 42.5198 528.302 43.9868 528.355 45.5064C528.386 46.4002 528.35 47.9229 528.246 50.0743C528.229 52.1333 528.184 54.6854 528.11 57.7307C528.034 60.6866 527.883 64.0479 527.657 67.8145C527.52 71.5779 527.389 75.5202 527.265 79.6412L548.033 59.317C548.813 58.5738 549.511 58.0573 550.127 57.7673C550.833 57.4742 551.365 57.3214 551.722 57.3089C552.705 57.2745 553.8 57.8627 555.005 59.0736C556.21 60.2844 557.335 61.7218 558.378 63.3857C559.506 64.9572 560.415 66.6257 561.103 68.3916C561.878 70.0649 562.283 71.4379 562.321 72.5105C562.411 75.1027 560.406 77.9021 556.305 80.9092C552.293 83.9131 546.148 87.3494 537.871 91.2181C541.772 95.2881 545.481 99.0067 549 102.374C552.519 105.741 555.576 108.722 558.172 111.316C560.858 113.907 562.99 116.026 564.569 117.671C566.148 119.315 566.946 120.407 566.965 120.943Z" fill="#FF694E"/>
<path fill-rule="evenodd" clip-rule="evenodd" d="M283.729 72.0368C286.61 69.9674 289.868 68.4664 293.505 67.534C297.139 66.5122 300.788 65.9373 304.452 65.8093C312.05 65.544 317.69 66.8684 321.371 69.7826C323.048 71.0705 324.36 72.5481 325.306 74.2152C326.435 76.2042 327.044 78.463 327.132 80.9917C327.145 81.3575 327.147 81.7156 327.137 82.0659C327.135 82.1555 327.132 82.2447 327.128 82.3334C327.008 85.0772 326.191 87.3353 324.676 89.1075C324.585 89.2142 324.491 89.3193 324.395 89.4226C324.372 89.4477 324.348 89.4727 324.324 89.4974C324.144 89.6873 323.954 89.8712 323.756 90.0489C323.735 90.068 323.713 90.0869 323.692 90.1059C323.177 90.5763 322.606 90.9989 321.98 91.3738C319.758 92.7044 316.834 93.4329 313.207 93.5595C312.859 93.5717 312.541 93.5724 312.254 93.5616C312.187 93.559 312.122 93.5559 312.059 93.5522C311.417 93.5141 310.945 93.4122 310.646 93.2463C310.19 92.9937 309.949 92.51 309.924 91.7948C309.896 90.9904 309.775 90.0997 309.562 89.1227C309.435 88.0532 309.088 87.0809 308.521 86.2058C308.176 85.5118 307.673 84.9155 307.012 84.4166C306.963 84.3791 306.912 84.3422 306.861 84.3059C306.742 84.2223 306.619 84.1415 306.492 84.0637C306.384 83.9977 306.272 83.9338 306.157 83.872C305.577 83.5309 304.852 83.2992 303.983 83.1766C303.677 83.1335 303.353 83.1039 303.012 83.0879C302.64 83.0704 302.248 83.0689 301.834 83.0833C299.331 83.1707 297.342 83.8666 295.866 85.1711C294.387 86.3861 293.679 87.8874 293.741 89.6752C293.795 91.2145 294.351 92.4956 295.41 93.5183C295.642 93.7427 295.899 93.9546 296.18 94.1542C296.263 94.2056 296.347 94.257 296.433 94.3081C297.258 94.8039 298.169 95.286 299.166 95.7543C299.325 95.8293 299.487 95.9038 299.651 95.9779C300.444 96.3375 301.29 96.6888 302.187 97.0319C302.232 97.0485 302.277 97.0651 302.323 97.0818C302.654 97.2035 302.989 97.3259 303.328 97.449C304.665 97.9355 306.053 98.433 307.494 98.9415C308.335 99.2387 309.194 99.5395 310.071 99.8441C311.241 100.214 312.375 100.647 313.472 101.145C315.004 101.839 316.465 102.657 317.854 103.599C319.351 104.577 320.689 105.723 321.87 107.039C322.64 107.897 323.342 108.827 323.978 109.829C324.019 109.889 324.061 109.95 324.101 110.011C324.315 110.331 324.516 110.665 324.704 111.012C325.938 113.288 326.614 116.128 326.733 119.532C326.8 121.463 326.659 123.295 326.309 125.031C325.492 129.081 323.538 132.603 320.447 135.592C316.032 139.862 309.266 142.157 300.149 142.476C297.647 142.563 294.734 142.442 291.411 142.11C288.181 141.865 285.077 141.391 282.099 140.69C279.118 139.9 276.575 138.824 274.469 137.466C272.452 136.105 271.407 134.351 271.332 132.206C271.304 131.402 271.404 130.413 271.631 129.242C271.948 128.068 272.401 126.933 272.989 125.839C273.667 124.741 274.44 123.82 275.309 123.073C275.864 122.586 276.484 122.232 277.169 122.012C277.663 121.853 278.191 121.764 278.752 121.745C279.825 121.707 280.818 121.941 281.73 122.446C282.643 122.951 283.691 123.496 284.875 124.082C284.998 124.13 285.125 124.177 285.254 124.225C285.422 124.288 285.595 124.35 285.772 124.412C286.85 124.791 288.089 125.164 289.49 125.531C290.099 125.691 290.773 125.819 291.512 125.913C291.946 125.968 292.402 126.012 292.88 126.044C292.94 126.049 293 126.052 293.061 126.056C294.137 126.123 295.325 126.133 296.624 126.088C296.657 126.086 296.691 126.085 296.724 126.084C296.904 126.076 297.081 126.069 297.257 126.057C299.23 125.943 300.976 125.615 302.495 125.077C304.264 124.478 305.116 123.24 305.05 121.363C304.991 119.665 304.229 118.349 302.764 117.416C301.774 116.726 300.603 116.083 299.249 115.487C299.188 115.461 299.127 115.434 299.066 115.408C298.467 115.149 297.833 114.899 297.164 114.658C296.851 114.541 296.534 114.422 296.212 114.303C295.516 114.045 294.797 113.784 294.057 113.519C293.632 113.367 293.2 113.214 292.761 113.059C292.085 112.821 291.391 112.58 290.68 112.337C290.442 112.255 290.202 112.173 289.96 112.091C289.834 112.042 289.708 111.992 289.583 111.942C289.029 111.719 288.481 111.481 287.939 111.228C286.13 110.383 284.386 109.368 282.709 108.183C282.326 107.901 281.954 107.606 281.593 107.297C279.868 105.823 278.378 104.036 277.121 101.934C275.597 99.3028 274.762 95.8865 274.615 91.6855C274.456 87.1269 275.216 83.2522 276.894 80.0613C278.659 76.7779 280.937 74.1031 283.729 72.0368ZM266.077 111.744C265.552 110.994 265.054 110.224 264.582 109.435L264.529 109.346L264.477 109.256C261.38 103.908 260.213 97.9241 260.013 92.1954C259.788 85.7582 260.826 79.2225 263.963 73.2593L263.993 73.2015L264.024 73.1441C266.732 68.1051 270.388 63.7327 275.036 60.2927L275.12 60.2306L275.204 60.1697C279.598 57.0136 284.479 54.7852 289.708 53.424C294.38 52.123 299.132 51.3749 303.942 51.207C312.711 50.9008 322.177 52.1905 329.707 57.7651C329.778 57.6774 329.85 57.5901 329.923 57.5029C333.815 52.8801 339.032 51.324 343.237 51.1772L347.527 51.0274C351.137 50.9013 355.037 51.085 358.744 52.0576C362.227 52.9711 366.02 54.6767 369.246 57.7696C370.115 58.5573 370.895 59.3953 371.593 60.2719C372.559 57.8827 374.208 55.3415 377.005 53.2685C379.809 51.1646 383.301 49.7781 387.213 49.6415L392.04 49.4729C394.699 49.3801 397.382 49.5267 400.046 49.988C403.473 50.4684 406.901 51.6182 410.062 53.6474C410.471 53.8993 410.869 54.1622 411.255 54.4355C411.511 54.1102 411.789 53.7828 412.093 53.4575C415.366 49.9469 419.316 49.0601 420.313 48.8368C421.911 48.479 423.382 48.3785 424.4 48.3429L429.629 48.1603C433.246 48.034 437.284 48.2895 441.191 49.5545C442.604 50 444.041 50.5654 445.456 51.2807C445.81 51.0663 446.171 50.8582 446.537 50.6567C452.634 47.2118 459.517 45.7742 466.453 45.532C471.195 45.3664 475.906 45.7043 480.374 46.8338C484.245 47.8125 487.891 49.4955 491.115 51.952C491.241 47.6808 491.365 43.1071 491.485 38.23C491.502 36.9587 491.571 35.4256 491.812 33.8863C491.936 33.0935 492.158 31.9502 492.593 30.677C492.967 29.5871 493.875 27.2578 495.958 25.0234L506.643 34.9883C506.299 35.3582 506.115 36.5281 506.095 38.4977C505.798 50.5001 505.483 60.7133 505.151 69.1371C504.957 75.7256 504.762 81.5026 504.567 86.468C504.514 87.7817 504.464 89.0385 504.411 90.2385C504.412 90.2478 504.411 90.2571 504.41 90.2666C504.263 93.7059 504.116 96.7425 503.972 99.3764C503.971 99.3877 503.97 99.3992 503.97 99.4105C503.875 101.146 503.781 102.706 503.687 104.09C503.606 106.023 503.532 107.75 503.464 109.271C503.459 109.386 503.453 109.5 503.449 109.612C503.4 110.705 503.354 111.688 503.312 112.561C503.207 114.712 503.131 116.37 503.083 117.535C503.062 118.023 503.05 118.5 503.044 118.971C503.037 119.626 503.044 120.267 503.066 120.892C503.14 123.037 503.387 124.953 503.803 126.639C504.307 128.232 505.068 129.548 506.089 130.586C507.11 131.624 508.524 132.425 510.334 132.988C512.141 133.462 514.43 133.651 517.2 133.554L522.027 133.385C523.188 133.345 523.943 133.139 524.287 132.769C524.632 132.4 524.831 131.677 524.883 130.601C524.917 129.906 524.95 129.207 524.984 128.504C525.095 126.138 525.207 123.733 525.316 121.286C525.321 121.173 525.326 121.058 525.331 120.945C525.385 119.737 525.439 118.517 525.492 117.29C525.69 112.719 525.886 108.058 526.078 103.309C528.647 107.694 531.16 111.767 533.619 115.529C534.137 116.277 534.653 117.003 535.165 117.71C536.746 119.887 538.302 121.872 539.835 123.663C540.248 124.146 540.658 124.614 541.067 125.069C543.488 127.758 545.888 129.867 548.268 131.395C550.738 132.92 553.179 133.64 555.593 133.556C557.649 133.484 559.373 132.887 560.765 131.764C562.248 130.638 563.455 129.343 564.388 127.879C565.322 126.415 565.988 125.004 566.388 123.648C566.789 122.291 566.981 121.39 566.965 120.943C566.946 120.406 566.148 119.315 564.569 117.67C562.99 116.026 560.858 113.907 558.172 111.316C555.576 108.722 552.519 105.741 549 102.374C548.931 102.308 548.864 102.243 548.795 102.177C545.338 98.8619 541.696 95.2088 537.871 91.2179C543.292 88.6845 547.798 86.3365 551.388 84.174C553.281 83.0341 554.92 81.9458 556.305 80.909C560.406 77.9019 562.411 75.1025 562.321 72.5103C562.283 71.4377 561.878 70.0647 561.103 68.3914C560.415 66.6255 559.506 64.9569 558.377 63.3855C557.335 61.7216 556.21 60.2842 555.005 59.0734C553.8 57.8625 552.705 57.2743 551.722 57.3087C551.365 57.3211 550.833 57.474 550.127 57.7671C549.511 58.0571 548.813 58.5736 548.033 59.3168L527.265 79.641C527.295 78.6145 527.328 77.599 527.359 76.5947C527.455 73.5671 527.554 70.6403 527.657 67.8143C527.868 64.3239 528.012 61.1816 528.092 58.3874C528.099 58.1663 528.105 57.9473 528.11 57.7305C528.184 54.6852 528.229 52.1331 528.246 50.0741C528.35 47.9227 528.386 46.4 528.355 45.5062C528.302 43.9866 528.027 42.5196 527.53 41.1051C527.123 39.6875 526.364 38.461 525.254 37.4259C524.144 36.3908 522.684 35.5915 520.874 35.0283L525.217 21.0774C528.614 22.1347 532.154 23.8833 535.218 26.7399C538.098 29.425 540.251 32.776 541.442 36.6306C542.356 39.3453 542.858 42.1496 542.957 44.9963C542.957 45.006 542.958 45.0158 542.958 45.0256C543.265 44.8598 543.581 44.6995 543.906 44.5463L544.211 44.4029L544.523 44.2736C545.431 43.8962 548.042 42.8171 551.212 42.7064C558.4 42.4554 563.269 46.6654 565.359 48.7635C567.33 50.7427 569.036 52.9333 570.518 55.2464C572.136 57.559 573.487 60.0345 574.549 62.6604C575.598 64.9964 576.793 68.2836 576.923 72.0004C577.29 82.5041 569.521 89.3264 565.003 92.649C564.092 93.3293 563.121 94.0105 562.092 94.6929C564.414 96.9372 566.519 99.0035 568.409 100.889C571.116 103.502 573.367 105.736 575.111 107.554C576.089 108.573 577.189 109.789 578.14 111.09C578.613 111.735 579.265 112.692 579.861 113.877C580.338 114.827 581.455 117.215 581.567 120.433C581.641 122.542 581.263 124.343 581.122 125C580.919 125.955 580.659 126.912 580.403 127.782C579.539 130.71 578.219 133.365 576.711 135.732C574.818 138.699 572.45 141.211 569.754 143.285C565.581 146.578 560.757 147.995 556.102 148.158C550.268 148.362 545.014 146.558 540.592 143.828L540.483 143.76L540.376 143.691C539.029 142.826 537.729 141.878 536.475 140.858C536.048 141.482 535.552 142.114 534.973 142.734C532.199 145.71 528.991 146.839 527.304 147.299C525.452 147.803 523.754 147.945 522.537 147.988L517.71 148.156C514.136 148.281 510.3 148.085 506.626 147.121L506.307 147.038L505.991 146.939C503.593 146.193 501.046 145.068 498.658 143.372C498.475 143.59 498.285 143.808 498.084 144.022L497.532 144.614L496.919 145.142C493.961 147.682 490.782 148.482 489.454 148.773C487.789 149.136 486.212 149.256 484.977 149.299L480.687 149.449C477.076 149.575 473.176 149.391 469.469 148.419C466.091 147.533 462.264 145.903 458.976 142.837C457.756 141.7 456.693 140.461 455.782 139.148C455.283 140.801 454.267 143.3 452.096 145.628C449.321 148.604 446.112 149.733 444.427 150.193C442.574 150.698 440.875 150.839 439.659 150.882L434.833 151.05C431.259 151.175 427.423 150.979 423.749 150.015L423.314 149.901L422.887 149.761C420.987 149.135 419.08 148.296 417.251 147.188C416.469 149.915 415.435 152.553 414.107 155.064C411.21 160.788 407.215 165.78 401.984 169.617C397.167 173.237 391.763 175.772 385.916 177.259C380.804 178.558 375.583 179.296 370.269 179.482C364.862 179.67 359.627 179.376 354.622 178.51L354.587 178.503L354.554 178.498C349.778 177.648 345.19 176.309 340.966 174.313C336.869 172.376 332.947 169.78 329.712 166.262L329.573 166.11L329.438 165.955C326.049 162.056 323.716 157.125 323.397 151.428C316.581 155.23 308.65 156.799 300.659 157.078C297.378 157.193 293.842 157.03 290.13 156.666C286.249 156.363 282.451 155.784 278.749 154.911L278.55 154.865L278.352 154.812C274.22 153.716 270.197 152.098 266.549 149.744L266.42 149.661L266.293 149.575C260.997 146 256.991 140.207 256.73 132.716C256.649 130.415 256.94 128.246 257.288 126.456L257.388 125.941L257.525 125.435C258.139 123.157 259.012 120.981 260.119 118.922L260.326 118.536L260.556 118.163C261.913 115.965 263.616 113.867 265.733 112.037C265.847 111.938 265.962 111.84 266.077 111.744ZM340.245 144.161C339.734 144.702 339.284 145.3 338.895 145.955C338.224 147.232 337.918 148.72 337.977 150.417C338.052 152.563 338.882 154.547 340.467 156.371C342.141 158.192 344.389 159.77 347.21 161.103C350.031 162.436 353.332 163.439 357.114 164.113C360.986 164.783 365.2 165.038 369.759 164.879C374.049 164.729 378.235 164.135 382.315 163.098C386.397 162.061 390.049 160.323 393.275 157.883C396.505 155.533 399.123 152.355 401.131 148.346C403.232 144.425 404.402 139.506 404.643 133.592C405.005 123.466 405.332 114.908 405.625 107.918C405.915 100.838 406.114 95.0135 406.223 90.4456C406.419 85.7852 406.519 82.2467 406.524 79.8302C406.616 77.3212 406.645 75.6197 406.614 74.726C406.536 72.4914 406.115 70.6714 405.349 69.2663C404.585 67.8612 403.563 66.7782 402.283 66.0174C401.001 65.1673 399.506 64.6378 397.797 64.4289C396.176 64.1276 394.427 64.0097 392.55 64.0752L387.723 64.2438C387.009 64.2687 386.346 64.5156 385.735 64.9844C385.211 65.3606 384.923 66.0419 384.867 67.0283L383.597 92.1754C383.225 99.4373 381.864 105.302 379.513 109.769C377.494 113.61 374.79 115.853 371.4 116.501C370.848 116.606 370.276 116.669 369.687 116.69C369.485 116.697 369.285 116.698 369.086 116.694C366.926 116.645 365.043 115.911 363.435 114.492C361.767 112.85 360.874 110.331 360.755 106.934C360.708 105.593 360.777 103.711 360.961 101.289C361.141 98.7766 361.317 96.1304 361.489 93.3501C361.747 90.4773 361.961 87.6508 362.132 84.8706C362.301 82.0009 362.349 79.5382 362.277 77.4824C362.208 75.516 361.97 73.7792 361.558 72.2722C361.145 70.6757 360.384 69.4047 359.277 68.4589C358.257 67.4206 356.843 66.6645 355.037 66.1907C353.231 65.7168 350.897 65.5298 348.037 65.6297L343.747 65.7795C341.423 65.8606 340.22 67.2898 340.138 70.0669C340.114 70.5491 340.091 71.0303 340.068 71.5104C339.919 74.5712 339.768 77.5863 339.616 80.5558C339.579 81.2757 339.542 81.993 339.505 82.7075C339.39 86.5368 339.266 90.1345 339.134 93.5007C339.124 93.7571 339.114 94.0123 339.103 94.2661C338.957 97.7614 338.844 100.942 338.766 103.809C338.738 104.749 338.718 105.627 338.707 106.443C338.684 108.039 338.692 109.399 338.731 110.522C338.843 113.71 339.205 116.561 339.818 119.075C340.082 120.156 340.391 121.174 340.748 122.13C340.908 122.559 341.076 122.979 341.251 123.386C341.731 124.5 342.269 125.534 342.865 126.486C343.666 127.765 344.572 128.896 345.583 129.882C347.199 131.39 349.03 132.551 351.073 133.365C351.603 133.576 352.146 133.765 352.704 133.929C355.507 134.725 358.561 135.067 361.868 134.951C362.837 134.917 363.832 134.839 364.857 134.715C365.054 134.692 365.252 134.667 365.452 134.64C365.693 134.607 365.935 134.572 366.178 134.535C366.182 134.533 366.186 134.533 366.189 134.533C366.198 134.531 366.208 134.53 366.218 134.528C366.368 134.505 366.52 134.48 366.672 134.455C366.853 134.426 367.034 134.394 367.217 134.362C367.306 134.345 367.395 134.329 367.483 134.312C367.59 134.291 367.696 134.27 367.802 134.248C368.027 134.202 368.251 134.15 368.475 134.096C369.92 133.743 371.359 133.231 372.792 132.556C373.944 131.958 375.057 131.238 376.129 130.399C376.153 130.381 376.175 130.363 376.198 130.345C376.822 129.854 377.432 129.321 378.028 128.749C379.76 127.077 381.297 124.965 382.64 122.413C382.697 124.064 382.689 125.77 382.615 127.528C382.568 128.625 382.497 129.741 382.398 130.878C382.337 131.601 382.25 132.309 382.139 133.007C382.138 133.015 382.137 133.022 382.136 133.028C381.792 135.183 381.215 137.219 380.405 139.136C379.847 140.575 379.126 141.878 378.242 143.041C378.136 143.179 378.028 143.316 377.918 143.451C377.323 144.18 376.66 144.853 375.927 145.468C374.281 146.852 372.192 147.705 369.658 148.027C369.116 148.097 368.551 148.142 367.967 148.162C365.769 148.239 363.886 148.15 362.32 147.898C361.213 147.72 360.264 147.459 359.474 147.116C357.565 146.288 356.145 145.308 355.209 144.178C354.368 143.133 353.708 142.171 353.229 141.293C352.841 140.413 352.2 139.987 351.306 140.018C351.193 140.022 351.08 140.027 350.968 140.033C350.946 140.033 350.925 140.034 350.903 140.035C349.257 140.118 347.655 140.352 346.096 140.737C344.503 141.241 343.094 141.916 341.871 142.764C341.274 143.178 340.732 143.644 340.245 144.161ZM422.23 66.9317C422.25 64.9622 422.434 63.7923 422.779 63.4223C423.037 63.1448 423.748 62.9858 424.91 62.9452L430.139 62.7626C431.491 62.7154 432.721 62.752 433.828 62.8727C434.918 62.9912 435.889 63.191 436.741 63.4717C438.551 64.0349 440.011 64.8342 441.121 65.8693C442.045 66.6598 442.758 67.614 443.257 68.7319C443.355 68.9515 443.445 69.1775 443.526 69.4098C443.85 70.2804 444.098 71.1729 444.27 72.0876C444.36 72.5651 444.428 73.0486 444.476 73.538C444.604 73.3001 444.733 73.0658 444.863 72.835C445.982 70.855 447.182 69.1352 448.463 67.6758C448.509 67.6232 448.555 67.5708 448.601 67.5187C449.511 66.5001 450.462 65.6116 451.452 64.8533C452.164 64.3074 452.898 63.8291 453.653 63.4181C454.486 62.9434 455.37 62.5196 456.307 62.1469C459.32 60.9481 462.871 60.2772 466.963 60.1343C470.717 60.0032 473.994 60.2915 476.792 60.9992C479.591 61.7069 481.919 63.0128 483.775 64.9167C485.718 66.7283 487.191 69.1826 488.194 72.2798C489.193 75.2876 489.773 79.0709 489.933 83.6294C489.957 84.315 489.964 85.145 489.957 86.1193C489.95 87.1288 489.927 88.2931 489.886 89.6127C489.883 89.6768 489.882 89.7414 489.88 89.8063C489.794 92.4941 489.674 95.4515 489.519 98.6787C489.445 100.121 489.364 101.601 489.275 103.119C489.267 103.241 489.261 103.363 489.253 103.486C489.155 105.156 489.046 106.872 488.926 108.633C488.878 109.732 488.83 110.807 488.779 111.859C488.696 113.612 488.61 115.301 488.524 116.926C488.5 117.348 488.477 117.766 488.454 118.181C488.45 118.274 488.444 118.367 488.439 118.459C488.28 121.303 488.153 123.811 488.056 125.98C487.954 128.221 487.917 129.699 487.942 130.414C488.011 132.38 487.83 133.595 487.398 134.058C486.963 134.43 485.987 134.644 484.467 134.697L480.177 134.847C477.316 134.947 474.983 134.76 473.177 134.286C471.37 133.812 469.959 133.101 468.941 132.152C467.923 131.202 467.166 130.021 466.669 128.607C466.259 127.099 466.02 125.407 465.955 123.53C465.886 121.564 465.931 119.012 466.09 115.874C466.335 112.644 466.531 109.281 466.678 105.786C466.91 102.198 467.103 98.7455 467.256 95.429C467.497 92.1093 467.58 89.3321 467.502 87.0975C467.42 84.7735 466.767 82.7381 465.543 80.9909C464.405 79.1513 462.227 78.2877 459.009 78.4001C458.867 78.405 458.725 78.4116 458.585 78.4197C457.21 78.4986 455.946 78.7257 454.797 79.1006C453.49 79.5266 452.329 80.1434 451.312 80.9509C449.309 82.5423 447.663 85.374 446.374 89.4462C445.189 93.4612 444.275 98.9479 443.629 105.906C443.62 106 443.611 106.094 443.602 106.189C442.956 113.281 442.423 122.384 442.006 133.495C441.954 134.571 441.755 135.294 441.41 135.664C441.065 136.033 440.311 136.239 439.149 136.279L434.323 136.448C431.552 136.545 429.264 136.356 427.457 135.882C425.737 135.316 424.322 134.515 423.211 133.48C422.19 132.442 421.431 131.171 420.93 129.667C420.517 128.07 420.274 126.245 420.202 124.188C420.155 122.848 420.135 120.969 420.14 118.553C420.231 116.044 420.381 112.638 420.588 108.335C420.792 103.942 421.003 98.4313 421.219 91.8013C421.521 85.0788 421.858 76.789 422.23 66.9317ZM520.874 35.0283L525.217 21.0774C521.292 19.8557 517.217 19.5962 513.494 19.7262L508.265 19.9088C507.246 19.9444 505.776 20.0449 504.178 20.4027C503.181 20.626 499.231 21.5129 495.958 25.0234L506.643 34.9883C506.902 34.7108 507.613 34.5517 508.775 34.5111L514.004 34.3285C516.774 34.2318 519.064 34.4651 520.874 35.0283Z" fill="white"/>
</g>
<path d="M1468.08 133.738L1466.53 134.569L1465.84 136.194C1460.42 148.942 1451.95 160.614 1440.53 170.047C1402.55 201.419 1346.4 196.012 1315.1 157.97C1283.8 119.921 1289.22 63.6366 1327.21 32.2596C1365.19 0.887545 1421.34 6.29447 1452.64 44.3368C1461.93 55.6363 1467.98 68.5319 1470.91 81.9039L1471.29 83.6185L1472.65 84.7222L1507.35 112.79L1468.08 133.738Z" fill="white" stroke="black" stroke-width="10"/>
<path d="M1394.55 51.2334L1394.05 60.6705L1380.97 59.9849L1381.47 50.5478L1394.55 51.2334ZM1397.38 64.0492L1398.21 48.2709L1378.19 47.2216L1377.17 66.595L1380.62 66.7755L1380.8 63.1805L1397.38 64.0492ZM1401.3 39.9712L1376.13 38.6523L1375.96 41.8978L1401.13 43.2167L1401.3 39.9712ZM1409.59 31.644L1368.65 29.4982L1366.39 72.639L1369.98 72.8274L1372.06 33.2318L1405.76 34.9981L1403.94 69.8003C1403.9 70.5992 1403.58 70.8831 1402.68 70.886C1401.83 70.8914 1398.93 70.7396 1395.79 70.4749C1396.34 71.5049 1396.85 73.1342 1396.95 74.1906C1401.24 74.4156 1403.75 74.4466 1405.32 73.9285C1406.86 73.3579 1407.46 72.2882 1407.58 69.9914L1409.59 31.644ZM1370.64 102.352L1379.68 102.826L1379.42 107.819L1370.38 107.345L1370.64 102.352ZM1380.48 87.5468L1380.25 91.9408L1371.21 91.4671L1371.44 87.0732L1380.48 87.5468ZM1371.05 94.463L1380.09 94.9367L1379.83 99.83L1370.8 99.3563L1371.05 94.463ZM1386.51 108.191L1382.86 108L1383.92 87.7274L1387.57 87.9184L1387.74 84.573L1384.1 84.382L1384.41 78.3902L1380.97 78.2096L1380.65 84.2014L1371.62 83.7278L1371.93 77.736L1368.53 77.558L1368.22 83.5498L1364.03 83.33L1363.85 86.6754L1368.04 86.8952L1366.98 107.167L1362.14 106.914L1361.96 110.259L1386.33 111.536L1386.51 108.191ZM1368.8 111.669C1367.13 114.886 1364.36 118.095 1361.49 120.198C1362.37 120.744 1363.71 121.866 1364.38 122.502C1367.25 120.199 1370.3 116.554 1372.29 112.803L1368.8 111.669ZM1375.81 113.588C1377.68 116.04 1379.76 119.403 1380.55 121.447L1383.64 119.857C1382.8 117.76 1380.67 114.544 1378.79 112.192L1375.81 113.588ZM1392.6 103.753C1392.74 102.058 1392.87 100.363 1392.96 98.8153L1393.13 95.4699L1403.32 96.0037L1402.88 104.292L1392.6 103.753ZM1403.91 84.7192L1403.49 92.6583L1393.31 92.1245L1393.72 84.1853L1403.91 84.7192ZM1407.68 81.5122L1390.4 80.6068L1389.46 98.6321C1389.09 105.772 1388.19 115.238 1383.7 121.612C1384.53 121.956 1385.97 123.183 1386.53 123.914C1389.78 119.277 1391.36 113.001 1392.17 107.086L1402.71 107.638L1402.08 119.621C1402.04 120.42 1401.72 120.654 1400.98 120.615C1400.27 120.628 1397.78 120.497 1395.13 120.309C1395.53 121.281 1396 122.908 1396.09 123.964C1399.79 124.158 1402.09 124.178 1403.57 123.655C1404.95 123.126 1405.56 122.057 1405.67 119.86L1407.68 81.5122ZM1395.46 164.737L1395.2 169.58L1371.79 168.353L1372.04 163.509L1395.46 164.737ZM1392.96 151.188L1392.74 155.432L1372.52 154.372L1372.74 150.128L1392.96 151.188ZM1372.37 157.218L1396.24 158.469L1396.76 148.532L1369.4 147.098L1368.05 172.763L1371.55 172.946L1371.64 171.249L1395.05 172.476L1394.97 174.074L1398.61 174.265L1399.26 162.032L1372.19 160.613L1372.37 157.218ZM1406.44 132.818L1389.52 131.931C1390.17 130.964 1390.73 129.891 1391.23 128.866L1387.73 127.832C1386.6 130.276 1384.93 132.541 1382.97 134.492L1383.13 131.596L1370.04 130.91C1370.65 129.94 1371.2 128.918 1371.65 127.89L1368.26 126.811C1366.55 130.627 1363.65 134.38 1360.52 136.82C1361.4 137.316 1362.79 138.391 1363.46 138.977C1364.99 137.605 1366.58 135.886 1368.03 133.909L1370.18 134.022C1371.04 135.819 1371.93 137.869 1372.26 139.238L1375.61 138.412C1375.32 137.295 1374.65 135.708 1373.88 134.215L1382.76 134.681C1381.76 135.68 1380.66 136.524 1379.52 137.265C1380.06 137.543 1380.84 138.035 1381.51 138.521L1381.35 141.666L1362.52 140.68L1362.03 150.017L1365.53 150.2L1365.86 143.809L1400.57 145.628L1400.23 152.019L1403.83 152.207L1404.32 142.87L1384.89 141.852L1385.1 137.958L1384.35 137.918C1385.35 137.019 1386.35 136.021 1387.31 134.919L1391.3 135.129C1392.61 136.949 1393.9 139.07 1394.37 140.547L1397.83 139.576C1397.34 138.399 1396.37 136.796 1395.35 135.34L1406.28 135.914L1406.44 132.818Z" fill="black"/>
</g>
<defs>
<linearGradient id="paint0_linear" x1="794.96" y1="-1.82236e-05" x2="938.763" y2="205.449" gradientUnits="userSpaceOnUse">
<stop stop-color="#FF694E"/>
<stop offset="1" stop-color="#F55F44"/>
</linearGradient>
<linearGradient id="paint1_linear" x1="794.96" y1="-1.82236e-05" x2="938.763" y2="205.449" gradientUnits="userSpaceOnUse">
<stop stop-color="#FF694E"/>
<stop offset="1" stop-color="#F55F44"/>
</linearGradient>
<clipPath id="clip0">
<rect x="1528.4" y="20.9036" width="153.795" height="153.795" transform="rotate(5 1528.4 20.9036)" fill="white"/>
</clipPath>
<clipPath id="clip1">
<rect x="212" y="-5.97656" width="402.472" height="227.138" transform="rotate(-2 212 -5.97656)" fill="white"/>
</clipPath>
</defs>
</svg>
