<svg width="292" height="310" viewBox="0 0 292 310" fill="none" xmlns="http://www.w3.org/2000/svg">
<rect x="42.2939" width="208" height="206" rx="20" fill="#F25F69"/>
<path d="M193.825 72.2499H168.641L170.96 67.3324C171.416 66.3649 171.346 65.2299 170.773 64.3261C170.199 63.4224 169.203 62.8749 168.133 62.8749H159.294C158.224 62.8749 157.228 63.4224 156.655 64.3261C156.083 65.2299 156.011 66.3636 156.468 67.3324L158.785 72.2499H149.903C149.71 52.5649 147.643 48.2899 143.976 47.5424C141.496 47.0374 139.144 48.8086 137.669 52.2761C136.995 53.8599 137.731 55.6849 139.313 56.3649C140.431 56.8474 141.679 56.6211 142.554 55.8874C143.038 58.4511 143.553 63.2774 143.651 72.2499H134.803L137.121 67.3324C137.578 66.3649 137.508 65.2299 136.934 64.3261C136.36 63.4224 135.364 62.8749 134.294 62.8749H125.455C124.385 62.8749 123.389 63.4224 122.816 64.3261C122.244 65.2299 122.173 66.3636 122.629 67.3324L124.946 72.2499H99.7627C94.6802 72.2499 90.5439 76.3861 90.5439 81.4686C90.5439 85.5524 93.2152 89.0186 96.9002 90.2261C98.0989 104.637 110.203 116 124.919 116H137.419V122.257C134.806 120.291 131.559 119.125 128.044 119.125C119.428 119.125 112.419 126.134 112.419 134.75V156.625C112.419 158.351 113.818 159.75 115.544 159.75H128.044C129.77 159.75 131.169 158.351 131.169 156.625V147.242C133.781 149.209 137.029 150.375 140.544 150.375C149.16 150.375 156.169 143.366 156.169 134.75V116H168.669C183.385 116 195.489 104.637 196.688 90.2261C200.373 89.0186 203.044 85.5524 203.044 81.4686C203.044 76.3861 198.908 72.2499 193.825 72.2499ZM149.919 134.75C149.919 139.92 145.714 144.125 140.544 144.125C135.374 144.125 131.169 139.92 131.169 134.75C131.169 133.024 129.77 131.625 128.044 131.625C126.318 131.625 124.919 133.024 124.919 134.75V153.5H118.669V134.75C118.669 129.58 122.874 125.375 128.044 125.375C133.214 125.375 137.419 129.58 137.419 134.75C137.419 136.476 138.818 137.875 140.544 137.875C142.27 137.875 143.669 136.476 143.669 134.75V116H149.919V134.75ZM193.825 84.4374H99.7627C98.1252 84.4374 96.7939 83.1061 96.7939 81.4686C96.7939 79.8311 98.1252 78.4999 99.7627 78.4999H193.825C195.463 78.4999 196.794 79.8311 196.794 81.4686C196.794 83.1061 195.463 84.4374 193.825 84.4374Z" fill="white"/>
<path d="M14.268 289.964V283.322C14.268 282.338 14.104 281.709 13.776 281.436C13.448 281.108 12.792 280.944 11.808 280.944H7.626C2.542 280.944 0 278.539 0 273.728V265.282C0 260.417 2.542 257.984 7.626 257.984H13.612C18.7507 257.984 21.32 260.417 21.32 265.282V269.136H14.104V266.02C14.104 265.036 13.94 264.407 13.612 264.134C13.284 263.806 12.628 263.642 11.644 263.642H9.676C8.692 263.642 8.036 263.806 7.708 264.134C7.38 264.407 7.216 265.036 7.216 266.02V272.908C7.216 273.892 7.38 274.548 7.708 274.876C8.036 275.149 8.692 275.286 9.676 275.286H13.94C18.9693 275.286 21.484 277.719 21.484 282.584V290.784C21.484 295.595 18.942 298 13.858 298H7.79C2.706 298 0.164 295.595 0.164 290.784V286.848H7.38V289.964C7.38 290.948 7.544 291.604 7.872 291.932C8.2 292.205 8.856 292.342 9.84 292.342H11.808C12.792 292.342 13.448 292.205 13.776 291.932C14.104 291.604 14.268 290.948 14.268 289.964Z" fill="white"/>
<path d="M33.7122 309.316H28.7923V303.412H32.1542C34.5049 303.412 35.9262 302.51 36.4182 300.706L37.2383 297.344H33.2202L24.8563 257.984H32.4002L38.4683 291.522L44.1263 257.984H51.5882L43.1423 301.854C41.9396 306.829 38.7962 309.316 33.7122 309.316Z" fill="white"/>
<path d="M68.2996 257.984H71.1696C76.1443 257.984 78.6316 260.417 78.6316 265.282V298H71.2516V266.348C71.2516 265.364 71.0876 264.735 70.7596 264.462C70.4316 264.134 69.7756 263.97 68.7916 263.97H65.9216C64.9376 263.97 64.2269 264.189 63.7896 264.626C63.4069 265.063 63.2156 265.801 63.2156 266.84V298H55.8356V257.984H63.2156V261.182C63.9263 259.05 65.6209 257.984 68.2996 257.984Z" fill="white"/>
<path d="M111.205 257.984L102.021 277.09L111.205 298H103.333L94.4768 277.09L103.333 257.984H111.205ZM85.7848 298V243.142H93.1648V298H85.7848Z" fill="white"/>
<path d="M130.017 243.142H137.397V298H130.017V294.802C129.307 296.934 127.612 298 124.933 298H121.981C117.061 298 114.601 295.595 114.601 290.784V265.2C114.601 260.335 117.061 257.902 121.981 257.902H124.933C127.612 257.902 129.307 258.968 130.017 261.1V243.142ZM124.441 292.014H127.311C128.295 292.014 128.979 291.795 129.361 291.358C129.799 290.921 130.017 290.183 130.017 289.144V266.758C130.017 265.719 129.799 264.981 129.361 264.544C128.979 264.107 128.295 263.888 127.311 263.888H124.441C123.457 263.888 122.801 264.052 122.473 264.38C122.145 264.708 121.981 265.337 121.981 266.266V289.636C121.981 290.62 122.145 291.276 122.473 291.604C122.801 291.877 123.457 292.014 124.441 292.014Z" fill="white"/>
<path d="M151.776 257.984H160.55C165.634 257.984 168.176 260.417 168.176 265.282V290.784C168.176 295.595 165.634 298 160.55 298H151.776C146.747 298 144.232 295.595 144.232 290.784V265.282C144.232 260.417 146.747 257.984 151.776 257.984ZM160.878 289.718V266.266C160.878 265.282 160.714 264.626 160.386 264.298C160.058 263.97 159.402 263.806 158.418 263.806H153.908C152.924 263.806 152.268 263.97 151.94 264.298C151.667 264.626 151.53 265.282 151.53 266.266V289.718C151.53 290.702 151.667 291.358 151.94 291.686C152.268 292.014 152.924 292.178 153.908 292.178H158.418C159.402 292.178 160.058 292.014 160.386 291.686C160.714 291.358 160.878 290.702 160.878 289.718Z" fill="white"/>
<path d="M188.522 263.97H183.028V289.308C183.028 290.292 183.165 290.948 183.438 291.276C183.766 291.549 184.422 291.686 185.406 291.686H188.522V298H183.274C178.135 298 175.566 295.595 175.566 290.784V263.97H171.794V257.984H175.566V251.178H183.028V257.984H188.522V263.97Z" fill="white"/>
<path d="M220.809 257.984H223.679C228.599 257.984 231.059 260.417 231.059 265.282V298H223.679V266.348C223.679 265.364 223.515 264.735 223.187 264.462C222.914 264.134 222.285 263.97 221.301 263.97H218.349C216.6 263.97 215.725 264.927 215.725 266.84V298H208.345V266.348C208.345 265.364 208.181 264.735 207.853 264.462C207.525 264.134 206.869 263.97 205.885 263.97H203.015C202.031 263.97 201.321 264.189 200.883 264.626C200.501 265.063 200.309 265.801 200.309 266.84V298H192.929V257.984H200.309V261.182C201.02 259.05 202.715 257.984 205.393 257.984H208.263C211.762 257.984 214.031 259.214 215.069 261.674C215.725 259.214 217.639 257.984 220.809 257.984Z" fill="white"/>
<path d="M244.987 257.984H253.761C258.845 257.984 261.387 260.417 261.387 265.282V290.784C261.387 295.595 258.845 298 253.761 298H244.987C239.958 298 237.443 295.595 237.443 290.784V265.282C237.443 260.417 239.958 257.984 244.987 257.984ZM254.089 289.718V266.266C254.089 265.282 253.925 264.626 253.597 264.298C253.269 263.97 252.613 263.806 251.629 263.806H247.119C246.135 263.806 245.479 263.97 245.151 264.298C244.878 264.626 244.741 265.282 244.741 266.266V289.718C244.741 290.702 244.878 291.358 245.151 291.686C245.479 292.014 246.135 292.178 247.119 292.178H251.629C252.613 292.178 253.269 292.014 253.597 291.686C253.925 291.358 254.089 290.702 254.089 289.718Z" fill="white"/>
<path d="M275.665 257.984H283.701C288.839 257.984 291.409 260.417 291.409 265.282V280.288H275.255V289.8C275.255 290.729 275.419 291.358 275.747 291.686C276.075 292.014 276.731 292.178 277.715 292.178H281.487C282.471 292.178 283.127 292.014 283.455 291.686C283.783 291.358 283.947 290.702 283.947 289.718V286.438H291.163V290.784C291.163 295.595 288.621 298 283.537 298H275.665C270.581 298 268.039 295.595 268.039 290.784V265.282C268.039 260.417 270.581 257.984 275.665 257.984ZM275.255 274.876H284.111V266.184C284.111 265.255 283.947 264.626 283.619 264.298C283.345 263.97 282.717 263.806 281.733 263.806H277.715C276.731 263.806 276.075 263.97 275.747 264.298C275.419 264.626 275.255 265.255 275.255 266.184V274.876Z" fill="white"/>
</svg>
