<svg width="303" height="171" viewBox="0 0 303 171" fill="none" xmlns="http://www.w3.org/2000/svg">
<rect x="10" y="10" width="283" height="151" rx="44" fill="#FF694E" stroke="#FF694E" stroke-width="20"/>
<rect x="12.5" y="12.5" width="278" height="146" rx="41.5" fill="#FF694E" stroke="white" stroke-width="15"/>
<path d="M67.674 56.44C73.3973 56.44 77.6057 57.5847 80.299 59.874C82.9923 62.096 84.339 64.9577 84.339 68.459C84.339 71.4217 83.3963 73.6773 81.511 75.226C79.693 76.7747 77.0333 77.549 73.532 77.549C72.5893 77.549 71.9497 77.448 71.613 77.246C71.2763 77.044 71.108 76.6737 71.108 76.135C71.108 75.529 71.0407 74.8557 70.906 74.115C70.8387 73.307 70.603 72.5663 70.199 71.893C69.8623 71.1523 69.29 70.5463 68.482 70.075C67.7413 69.6037 66.664 69.368 65.25 69.368C63.3647 69.368 61.8497 69.8393 60.705 70.782C59.5603 71.6573 58.988 72.7683 58.988 74.115C58.988 75.529 59.5603 76.6737 60.705 77.549C61.917 78.357 63.3983 79.1313 65.149 79.872C66.967 80.6127 68.9197 81.387 71.007 82.195C73.0943 82.9357 75.0133 83.9457 76.764 85.225C78.582 86.5043 80.0633 88.1203 81.208 90.073C82.42 91.9583 83.026 94.416 83.026 97.446C83.026 102.294 81.309 106.267 77.875 109.364C74.441 112.461 69.29 114.01 62.422 114.01C60.5367 114.01 58.3483 113.842 55.857 113.505C53.433 113.236 51.11 112.798 48.888 112.192C46.666 111.519 44.7807 110.643 43.232 109.566C41.7507 108.489 41.01 107.142 41.01 105.526C41.01 104.92 41.111 104.179 41.313 103.304C41.5823 102.429 41.9527 101.587 42.424 100.779C42.9627 99.971 43.5687 99.2977 44.242 98.759C44.9827 98.153 45.858 97.85 46.868 97.85C47.676 97.85 48.4167 98.052 49.09 98.456C49.7633 98.86 50.5377 99.2977 51.413 99.769C52.3557 100.173 53.5003 100.577 54.847 100.981C56.1937 101.385 57.978 101.587 60.2 101.587C61.8833 101.587 63.3647 101.385 64.644 100.981C65.9907 100.577 66.664 99.668 66.664 98.254C66.664 96.9747 66.1253 95.9647 65.048 95.224C63.9707 94.416 62.5903 93.6753 60.907 93.002C59.291 92.3287 57.5067 91.6217 55.554 90.881C53.6687 90.073 51.8843 89.0293 50.201 87.75C48.585 86.4707 47.2383 84.8547 46.161 82.902C45.0837 80.882 44.545 78.2897 44.545 75.125C44.545 71.691 45.2183 68.7957 46.565 66.439C47.979 64.015 49.7633 62.0623 51.918 60.581C54.14 59.0997 56.6313 58.056 59.392 57.45C62.1527 56.7767 64.9133 56.44 67.674 56.44Z" fill="#FF694E"/>
<path d="M110.874 66.742C110.874 68.2907 110.773 70.1423 110.571 72.297C110.369 74.3843 110.134 76.5053 109.864 78.66C109.662 80.7473 109.46 82.7337 109.258 84.619C109.056 86.437 108.955 87.851 108.955 88.861C108.955 91.4197 109.561 93.3387 110.773 94.618C112.053 95.83 113.601 96.436 115.419 96.436C118.584 96.436 121.109 94.7863 122.994 91.487C124.88 88.1877 126.058 83.811 126.529 78.357L128.145 59.47C128.213 58.7293 128.448 58.2243 128.852 57.955C129.324 57.6183 129.829 57.45 130.367 57.45H134.003C135.417 57.45 136.73 57.5847 137.942 57.854C139.222 58.056 140.333 58.4937 141.275 59.167C142.218 59.773 142.959 60.6147 143.497 61.692C144.036 62.7693 144.305 64.1497 144.305 65.833C144.305 66.5063 144.238 67.7857 144.103 69.671C144.036 71.489 143.868 74.1487 143.598 77.65C143.396 81.084 143.093 85.4607 142.689 90.78C142.285 96.032 141.814 102.462 141.275 110.071C140.939 114.515 139.929 118.185 138.245 121.08C136.629 124.043 134.576 126.366 132.084 128.049C129.593 129.8 126.799 131.012 123.701 131.685C120.604 132.358 117.439 132.695 114.207 132.695C110.773 132.695 107.609 132.392 104.713 131.786C101.885 131.18 99.4277 130.338 97.3404 129.261C95.2531 128.184 93.6034 126.938 92.3914 125.524C91.2467 124.11 90.6744 122.595 90.6744 120.979C90.6744 119.7 90.9437 118.589 91.4824 117.646C92.0884 116.703 92.8627 115.929 93.8054 115.323C94.7481 114.717 95.8254 114.246 97.0374 113.909C98.3167 113.64 99.6297 113.505 100.976 113.505C101.65 113.505 102.121 113.842 102.39 114.515C102.727 115.188 103.198 115.929 103.804 116.737C104.478 117.612 105.521 118.387 106.935 119.06C108.349 119.733 110.47 120.07 113.298 120.07C115.79 120.07 117.81 119.464 119.358 118.252C120.907 117.04 122.085 115.491 122.893 113.606C123.769 111.721 124.341 109.667 124.61 107.445C124.88 105.223 125.014 103.102 125.014 101.082C123.937 102.967 122.725 104.516 121.378 105.728C120.099 106.873 118.752 107.782 117.338 108.455C115.924 109.061 114.51 109.465 113.096 109.667C111.682 109.869 110.336 109.97 109.056 109.97C106.565 109.97 104.276 109.633 102.188 108.96C100.168 108.287 98.4177 107.209 96.9364 105.728C95.4551 104.179 94.3104 102.193 93.5024 99.769C92.6944 97.345 92.2904 94.416 92.2904 90.982C92.2904 89.7027 92.3577 88.0193 92.4924 85.932C92.6271 83.7773 92.7954 81.387 92.9974 78.761C93.1994 76.0677 93.4014 73.1723 93.6034 70.075C93.8727 66.9777 94.1421 63.813 94.4114 60.581C94.5461 58.4937 95.4887 57.45 97.2394 57.45H100.471C102.626 57.45 104.377 57.652 105.723 58.056C107.07 58.46 108.114 59.066 108.854 59.874C109.662 60.6147 110.201 61.591 110.47 62.803C110.74 63.9477 110.874 65.2607 110.874 66.742Z" fill="#FF694E"/>
<path d="M187.67 104.112C187.67 102.631 187.771 100.712 187.973 98.355C188.242 95.931 188.478 93.406 188.68 90.78C188.949 88.0867 189.185 85.4943 189.387 83.003C189.656 80.5117 189.791 78.4243 189.791 76.741C189.791 74.9903 189.353 73.4417 188.478 72.095C187.67 70.681 186.054 69.974 183.63 69.974C181.273 69.974 179.321 70.5463 177.772 71.691C176.223 72.8357 174.91 74.923 173.833 77.953C172.823 80.983 171.981 85.1577 171.308 90.477C170.635 95.7963 169.995 102.631 169.389 110.98C169.322 111.788 169.153 112.327 168.884 112.596C168.615 112.865 168.042 113 167.167 113H163.531C161.444 113 159.727 112.798 158.38 112.394C157.101 111.923 156.057 111.283 155.249 110.475C154.508 109.667 153.97 108.691 153.633 107.546C153.364 106.334 153.229 104.954 153.229 103.405C153.229 102.395 153.263 100.981 153.33 99.163C153.465 97.2777 153.667 94.719 153.936 91.487C154.205 88.1877 154.508 84.0467 154.845 79.064C155.249 74.014 155.72 67.7857 156.259 60.379C156.326 58.8977 156.495 58.0223 156.764 57.753C156.966 57.551 157.505 57.45 158.38 57.45H162.319C164.339 57.45 165.989 57.6857 167.268 58.157C168.615 58.6283 169.692 59.268 170.5 60.076C171.308 60.8167 171.88 61.7257 172.217 62.803C172.554 63.813 172.756 64.8567 172.823 65.934C174.91 62.3653 177.301 59.9077 179.994 58.561C182.687 57.147 186.054 56.44 190.094 56.44C192.922 56.44 195.38 56.743 197.467 57.349C199.554 57.955 201.271 58.9987 202.618 60.48C204.032 61.894 205.076 63.7793 205.749 66.136C206.422 68.4253 206.759 71.287 206.759 74.721C206.759 75.7983 206.692 77.347 206.557 79.367C206.422 81.387 206.254 83.609 206.052 86.033C205.85 88.3897 205.614 90.881 205.345 93.507C205.143 96.0657 204.941 98.456 204.739 100.678C204.537 102.9 204.369 104.853 204.234 106.536C204.099 108.219 204.032 109.33 204.032 109.869C204.032 111.35 203.864 112.259 203.527 112.596C203.19 112.865 202.45 113 201.305 113H198.073C195.918 113 194.168 112.798 192.821 112.394C191.474 111.99 190.431 111.418 189.69 110.677C188.949 109.936 188.411 109.027 188.074 107.95C187.805 106.805 187.67 105.526 187.67 104.112Z" fill="#FF694E"/>
<path d="M263.737 104.819C263.737 105.156 263.569 105.829 263.232 106.839C262.895 107.849 262.357 108.893 261.616 109.97C260.875 111.047 259.933 111.99 258.788 112.798C257.711 113.606 256.398 114.01 254.849 114.01C253.031 114.01 251.213 113.404 249.395 112.192C247.644 110.98 245.894 109.33 244.143 107.243C242.392 105.156 240.608 102.698 238.79 99.87C237.039 96.9747 235.255 93.8437 233.437 90.477C233.168 94.0457 232.898 97.547 232.629 100.981C232.36 104.415 232.09 107.748 231.821 110.98C231.754 111.788 231.585 112.327 231.316 112.596C231.047 112.865 230.474 113 229.599 113H225.963C223.876 113 222.159 112.798 220.812 112.394C219.465 111.923 218.422 111.283 217.681 110.475C216.94 109.667 216.402 108.657 216.065 107.445C215.796 106.166 215.661 104.718 215.661 103.102C215.661 102.294 215.695 101.452 215.762 100.577C215.829 99.7017 215.93 98.456 216.065 96.84C216.2 95.224 216.368 93.103 216.57 90.477C216.839 87.851 217.142 84.3833 217.479 80.074C217.816 75.7647 218.186 70.479 218.59 64.217C219.061 57.8877 219.566 50.2117 220.105 41.189C220.172 39.7077 220.341 38.8323 220.61 38.563C220.812 38.361 221.351 38.26 222.226 38.26H226.165C228.252 38.26 229.969 38.4957 231.316 38.967C232.663 39.4383 233.74 40.078 234.548 40.886C235.356 41.694 235.895 42.6367 236.164 43.714C236.501 44.7913 236.669 45.9023 236.669 47.047C236.669 47.7203 236.602 48.865 236.467 50.481C236.4 52.0297 236.299 53.9487 236.164 56.238C236.029 58.46 235.827 60.985 235.558 63.813C235.356 66.641 235.154 69.6037 234.952 72.701L251.112 57.955C251.718 57.4163 252.257 57.046 252.728 56.844C253.267 56.642 253.671 56.541 253.94 56.541C254.681 56.541 255.489 57.0123 256.364 57.955C257.239 58.8977 258.047 60.0087 258.788 61.288C259.596 62.5 260.236 63.7793 260.707 65.126C261.246 66.4053 261.515 67.449 261.515 68.257C261.515 70.2097 259.933 72.2633 256.768 74.418C253.671 76.5727 248.957 78.9967 242.628 81.69C245.456 84.8547 248.149 87.75 250.708 90.376C253.267 93.002 255.489 95.325 257.374 97.345C259.327 99.365 260.875 101.015 262.02 102.294C263.165 103.573 263.737 104.415 263.737 104.819Z" fill="#FF694E"/>
<path fill-rule="evenodd" clip-rule="evenodd" d="M51.918 60.581C54.14 59.0997 56.6313 58.056 59.392 57.45C62.1527 56.7767 64.9133 56.44 67.674 56.44C73.3973 56.44 77.6057 57.5847 80.299 59.874C81.527 60.8871 82.4751 62.0333 83.1432 63.3124C83.9404 64.8386 84.339 66.5541 84.339 68.459C84.339 68.7345 84.3309 69.004 84.3146 69.2673C84.3104 69.3347 84.3057 69.4017 84.3004 69.4683C84.1381 71.5296 83.4641 73.2071 82.2782 74.5007C82.2067 74.5786 82.1334 74.6552 82.0582 74.7304C82.0399 74.7486 82.0216 74.7668 82.0031 74.7848C81.8621 74.9229 81.7146 75.0563 81.5608 75.1848C81.5443 75.1986 81.5277 75.2123 81.511 75.226C81.1114 75.5664 80.6711 75.8694 80.1902 76.135C78.4831 77.0777 76.2637 77.549 73.532 77.549C73.2693 77.549 73.0302 77.5412 72.8146 77.5255C72.7645 77.5218 72.7158 77.5178 72.6683 77.5133C72.1859 77.4678 71.8341 77.3787 71.613 77.246C71.2763 77.044 71.108 76.6737 71.108 76.135C71.108 75.529 71.0407 74.8557 70.906 74.115C70.8387 73.307 70.603 72.5663 70.199 71.893C69.9576 71.3618 69.5949 70.8999 69.111 70.5072C69.0747 70.4777 69.0376 70.4486 68.9999 70.4199C68.9131 70.3539 68.8228 70.2899 68.7288 70.228C68.6492 70.1755 68.5669 70.1245 68.482 70.075C68.0548 69.8031 67.5155 69.6097 66.8643 69.4946C66.6354 69.4542 66.3927 69.4234 66.1361 69.4024C65.8571 69.3795 65.5617 69.368 65.25 69.368C63.3647 69.368 61.8497 69.8393 60.705 70.782C59.5603 71.6573 58.988 72.7683 58.988 74.115C58.988 75.2746 59.3729 76.2531 60.1427 77.0504C60.3116 77.2253 60.4991 77.3915 60.705 77.549C60.7664 77.5899 60.8285 77.6308 60.8912 77.6715C61.4992 78.0662 62.1721 78.4529 62.9097 78.8314C63.0277 78.892 63.1473 78.9523 63.2685 79.0124C63.8564 79.3038 64.4832 79.5903 65.149 79.872C65.1826 79.8857 65.2163 79.8994 65.25 79.9131C65.4964 80.0134 65.7452 80.1143 65.9965 80.2158C66.9898 80.617 68.0215 81.0278 69.0917 81.4482C69.717 81.6939 70.3554 81.9428 71.007 82.195C71.878 82.5041 72.7197 82.86 73.532 83.2629C74.6665 83.8255 75.7438 84.4795 76.764 85.225C77.8646 85.9995 78.8418 86.8974 79.6956 87.9186C80.2522 88.5843 80.7563 89.3025 81.208 90.073C81.2378 90.1193 81.2672 90.166 81.2962 90.213C81.4487 90.4598 81.5911 90.7161 81.7235 90.982C82.5918 92.7266 83.026 94.8813 83.026 97.446C83.026 98.9001 82.8715 100.275 82.5626 101.572C81.8416 104.598 80.279 107.196 77.875 109.364C74.441 112.461 69.29 114.01 62.422 114.01C60.5367 114.01 58.3483 113.842 55.857 113.505C53.433 113.236 51.11 112.798 48.888 112.192C46.666 111.519 44.7807 110.643 43.232 109.566C41.7507 108.489 41.01 107.142 41.01 105.526C41.01 104.92 41.111 104.179 41.313 103.304C41.5823 102.429 41.9527 101.587 42.424 100.779C42.9627 99.971 43.5687 99.2977 44.242 98.759C44.6725 98.4068 45.1485 98.1569 45.67 98.0094C46.0457 97.9031 46.4451 97.85 46.868 97.85C47.676 97.85 48.4167 98.052 49.09 98.456C49.7633 98.86 50.5377 99.2977 51.413 99.769C51.5048 99.8084 51.5986 99.8477 51.6943 99.8871C51.8194 99.9385 51.9477 99.99 52.0794 100.041C52.8805 100.355 53.8031 100.668 54.847 100.981C55.3011 101.117 55.805 101.231 56.3587 101.321C56.6835 101.374 57.0254 101.419 57.3845 101.456C57.4294 101.461 57.4746 101.465 57.52 101.47C58.3285 101.548 59.2219 101.587 60.2 101.587C60.2253 101.587 60.2506 101.587 60.2759 101.587C60.411 101.586 60.5448 101.585 60.6772 101.581C62.1647 101.547 63.487 101.346 64.644 100.981C65.9907 100.577 66.664 99.668 66.664 98.254C66.664 96.9747 66.1253 95.9647 65.048 95.224C64.3212 94.6789 63.4565 94.1645 62.4539 93.6806C62.4089 93.6589 62.3637 93.6373 62.3181 93.6157C61.8741 93.4053 61.4038 93.2007 60.907 93.002C60.6748 92.9053 60.4392 92.8078 60.2 92.7097C59.6827 92.4974 59.1491 92.2818 58.5992 92.063C58.2836 91.9375 57.9627 91.8108 57.6364 91.6831C57.1334 91.4862 56.6176 91.2867 56.0891 91.0848C55.9122 91.0171 55.7338 90.9492 55.554 90.881C55.4606 90.841 55.3674 90.8003 55.2744 90.7591C54.8635 90.577 54.4575 90.3835 54.0564 90.1788C52.7172 89.4952 51.4321 88.6856 50.201 87.75C49.9208 87.5282 49.6486 87.2962 49.3846 87.0541C48.126 85.9001 47.0515 84.5161 46.161 82.902C45.0837 80.882 44.545 78.2897 44.545 75.125C44.545 71.691 45.2183 68.7957 46.565 66.439C47.979 64.015 49.7633 62.0623 51.918 60.581ZM37.5939 89.9926C37.2185 89.4144 36.8639 88.8217 36.5297 88.2159L36.4919 88.1474L36.4551 88.0785C34.2658 83.9734 33.545 79.4405 33.545 75.125C33.545 70.2758 34.4977 65.3857 37.0143 60.9815L37.0387 60.9388L37.0634 60.8964C39.2335 57.1763 42.0991 53.9826 45.6862 51.5165L45.7509 51.472L45.8163 51.4284C49.2053 49.1692 52.9359 47.6208 56.9058 46.7341C60.4555 45.878 64.0506 45.44 67.674 45.44C74.2792 45.44 81.3675 46.6591 86.8864 51.0512C86.9422 50.9871 86.9988 50.9233 87.0563 50.8596C90.1055 47.4837 94.0716 46.45 97.2394 46.45H100.471C103.191 46.45 106.12 46.6907 108.884 47.5199C111.48 48.2987 114.289 49.6816 116.635 52.0934C117.268 52.7089 117.833 53.3599 118.335 54.0378C119.125 52.2656 120.432 50.3969 122.591 48.9107C124.756 47.4014 127.42 46.45 130.367 46.45H134.003C136.006 46.45 138.021 46.6308 140.013 47.0479C142.579 47.4994 145.128 48.4545 147.453 50.0643C147.754 50.2646 148.047 50.4729 148.33 50.6886C148.531 50.4506 148.749 50.2116 148.986 49.9748C151.541 47.4195 154.536 46.856 155.292 46.7142C156.504 46.487 157.613 46.45 158.38 46.45H162.319C165.044 46.45 168.075 46.7483 170.982 47.8028C172.033 48.1751 173.099 48.6382 174.145 49.2136C174.417 49.0616 174.694 48.9145 174.975 48.7725C179.653 46.3408 184.869 45.44 190.094 45.44C193.666 45.44 197.202 45.818 200.534 46.7852C203.421 47.6233 206.12 48.9854 208.481 50.9183C208.688 47.708 208.901 44.2701 209.12 40.6038C209.166 39.6477 209.258 38.496 209.48 37.3442C209.594 36.751 209.791 35.8966 210.152 34.9501C210.462 34.1399 211.206 32.4112 212.832 30.7848L220.61 38.563C220.341 38.8323 220.172 39.7077 220.105 41.189C219.566 50.2117 219.061 57.8877 218.59 64.217C218.271 69.169 217.972 73.5104 217.695 77.2412C217.621 78.2282 217.55 79.1725 217.479 80.074C217.479 80.081 217.478 80.088 217.477 80.0951C217.276 82.6789 217.086 84.9598 216.908 86.9377C216.907 86.9462 216.906 86.9548 216.906 86.9633C216.789 88.2664 216.677 89.4376 216.57 90.477C216.458 91.9287 216.357 93.2261 216.266 94.3692C216.259 94.4554 216.252 94.5406 216.246 94.625C216.18 95.4464 216.12 96.1847 216.065 96.84C215.93 98.456 215.829 99.7017 215.762 100.577C215.734 100.943 215.712 101.302 215.695 101.656C215.673 102.149 215.661 102.631 215.661 103.102C215.661 104.718 215.796 106.166 216.065 107.445C216.402 108.657 216.94 109.667 217.681 110.475C218.422 111.283 219.465 111.923 220.812 112.394C222.159 112.798 223.876 113 225.963 113H229.599C230.474 113 231.047 112.865 231.316 112.596C231.585 112.327 231.754 111.788 231.821 110.98C231.865 110.458 231.908 109.933 231.952 109.405C232.098 107.628 232.245 105.821 232.392 103.983C232.398 103.898 232.405 103.812 232.412 103.727C232.484 102.819 232.557 101.903 232.629 100.981C232.898 97.547 233.168 94.0457 233.437 90.477C235.255 93.8437 237.039 96.9747 238.79 99.87C239.16 100.446 239.529 101.006 239.896 101.551C241.028 103.231 242.147 104.765 243.253 106.153C243.551 106.527 243.847 106.89 244.143 107.243C245.894 109.33 247.644 110.98 249.395 112.192C251.213 113.404 253.031 114.01 254.849 114.01C256.398 114.01 257.711 113.606 258.788 112.798C259.933 111.99 260.875 111.047 261.616 109.97C262.357 108.893 262.895 107.849 263.232 106.839C263.569 105.829 263.737 105.156 263.737 104.819C263.737 104.415 263.165 103.573 262.02 102.294C260.875 101.015 259.327 99.365 257.374 97.345C255.489 95.325 253.267 93.002 250.708 90.376C250.658 90.325 250.609 90.2739 250.559 90.2227C248.045 87.6374 245.401 84.7932 242.628 81.69C246.773 79.9263 250.225 78.2781 252.983 76.7454C254.437 75.9375 255.699 75.1617 256.768 74.418C259.933 72.2633 261.515 70.2097 261.515 68.257C261.515 67.449 261.246 66.4053 260.707 65.126C260.236 63.7793 259.596 62.5 258.788 61.288C258.047 60.0087 257.239 58.8977 256.364 57.955C255.489 57.0123 254.681 56.541 253.94 56.541C253.671 56.541 253.267 56.642 252.728 56.844C252.257 57.046 251.718 57.4163 251.112 57.955L234.952 72.701C235.002 71.9295 235.053 71.1663 235.103 70.4115C235.255 68.1361 235.406 65.9366 235.558 63.813C235.808 61.1924 235.999 58.832 236.133 56.7318C236.144 56.5656 236.154 56.401 236.164 56.238C236.299 53.9487 236.4 52.0297 236.467 50.481C236.602 48.865 236.669 47.7203 236.669 47.047C236.669 45.9023 236.501 44.7913 236.164 43.714C235.895 42.6367 235.356 41.694 234.548 40.886C233.74 40.078 232.663 39.4383 231.316 38.967L234.95 28.5846C237.478 29.4694 240.096 30.878 242.326 33.1078C244.422 35.2037 245.954 37.7815 246.749 40.713C247.365 42.7795 247.669 44.9026 247.669 47.047C247.669 47.0543 247.669 47.0617 247.669 47.0691C247.904 46.9524 248.146 46.8401 248.395 46.7334L248.628 46.6335L248.866 46.5444C249.559 46.2843 251.552 45.541 253.94 45.541C259.355 45.541 262.908 48.8365 264.425 50.47C265.856 52.0109 267.082 53.7039 268.136 55.4832C269.293 57.2657 270.244 59.1637 270.974 61.1673C271.702 62.9525 272.515 65.4571 272.515 68.257C272.515 76.1695 266.491 81.0984 263.004 83.4796C262.301 83.9675 261.552 84.4545 260.76 84.9409C262.448 86.6905 263.978 88.3005 265.35 89.7689C267.318 91.8057 268.953 93.5458 270.218 94.9593C270.927 95.7519 271.722 96.6959 272.404 97.6994C272.743 98.1974 273.208 98.9343 273.625 99.8415C273.959 100.569 274.737 102.395 274.737 104.819C274.737 106.408 274.405 107.753 274.282 108.244C274.104 108.957 273.883 109.67 273.668 110.318C272.941 112.498 271.878 114.461 270.681 116.202C269.179 118.385 267.331 120.213 265.248 121.702C262.022 124.07 258.355 125.01 254.849 125.01C250.454 125.01 246.548 123.515 243.293 121.345L243.213 121.291L243.134 121.236C242.143 120.55 241.19 119.802 240.273 119.002C239.936 119.46 239.546 119.923 239.094 120.374C236.929 122.54 234.485 123.305 233.204 123.607C231.797 123.938 230.516 124 229.599 124H225.963C223.271 124 220.39 123.752 217.651 122.93L217.413 122.859L217.178 122.776C215.393 122.152 213.506 121.239 211.754 119.9C211.611 120.059 211.462 120.218 211.305 120.374L210.874 120.805L210.399 121.186C208.107 123.019 205.694 123.538 204.687 123.722C203.425 123.951 202.235 124 201.305 124H198.073C195.353 124 192.424 123.759 189.66 122.93C187.142 122.175 184.305 120.848 181.912 118.455C181.024 117.567 180.257 116.607 179.606 115.595C179.187 116.826 178.357 118.679 176.662 120.374C174.496 122.54 172.052 123.305 170.772 123.607C169.365 123.938 168.083 124 167.167 124H163.531C160.839 124 157.958 123.752 155.219 122.93L154.895 122.833L154.577 122.716C153.164 122.195 151.751 121.514 150.404 120.632C149.744 122.663 148.897 124.621 147.832 126.475C145.502 130.706 142.365 134.357 138.328 137.106C134.609 139.703 130.476 141.469 126.038 142.434C122.158 143.277 118.21 143.695 114.207 143.695C110.134 143.695 106.203 143.336 102.46 142.553L102.434 142.547L102.409 142.542C98.8382 141.777 95.421 140.649 92.2953 139.036C89.2642 137.471 86.3815 135.415 84.0396 132.683L83.939 132.565L83.8417 132.445C81.3942 129.422 79.7686 125.651 79.6784 121.356C74.4497 124.038 68.4414 125.01 62.422 125.01C59.9504 125.01 57.2944 124.795 54.511 124.423C51.5987 124.093 48.7561 123.558 45.9937 122.804L45.8452 122.764L45.6979 122.719C42.6177 121.786 39.6337 120.463 36.9503 118.596L36.8555 118.53L36.7621 118.462C32.8716 115.633 30.01 111.169 30.01 105.526C30.01 103.793 30.2861 102.168 30.5947 100.831L30.6834 100.446L30.7994 100.069C31.3219 98.3712 32.0356 96.7567 32.9224 95.2364L33.0886 94.9516L33.2715 94.6773C34.3504 93.0589 35.6863 91.5248 37.3273 90.204C37.4156 90.1324 37.5045 90.0619 37.5939 89.9926ZM92.5453 116.331C92.1469 116.725 91.7926 117.163 91.4824 117.646C90.9437 118.589 90.6744 119.7 90.6744 120.979C90.6744 122.595 91.2467 124.11 92.3914 125.524C93.6034 126.938 95.2531 128.184 97.3404 129.261C99.4277 130.338 101.885 131.18 104.713 131.786C107.609 132.392 110.773 132.695 114.207 132.695C117.439 132.695 120.604 132.358 123.701 131.685C126.799 131.012 129.593 129.8 132.084 128.049C134.576 126.366 136.629 124.043 138.245 121.08C139.929 118.185 140.939 114.515 141.275 110.071C141.814 102.462 142.285 96.032 142.689 90.78C143.093 85.4607 143.396 81.084 143.598 77.65C143.868 74.1487 144.036 71.489 144.103 69.671C144.238 67.7857 144.305 66.5063 144.305 65.833C144.305 64.1497 144.036 62.7693 143.497 61.692C142.959 60.6147 142.218 59.773 141.275 59.167C140.333 58.4937 139.222 58.056 137.942 57.854C136.73 57.5847 135.417 57.45 134.003 57.45H130.367C129.829 57.45 129.324 57.6183 128.852 57.955C128.448 58.2243 128.213 58.7293 128.145 59.47L126.529 78.357C126.058 83.811 124.88 88.1877 122.994 91.487C121.374 94.3235 119.28 95.9407 116.713 96.3386C116.295 96.4035 115.863 96.436 115.419 96.436C115.267 96.436 115.116 96.4317 114.967 96.4232C113.343 96.3298 111.945 95.7281 110.773 94.618C109.561 93.3387 108.955 91.4197 108.955 88.861C108.955 87.851 109.056 86.437 109.258 84.619C109.46 82.7337 109.662 80.7473 109.864 78.66C110.134 76.5053 110.369 74.3843 110.571 72.297C110.773 70.1423 110.874 68.2907 110.874 66.742C110.874 65.2607 110.74 63.9477 110.47 62.803C110.201 61.591 109.662 60.6147 108.854 59.874C108.114 59.066 107.07 58.46 105.723 58.056C104.377 57.652 102.626 57.45 100.471 57.45H97.2394C95.4887 57.45 94.5461 58.4937 94.4114 60.581C94.3812 60.9432 94.351 61.3046 94.3208 61.6652C94.1283 63.9642 93.9359 66.2288 93.7434 68.459C93.6967 68.9997 93.6501 69.5384 93.6034 70.075C93.4157 72.9531 93.228 75.6567 93.0403 78.1859C93.026 78.3786 93.0117 78.5703 92.9974 78.761C92.7954 81.387 92.6271 83.7773 92.4924 85.932C92.4468 86.6385 92.4089 87.2987 92.3788 87.9127C92.3199 89.1126 92.2904 90.1357 92.2904 90.982C92.2904 93.3837 92.488 95.5384 92.8832 97.446C93.0531 98.266 93.2595 99.0403 93.5024 99.769C93.6115 100.096 93.7268 100.416 93.8483 100.727C94.1801 101.578 94.5577 102.37 94.9812 103.102C95.5502 104.085 96.2019 104.96 96.9364 105.728C98.1131 106.905 99.4598 107.827 100.976 108.493C101.369 108.666 101.773 108.822 102.188 108.96C104.276 109.633 106.565 109.97 109.056 109.97C109.786 109.97 110.537 109.937 111.311 109.871C111.46 109.859 111.61 109.845 111.761 109.83C111.943 109.812 112.126 109.792 112.31 109.77C112.313 109.769 112.316 109.769 112.318 109.769C112.325 109.768 112.333 109.767 112.34 109.766C112.454 109.753 112.569 109.738 112.684 109.723C112.821 109.706 112.958 109.687 113.096 109.667C113.164 109.657 113.231 109.647 113.298 109.637C113.379 109.624 113.459 109.611 113.539 109.597C113.71 109.568 113.88 109.535 114.05 109.5C115.146 109.273 116.242 108.925 117.338 108.455C118.221 108.035 119.077 107.523 119.906 106.92C119.924 106.907 119.941 106.894 119.959 106.881C120.441 106.528 120.914 106.143 121.378 105.728C122.725 104.516 123.937 102.967 125.014 101.082C125.014 102.326 124.963 103.609 124.861 104.93C124.797 105.754 124.714 106.592 124.61 107.445C124.545 107.987 124.461 108.518 124.359 109.04C124.358 109.046 124.357 109.051 124.356 109.056C124.041 110.668 123.553 112.185 122.893 113.606C122.436 114.674 121.859 115.635 121.163 116.487C121.08 116.588 120.995 116.688 120.909 116.787C120.442 117.32 119.925 117.809 119.358 118.252C118.083 119.25 116.489 119.837 114.574 120.013C114.164 120.051 113.738 120.07 113.298 120.07C111.642 120.07 110.228 119.954 109.056 119.723C108.228 119.56 107.521 119.339 106.935 119.06C105.521 118.387 104.478 117.612 103.804 116.737C103.198 115.929 102.727 115.188 102.39 114.515C102.121 113.842 101.65 113.505 100.976 113.505C100.891 113.505 100.806 113.506 100.722 113.507C100.705 113.507 100.689 113.507 100.673 113.507C99.4321 113.526 98.2204 113.66 97.0374 113.909C95.8254 114.246 94.7481 114.717 93.8054 115.323C93.3453 115.619 92.9252 115.955 92.5453 116.331ZM156.259 60.379C156.326 58.8977 156.495 58.0223 156.764 57.753C156.966 57.551 157.505 57.45 158.38 57.45H162.319C163.338 57.45 164.262 57.5099 165.092 57.6298C165.909 57.7476 166.634 57.9234 167.268 58.157C168.615 58.6283 169.692 59.268 170.5 60.076C171.175 60.695 171.686 61.4317 172.032 62.2859C172.1 62.4537 172.162 62.6261 172.217 62.803C172.438 63.4666 172.601 64.1446 172.706 64.8373C172.761 65.1989 172.8 65.5645 172.823 65.934C172.926 65.7584 173.029 65.5855 173.133 65.4152C174.027 63.9549 174.975 62.6925 175.977 61.6281C176.013 61.5897 176.049 61.5515 176.085 61.5135C176.796 60.771 177.535 60.1275 178.3 59.583C178.85 59.191 179.415 58.8504 179.994 58.561C180.633 58.2257 181.309 57.9301 182.024 57.6743C184.322 56.8515 187.012 56.44 190.094 56.44C192.922 56.44 195.38 56.743 197.467 57.349C199.554 57.955 201.271 58.9987 202.618 60.48C204.032 61.894 205.076 63.7793 205.749 66.136C206.422 68.4253 206.759 71.287 206.759 74.721C206.759 75.2374 206.743 75.8621 206.712 76.595C206.68 77.3543 206.632 78.2297 206.567 79.2215C206.563 79.2697 206.56 79.3182 206.557 79.367C206.422 81.387 206.254 83.609 206.052 86.033C205.959 87.1161 205.859 88.2275 205.752 89.3675C205.743 89.4591 205.735 89.5509 205.726 89.6429C205.608 90.8968 205.481 92.1848 205.345 93.507C205.28 94.3323 205.215 95.1401 205.149 95.9304C205.041 97.2474 204.932 98.5158 204.824 99.7356C204.795 100.053 204.767 100.367 204.739 100.678C204.733 100.748 204.726 100.818 204.72 100.887C204.526 103.023 204.364 104.906 204.234 106.536C204.099 108.219 204.032 109.33 204.032 109.869C204.032 111.35 203.864 112.259 203.527 112.596C203.19 112.865 202.45 113 201.305 113H198.073C195.918 113 194.168 112.798 192.821 112.394C191.474 111.99 190.431 111.418 189.69 110.677C188.949 109.936 188.411 109.027 188.074 107.95C187.805 106.805 187.67 105.526 187.67 104.112C187.67 102.631 187.771 100.712 187.973 98.355C188.242 95.931 188.478 93.406 188.68 90.78C188.949 88.0867 189.185 85.4943 189.387 83.003C189.656 80.5117 189.791 78.4243 189.791 76.741C189.791 74.9903 189.353 73.4417 188.478 72.095C187.67 70.681 186.054 69.974 183.63 69.974C183.523 69.974 183.416 69.9752 183.31 69.9776C182.274 70.0009 181.317 70.1385 180.442 70.3904C179.448 70.6766 178.558 71.1101 177.772 71.691C176.223 72.8357 174.91 74.923 173.833 77.953C172.836 80.9427 172.004 85.0468 171.335 90.2653C171.326 90.3357 171.317 90.4062 171.308 90.477C170.635 95.7963 169.995 102.631 169.389 110.98C169.322 111.788 169.153 112.327 168.884 112.596C168.615 112.865 168.042 113 167.167 113H163.531C161.444 113 159.727 112.798 158.38 112.394C157.101 111.923 156.057 111.283 155.249 110.475C154.508 109.667 153.97 108.691 153.633 107.546C153.364 106.334 153.229 104.954 153.229 103.405C153.229 102.395 153.263 100.981 153.33 99.163C153.465 97.2777 153.667 94.719 153.936 91.487C154.205 88.1877 154.508 84.0467 154.845 79.064C155.249 74.014 155.72 67.7857 156.259 60.379ZM231.316 38.967L234.95 28.5846C232.029 27.5623 228.97 27.26 226.165 27.26H222.226C221.459 27.26 220.35 27.297 219.138 27.5242C218.382 27.666 215.387 28.2295 212.832 30.7848L220.61 38.563C220.812 38.361 221.351 38.26 222.226 38.26H226.165C228.252 38.26 229.969 38.4957 231.316 38.967Z" fill="white"/>
</svg>
