<svg width="45" height="45" viewBox="0 0 45 45" fill="none" xmlns="http://www.w3.org/2000/svg">
<mask id="mask0_552_406" style="mask-type:alpha" maskUnits="userSpaceOnUse" x="0" y="0" width="45" height="45">
<rect width="45" height="45" rx="12" fill="#FF694E"/>
</mask>
<g mask="url(#mask0_552_406)">
<rect width="45" height="45" rx="12" fill="#FF694E"/>
<path d="M24.6741 5.58936C28.0629 5.58936 30.5547 6.26712 32.1495 7.62264C33.7442 8.9383 34.5416 10.6327 34.5416 12.7059C34.5416 14.4601 33.9834 15.7957 32.8671 16.7126C31.7906 17.6296 30.2158 18.0881 28.1427 18.0881C27.5845 18.0881 27.2058 18.0283 27.0064 17.9087C26.8071 17.7891 26.7074 17.5698 26.7074 17.2509C26.7074 16.8921 26.6675 16.4934 26.5878 16.0548C26.5479 15.5764 26.4084 15.1378 26.1692 14.7392C25.9699 14.3006 25.631 13.9418 25.1525 13.6627C24.714 13.3836 24.0761 13.2441 23.2389 13.2441C22.1225 13.2441 21.2255 13.5232 20.5477 14.0813C19.87 14.5996 19.5311 15.2574 19.5311 16.0548C19.5311 16.8921 19.87 17.5698 20.5477 18.0881C21.2654 18.5665 22.1425 19.025 23.1791 19.4636C24.2555 19.9021 25.4117 20.3606 26.6476 20.839C27.8835 21.2776 29.0198 21.8756 30.0564 22.6331C31.1328 23.3906 32.0099 24.3474 32.6877 25.5036C33.4053 26.6199 33.7641 28.0751 33.7641 29.8692C33.7641 32.7398 32.7475 35.092 30.7142 36.9259C28.6809 38.7599 25.631 39.6769 21.5644 39.6769C20.4481 39.6769 19.1523 39.5772 17.6772 39.3778C16.242 39.2184 14.8665 38.9592 13.5508 38.6004C12.2352 38.2017 11.1189 37.6834 10.2019 37.0455C9.32478 36.4076 8.88623 35.6103 8.88623 34.6534C8.88623 34.2946 8.94603 33.8561 9.06564 33.3378C9.22511 32.8195 9.44439 32.3211 9.72347 31.8427C10.0424 31.3643 10.4012 30.9656 10.7999 30.6467C11.2385 30.2878 11.7568 30.1084 12.3548 30.1084C12.8332 30.1084 13.2718 30.228 13.6704 30.4673C14.0691 30.7065 14.5276 30.9656 15.0459 31.2447C15.6041 31.4839 16.2818 31.7231 17.0792 31.9623C17.8766 32.2015 18.9331 32.3211 20.2487 32.3211C21.2454 32.3211 22.1225 32.2015 22.88 31.9623C23.6774 31.7231 24.0761 31.1849 24.0761 30.3476C24.0761 29.5901 23.7572 28.9921 23.1193 28.5536C22.4814 28.0751 21.6641 27.6366 20.6673 27.2379C19.7105 26.8392 18.654 26.4206 17.4978 25.9821C16.3815 25.5036 15.325 24.8857 14.3283 24.1282C13.3714 23.3707 12.5741 22.4138 11.9362 21.2576C11.2983 20.0616 10.9793 18.5267 10.9793 16.6528C10.9793 14.6196 11.378 12.9052 12.1754 11.5098C13.0126 10.0746 14.0691 8.91837 15.3449 8.04126C16.6606 7.16416 18.1357 6.5462 19.7703 6.18738C21.4049 5.7887 23.0395 5.58936 24.6741 5.58936Z" fill="white"/>
</g>
</svg>
