<svg width="492" height="237" viewBox="0 0 492 237" fill="none" xmlns="http://www.w3.org/2000/svg">
<rect y="17.9316" width="195" height="200" fill="white"/>
<circle cx="193" cy="117.932" r="100" fill="white"/>
<path d="M292.758 157.014L294.224 157.627L294.98 159.024C301.869 171.761 311.828 183.078 324.636 191.774C367.239 220.699 425.15 209.564 453.988 166.903C482.831 124.237 471.671 66.1937 429.063 37.265C386.46 8.34027 328.549 19.4748 299.71 62.1356C291.145 74.8057 286.111 88.8203 284.376 103.025L284.184 104.593L283.055 105.697L249.194 138.797L292.758 157.014Z" fill="white" stroke="black" stroke-width="9"/>
<path d="M363.976 60.9873C365.289 61.5368 365.924 62.211 365.882 63.0099C365.869 63.2696 365.723 63.7526 365.446 64.4591L358.822 80.7848C358.775 80.9225 358.696 81.0886 358.586 81.2831C358.476 81.4776 358.192 81.7331 357.735 82.0496C357.299 82.3472 356.781 82.4803 356.182 82.4489C355.602 82.4185 355.102 82.232 354.679 81.8894C354.277 81.5279 354.015 81.1837 353.892 80.8568L350.928 70.3373C348.368 76.7721 347.065 80.0484 347.019 80.1662C346.972 80.2839 346.874 80.449 346.722 80.6613C346.571 80.8737 346.401 81.0651 346.212 81.2354C345.728 81.6707 345.167 81.8716 344.528 81.8381C343.889 81.8046 343.367 81.6271 342.963 81.3055C342.58 80.985 342.326 80.6713 342.202 80.3643L342.015 79.904L337.105 62.9738C336.92 62.3031 336.835 61.8081 336.852 61.4885C336.894 60.6896 337.596 60.0955 338.958 59.7063C339.548 59.5369 340.073 59.4643 340.532 59.4883C341.011 59.5135 341.362 59.6921 341.585 60.0242C341.828 60.3574 342.032 60.8587 342.197 61.5283L344.968 71.7073L348.751 62.0219C349.074 61.1978 349.614 60.6452 350.37 60.3644C350.696 60.2413 351.11 60.1929 351.609 60.2191C352.128 60.2463 352.599 60.4412 353.02 60.8037C353.443 61.1463 353.706 61.4805 353.809 61.8064L356.709 72.3827L360.532 62.4892C360.716 62.0382 360.864 61.7055 360.975 61.491C361.086 61.2765 361.277 61.0762 361.547 60.8901C361.838 60.6851 362.184 60.593 362.583 60.614C362.983 60.6349 363.447 60.7594 363.976 60.9873ZM375.366 69.3349C375.544 68.2227 376.362 67.7048 377.82 67.7812C378.599 67.8221 379.175 67.9123 379.549 68.0521C379.922 68.1918 380.17 68.4151 380.294 68.722C380.439 69.03 380.514 69.3043 380.522 69.545C380.55 69.7668 380.552 70.1074 380.528 70.5668L379.979 81.0524C379.955 81.5118 379.916 81.8602 379.864 82.0978C379.832 82.3165 379.739 82.5719 379.583 82.8642C379.277 83.3688 378.574 83.5923 377.475 83.5348C376.397 83.4782 375.675 83.3102 375.309 83.0307C374.964 82.7322 374.775 82.3218 374.742 81.7994C373.948 82.8192 372.682 83.2836 370.944 83.1925C369.227 83.1025 367.67 82.2298 366.275 80.5745C364.88 78.9192 364.236 77.053 364.345 74.9759C364.455 72.8787 365.29 71.09 366.85 69.6096C368.43 68.1102 370.109 67.4072 371.887 67.5003C372.566 67.5359 373.179 67.6882 373.725 67.9572C374.272 68.2261 374.65 68.4762 374.858 68.7075C375.067 68.9187 375.236 69.1278 375.366 69.3349ZM369.587 75.2806C369.552 75.9397 369.78 76.5525 370.271 77.1189C370.763 77.6654 371.379 77.9581 372.118 77.9968C372.857 78.0355 373.48 77.7978 373.988 77.2837C374.515 76.7706 374.796 76.1945 374.829 75.5554C374.864 74.8963 374.656 74.2745 374.206 73.6902C373.776 73.1069 373.162 72.7943 372.363 72.7524C371.584 72.7116 370.93 72.9577 370.401 73.4908C369.893 74.0249 369.621 74.6215 369.587 75.2806ZM391.944 73.8387L390.003 73.6168L389.786 77.7511C389.758 78.2904 389.817 78.684 389.964 78.9321C390.132 79.1812 390.445 79.3178 390.904 79.3418C391.384 79.367 391.742 79.4058 391.98 79.4583C392.238 79.4919 392.503 79.5959 392.774 79.7703C393.22 80.054 393.415 80.7351 393.358 81.8137C393.292 83.0719 392.972 83.8262 392.399 84.0765C392.092 84.2006 391.817 84.2764 391.576 84.3038C391.355 84.3122 391.025 84.3049 390.585 84.2819C388.508 84.1731 386.955 83.621 385.926 82.6258C384.896 81.6305 384.44 80.0145 384.557 77.7775L384.79 73.3436C384.407 73.3836 383.996 73.3921 383.557 73.3691C383.117 73.3461 382.757 73.157 382.475 72.8017C382.213 72.4475 382.104 71.861 382.147 71.0421C382.19 70.2233 382.27 69.6367 382.389 69.2824C382.509 68.9082 382.663 68.6459 382.851 68.4955C383.184 68.2526 383.59 68.1437 384.07 68.1688L385.052 68.3405L385.214 65.2547C385.238 64.7953 385.266 64.4563 385.297 64.2377C385.349 64.0201 385.461 63.7856 385.634 63.5344C385.92 63.0487 386.702 62.8393 387.98 62.9063C389.339 62.9775 390.128 63.3894 390.349 64.1419C390.432 64.4667 390.455 64.9787 390.419 65.6777L390.265 68.6137C391.148 68.5798 391.809 68.5744 392.248 68.5975C392.708 68.6215 393.046 68.6593 393.264 68.7108C393.503 68.7433 393.767 68.8473 394.059 69.0228C394.564 69.3096 394.784 70.0922 394.717 71.3704C394.651 72.6287 394.341 73.3835 393.787 73.6349C393.48 73.759 393.206 73.8347 392.964 73.8621C392.743 73.8706 392.403 73.8628 391.944 73.8387ZM400.456 76.8984C400.412 77.7372 400.657 78.411 401.191 78.9196C401.726 79.4083 402.303 79.6689 402.923 79.7013C403.562 79.7348 404.16 79.5859 404.718 79.2547C405.298 78.9045 405.757 78.7383 406.096 78.7561C406.696 78.7875 407.397 79.355 408.2 80.4586C408.629 81.0618 408.832 81.5932 408.808 82.0525C408.768 82.8115 408.181 83.4917 407.048 84.0933C405.868 84.8325 404.449 85.1587 402.791 85.0718C400.934 84.9745 399.181 84.2117 397.534 82.7835C396.749 82.1015 396.124 81.2176 395.66 80.1318C395.197 79.0261 394.999 77.8341 395.066 76.5559C395.134 75.2576 395.455 74.1028 396.029 73.0915C396.604 72.0602 397.317 71.2464 398.17 70.6502C399.897 69.4189 401.699 68.8524 403.576 68.9508C404.335 68.9906 405.068 69.1391 405.776 69.3965C406.484 69.6339 407.003 69.8614 407.332 70.0789L407.796 70.4036C408.143 70.6621 408.412 70.8665 408.605 71.0168C409.103 71.4435 409.339 71.9165 409.312 72.4357C409.285 72.9351 409.046 73.4933 408.593 74.1104C407.816 75.1712 407.099 75.6844 406.439 75.6498C406.06 75.6299 405.532 75.382 404.856 74.9059C404.514 74.5476 404.004 74.3506 403.325 74.315C402.666 74.2805 402.034 74.4877 401.43 74.9367C400.826 75.3857 400.501 76.0396 400.456 76.8984ZM419.973 70.0505C421.971 70.1551 423.589 71.001 424.827 72.588C426.086 74.176 426.657 76.0685 426.542 78.2655L426.266 83.5383C426.242 83.9977 426.204 84.3461 426.151 84.5837C426.12 84.8024 426.016 85.0573 425.841 85.3485C425.554 85.8542 424.771 86.0735 423.493 86.0065C422.275 85.9427 421.529 85.6433 421.257 85.1083C421.113 84.8003 421.027 84.5255 421 84.2837C420.992 84.043 421.001 83.6829 421.026 83.2036L421.301 77.9608C421.344 77.1419 421.148 76.4908 420.713 76.0073C420.277 75.5239 419.7 75.2633 418.981 75.2256C418.282 75.189 417.651 75.3762 417.089 75.7874C416.528 76.1785 416.193 76.6417 416.085 77.1767L415.78 82.9888C415.756 83.4481 415.718 83.7966 415.666 84.0342C415.634 84.2528 415.531 84.5078 415.355 84.799C415.068 85.3047 414.286 85.524 413.007 85.457C411.749 85.3911 410.994 85.0811 410.743 84.5272C410.619 84.2203 410.543 83.956 410.514 83.7342C410.506 83.5134 410.514 83.1634 410.539 82.684L411.478 64.7686C411.502 64.3092 411.53 63.9702 411.561 63.7516C411.614 63.514 411.717 63.2591 411.872 62.9868C412.18 62.4622 412.973 62.2334 414.251 62.3004C415.509 62.3663 416.254 62.6757 416.486 63.2286C416.63 63.5365 416.705 63.8109 416.713 64.0516C416.741 64.2734 416.743 64.614 416.719 65.0733L416.372 71.6943C417.435 70.5283 418.635 69.9803 419.973 70.0505ZM346.592 102.555C347.598 103.228 348.082 103.914 348.046 104.613C348.025 105.013 347.796 105.552 347.36 106.23L340.601 116.54C340.384 116.869 340.048 117.162 339.594 117.419C339.141 117.655 338.695 117.762 338.255 117.739C337.836 117.717 337.432 117.596 337.043 117.375C336.675 117.135 336.417 116.902 336.269 116.674L336.016 116.33L330.344 105.338C329.979 104.658 329.807 104.108 329.829 103.689C329.867 102.97 330.421 102.328 331.492 101.763C332.274 101.364 332.885 101.175 333.324 101.198C333.764 101.221 334.096 101.379 334.321 101.671C334.567 101.944 334.816 102.358 335.067 102.912L338.596 110.667L342.916 103.323C343.156 102.955 343.33 102.694 343.438 102.539C343.567 102.366 343.756 102.206 344.004 102.058C344.253 101.891 344.577 101.818 344.977 101.839C345.376 101.86 345.915 102.098 346.592 102.555ZM349.669 104.999C349.693 104.54 349.721 104.201 349.752 103.982C349.805 103.744 349.909 103.479 350.064 103.187C350.371 102.682 351.163 102.464 352.442 102.531C353.4 102.581 354.071 102.786 354.452 103.147C354.777 103.444 354.934 103.883 354.924 104.463C354.933 104.664 354.928 104.954 354.908 105.334L354.359 115.819C354.335 116.279 354.297 116.627 354.244 116.865C354.213 117.083 354.109 117.338 353.934 117.629C353.647 118.135 352.864 118.354 351.586 118.287C350.328 118.222 349.573 117.912 349.321 117.358C349.197 117.051 349.121 116.786 349.093 116.565C349.084 116.344 349.093 115.994 349.118 115.514L349.669 104.999ZM354.872 99.714C354.718 99.9863 354.448 100.172 354.062 100.272C353.676 100.372 353.164 100.406 352.525 100.372C351.906 100.34 351.409 100.254 351.036 100.114C350.663 99.9741 350.404 99.7502 350.26 99.4422C350.136 99.1353 350.06 98.871 350.032 98.6492C350.024 98.4085 350.032 98.0584 350.057 97.5991C350.081 97.1397 350.108 96.8007 350.14 96.582C350.192 96.3444 350.296 96.0895 350.45 95.8172C350.758 95.2926 351.551 95.0638 352.83 95.1308C354.088 95.1967 354.833 95.5061 355.064 96.059C355.208 96.367 355.284 96.6413 355.291 96.882C355.32 97.1038 355.322 97.4444 355.298 97.9038C355.274 98.3631 355.235 98.7116 355.183 98.9492C355.151 99.1679 355.048 99.4228 354.872 99.714ZM368.362 96.7559C368.538 96.4647 368.818 96.2692 369.204 96.1692C369.59 96.0693 370.092 96.0355 370.711 96.068C371.351 96.1014 371.857 96.1881 372.23 96.3278C372.603 96.4675 372.852 96.6908 372.976 96.9977C373.12 97.3057 373.196 97.58 373.203 97.8208C373.232 98.0426 373.234 98.3831 373.21 98.8425L372.272 116.728C372.248 117.187 372.21 117.536 372.157 117.773C372.126 117.992 372.023 118.237 371.849 118.508C371.521 119.032 370.658 119.257 369.26 119.184C367.882 119.111 367.138 118.582 367.03 117.595C366.141 118.509 364.947 118.928 363.449 118.849C361.652 118.755 360.055 117.89 358.658 116.255C357.263 114.6 356.62 112.733 356.729 110.656C356.839 108.559 357.674 106.76 359.235 105.26C360.815 103.761 362.494 103.057 364.272 103.151C365.75 103.228 366.872 103.788 367.639 104.829L367.968 98.5378C367.993 98.0784 368.02 97.7394 368.052 97.5207C368.104 97.2832 368.208 97.0282 368.362 96.7559ZM362.656 112.769C363.147 113.336 363.762 113.638 364.501 113.677C365.24 113.716 365.864 113.478 366.371 112.964C366.899 112.451 367.179 111.875 367.213 111.236C367.247 110.577 367.04 109.955 366.59 109.37C366.16 108.787 365.545 108.475 364.746 108.433C363.947 108.391 363.294 108.637 362.785 109.171C362.277 109.685 362.006 110.272 361.972 110.931C361.937 111.59 362.165 112.203 362.656 112.769ZM390.252 110.52C390.188 111.739 389.831 112.631 389.18 113.198C388.55 113.746 387.866 114 387.127 113.962L380.027 113.589C379.998 114.149 380.303 114.635 380.942 115.049C381.581 115.463 382.23 115.688 382.889 115.722C384.048 115.783 384.963 115.711 385.634 115.506L385.97 115.403C386.461 115.208 386.866 115.12 387.186 115.136C387.825 115.17 388.351 115.648 388.763 116.571C388.994 117.124 389.1 117.59 389.08 117.969C388.987 119.747 386.813 120.524 382.559 120.301C381.081 120.224 379.776 119.905 378.644 119.345C377.533 118.766 376.679 118.04 376.084 117.168C374.911 115.484 374.376 113.644 374.481 111.647C374.613 109.13 375.527 107.165 377.223 105.752C378.941 104.32 381.018 103.668 383.454 103.795C386.23 103.941 388.216 105.026 389.412 107.052C390.037 108.126 390.316 109.282 390.252 110.52ZM383.885 111.058C384.644 111.098 385.04 110.798 385.073 110.159C385.097 109.7 384.937 109.321 384.592 109.022C384.267 108.725 383.775 108.559 383.116 108.524C382.477 108.491 381.824 108.727 381.156 109.233C380.49 109.718 380.141 110.261 380.11 110.86L383.885 111.058ZM391.658 112.487C391.783 110.09 392.726 108.157 394.485 106.687C396.245 105.217 398.203 104.538 400.36 104.651C402.517 104.764 404.383 105.643 405.96 107.288C407.537 108.913 408.262 110.924 408.137 113.32C408.05 114.978 407.543 116.433 406.616 117.687C405.69 118.92 404.592 119.814 403.321 120.368C402.072 120.903 400.788 121.136 399.469 121.067C398.151 120.998 396.89 120.612 395.685 119.908C394.481 119.184 393.483 118.17 392.69 116.867C391.918 115.545 391.574 114.085 391.658 112.487ZM397.806 114.972C398.42 115.485 399.057 115.758 399.716 115.793C400.375 115.828 401.047 115.612 401.732 115.148C402.418 114.683 402.786 113.961 402.837 112.982C402.889 112.004 402.617 111.259 402.023 110.747C401.429 110.235 400.773 109.96 400.054 109.923C399.335 109.885 398.652 110.099 398.007 110.566C397.362 111.033 397.013 111.756 396.962 112.735C396.912 113.693 397.193 114.439 397.806 114.972ZM409.852 119.929C409.485 119.67 409.315 119.28 409.342 118.761C409.369 118.242 409.79 117.473 410.604 116.454C410.842 116.126 411.2 115.974 411.68 115.999C412.179 116.026 412.835 116.31 413.648 116.854C414.461 117.377 415.208 117.656 415.887 117.692C417.105 117.756 417.727 117.548 417.752 117.069C417.772 116.689 417.118 116.374 415.789 116.125C414.54 115.879 413.316 115.344 412.118 114.52C411.557 114.13 411.107 113.546 410.768 112.767C410.429 111.968 410.287 111.04 410.343 109.981C410.508 106.825 412.758 105.361 417.092 105.588C418.51 105.663 419.95 106.079 421.413 106.836C422.095 107.192 422.424 107.61 422.398 108.09C422.373 108.569 422.123 109.147 421.647 109.823C421.171 110.499 420.703 110.825 420.244 110.8C420.004 110.788 419.562 110.615 418.919 110.28C418.296 109.947 417.604 109.761 416.845 109.721C415.667 109.659 415.066 109.848 415.043 110.288C415.012 110.887 415.671 111.312 417.019 111.563C418.33 111.772 419.588 112.218 420.794 112.902C421.359 113.212 421.813 113.727 422.155 114.446C422.519 115.146 422.674 116.015 422.62 117.053C422.565 118.092 422.319 118.97 421.881 119.688C421.463 120.387 420.896 120.898 420.178 121.221C418.867 121.773 417.243 121.999 415.306 121.897C413.389 121.797 411.571 121.141 409.852 119.929ZM424.472 117.391C424.669 117.081 424.97 116.876 425.376 116.777C425.782 116.658 426.425 116.622 427.304 116.668C428.183 116.714 428.801 116.947 429.16 117.366C429.539 117.767 429.7 118.526 429.641 119.644C429.619 120.064 429.569 120.452 429.49 120.808C429.221 122.496 428.585 123.945 427.58 125.154C426.575 126.363 425.444 126.935 424.186 126.869C424.046 126.861 423.922 126.745 423.814 126.519C423.724 126.314 423.688 126.042 423.706 125.702C423.723 125.383 423.776 125.125 423.867 124.929C423.977 124.735 424.104 124.611 424.247 124.559C424.389 124.526 424.533 124.454 424.679 124.341C424.844 124.25 425.067 124.001 425.349 123.595C425.63 123.189 425.805 122.718 425.873 122.181C425.238 122.067 424.75 121.831 424.408 121.473C424.088 121.096 423.948 120.518 423.989 119.739C424.05 118.941 424.097 118.433 424.129 118.214C424.181 117.976 424.296 117.702 424.472 117.391ZM320.358 142.186L318.417 141.964L318.201 146.098C318.172 146.638 318.232 147.031 318.379 147.279C318.546 147.528 318.86 147.665 319.319 147.689C319.798 147.714 320.157 147.753 320.394 147.805C320.653 147.839 320.918 147.943 321.189 148.117C321.635 148.401 321.83 149.082 321.773 150.161C321.707 151.419 321.387 152.173 320.813 152.424C320.506 152.548 320.232 152.624 319.99 152.651C319.77 152.659 319.439 152.652 319 152.629C316.923 152.52 315.37 151.968 314.34 150.973C313.311 149.978 312.855 148.362 312.972 146.125L313.205 141.691C312.822 141.731 312.411 141.739 311.972 141.716C311.532 141.693 311.172 141.504 310.89 141.149C310.628 140.795 310.518 140.208 310.561 139.389C310.604 138.57 310.685 137.984 310.804 137.63C310.924 137.255 311.078 136.993 311.266 136.843C311.599 136.6 312.005 136.491 312.484 136.516L313.467 136.688L313.628 133.602C313.653 133.143 313.68 132.804 313.712 132.585C313.763 132.367 313.876 132.133 314.049 131.882C314.335 131.396 315.117 131.186 316.395 131.253C317.753 131.325 318.543 131.737 318.764 132.489C318.847 132.814 318.87 133.326 318.833 134.025L318.68 136.961C319.563 136.927 320.224 136.922 320.663 136.945C321.123 136.969 321.461 137.006 321.679 137.058C321.917 137.09 322.182 137.194 322.473 137.37C322.979 137.657 323.198 138.439 323.131 139.718C323.065 140.976 322.756 141.731 322.202 141.982C321.895 142.106 321.62 142.182 321.379 142.209C321.158 142.218 320.818 142.21 320.358 142.186ZM324.063 144.994C324.189 142.597 325.131 140.664 326.891 139.194C328.65 137.724 330.608 137.045 332.765 137.158C334.922 137.271 336.789 138.15 338.365 139.795C339.942 141.42 340.668 143.43 340.542 145.827C340.455 147.485 339.948 148.94 339.022 150.194C338.096 151.427 336.997 152.321 335.727 152.875C334.477 153.41 333.193 153.643 331.875 153.574C330.557 153.505 329.295 153.119 328.09 152.415C326.887 151.691 325.888 150.677 325.095 149.374C324.323 148.051 323.979 146.591 324.063 144.994ZM330.212 147.479C330.826 147.992 331.462 148.265 332.121 148.3C332.78 148.334 333.452 148.119 334.138 147.655C334.823 147.19 335.191 146.468 335.243 145.489C335.294 144.511 335.022 143.766 334.428 143.254C333.834 142.742 333.178 142.467 332.459 142.43C331.74 142.392 331.058 142.606 330.412 143.073C329.767 143.54 329.419 144.263 329.367 145.242C329.317 146.2 329.599 146.946 330.212 147.479ZM352.173 152.385C351.362 153.344 350.127 153.78 348.47 153.693C346.812 153.606 345.294 152.765 343.915 151.171C342.558 149.558 341.933 147.733 342.039 145.695C342.146 143.658 342.969 141.909 344.507 140.447C346.046 138.986 347.684 138.301 349.422 138.392C350.101 138.427 350.713 138.59 351.259 138.879C351.805 139.148 352.173 139.397 352.361 139.627C352.57 139.839 352.73 140.037 352.841 140.223C352.93 139.667 353.151 139.258 353.506 138.996C353.881 138.716 354.458 138.596 355.237 138.636C356.016 138.677 356.582 138.767 356.935 138.906C357.288 139.044 357.527 139.267 357.651 139.574C357.796 139.862 357.873 140.116 357.881 140.337C357.91 140.559 357.912 140.9 357.888 141.359L357.238 153.762C357.118 156.059 356.222 157.864 354.551 159.179C352.879 160.513 351.044 161.128 349.047 161.023C347.529 160.944 346.1 160.498 344.761 159.687C343.421 158.876 342.767 158.171 342.799 157.571C342.84 156.792 343.175 156.119 343.806 155.551C344.207 155.152 344.512 154.877 344.72 154.728C344.948 154.58 345.202 154.513 345.482 154.528C345.761 154.542 346.045 154.677 346.332 154.933C347.252 155.722 348.271 156.146 349.389 156.204C350.148 156.244 350.783 155.977 351.294 155.403C351.805 154.829 352.082 154.123 352.126 153.284L352.173 152.385ZM347.161 145.994C347.127 146.633 347.347 147.225 347.819 147.771C348.311 148.317 348.916 148.609 349.635 148.647C350.374 148.686 350.997 148.458 351.504 147.964C352.011 147.45 352.281 146.883 352.314 146.264C352.347 145.625 352.148 145.024 351.717 144.46C351.287 143.877 350.683 143.565 349.904 143.524C349.125 143.483 348.482 143.72 347.974 144.234C347.466 144.748 347.195 145.335 347.161 145.994ZM375.319 145.787C375.255 147.006 374.898 147.898 374.247 148.465C373.618 149.013 372.934 149.267 372.195 149.228L365.094 148.856C365.065 149.416 365.37 149.902 366.009 150.316C366.648 150.73 367.298 150.955 367.957 150.989C369.115 151.05 370.03 150.978 370.702 150.772L371.038 150.67C371.528 150.475 371.934 150.386 372.253 150.403C372.892 150.437 373.418 150.915 373.83 151.838C374.062 152.39 374.167 152.857 374.148 153.236C374.054 155.014 371.881 155.791 367.627 155.568C366.149 155.491 364.843 155.172 363.711 154.612C362.6 154.033 361.747 153.307 361.152 152.435C359.978 150.751 359.444 148.911 359.548 146.913C359.68 144.397 360.594 142.432 362.291 141.019C364.008 139.587 366.085 138.935 368.522 139.062C371.298 139.208 373.284 140.293 374.479 142.319C375.104 143.393 375.384 144.549 375.319 145.787ZM368.952 146.325C369.711 146.365 370.107 146.065 370.141 145.426C370.165 144.966 370.004 144.587 369.66 144.289C369.335 143.992 368.843 143.826 368.184 143.791C367.545 143.758 366.891 143.994 366.224 144.499C365.558 144.985 365.209 145.528 365.177 146.127L368.952 146.325ZM386.186 145.636L384.245 145.414L384.028 149.548C384 150.087 384.06 150.481 384.207 150.729C384.374 150.978 384.687 151.115 385.147 151.139C385.626 151.164 385.984 151.203 386.222 151.255C386.481 151.289 386.746 151.393 387.017 151.567C387.463 151.851 387.657 152.532 387.601 153.611C387.535 154.869 387.215 155.623 386.641 155.874C386.334 155.998 386.06 156.073 385.818 156.101C385.597 156.109 385.267 156.102 384.828 156.079C382.751 155.97 381.197 155.418 380.168 154.423C379.139 153.428 378.683 151.812 378.8 149.575L379.032 145.141C378.65 145.181 378.239 145.189 377.799 145.166C377.36 145.143 376.999 144.954 376.717 144.599C376.456 144.245 376.346 143.658 376.389 142.839C376.432 142.02 376.513 141.434 376.631 141.079C376.751 140.705 376.905 140.443 377.093 140.293C377.426 140.05 377.833 139.941 378.312 139.966L379.294 140.138L379.456 137.052C379.48 136.592 379.508 136.253 379.539 136.035C379.591 135.817 379.703 135.583 379.877 135.331C380.163 134.846 380.945 134.636 382.223 134.703C383.581 134.775 384.37 135.186 384.591 135.939C384.675 136.264 384.698 136.776 384.661 137.475L384.507 140.411C385.39 140.377 386.051 140.372 386.491 140.395C386.95 140.419 387.289 140.456 387.506 140.508C387.745 140.54 388.01 140.644 388.301 140.82C388.807 141.107 389.026 141.889 388.959 143.168C388.893 144.426 388.583 145.181 388.029 145.432C387.722 145.556 387.448 145.632 387.206 145.659C386.986 145.668 386.645 145.66 386.186 145.636ZM399.5 141.076C401.497 141.181 403.115 142.027 404.353 143.614C405.612 145.202 406.184 147.094 406.069 149.291L405.792 154.564C405.768 155.023 405.73 155.372 405.677 155.61C405.646 155.828 405.542 156.083 405.367 156.374C405.08 156.88 404.298 157.099 403.019 157.032C401.801 156.969 401.056 156.669 400.783 156.134C400.639 155.826 400.553 155.551 400.526 155.31C400.519 155.069 400.527 154.709 400.553 154.229L400.827 148.987C400.87 148.168 400.674 147.517 400.239 147.033C399.803 146.55 399.226 146.289 398.507 146.251C397.808 146.215 397.178 146.402 396.615 146.813C396.054 147.204 395.719 147.667 395.611 148.203L395.307 154.015C395.283 154.474 395.244 154.822 395.192 155.06C395.16 155.279 395.057 155.534 394.881 155.825C394.594 156.33 393.812 156.55 392.534 156.483C391.275 156.417 390.521 156.107 390.269 155.553C390.145 155.246 390.069 154.982 390.04 154.76C390.032 154.539 390.04 154.189 390.065 153.71L391.004 135.794C391.028 135.335 391.056 134.996 391.088 134.777C391.14 134.54 391.244 134.285 391.398 134.013C391.706 133.488 392.499 133.259 393.777 133.326C395.036 133.392 395.78 133.702 396.012 134.254C396.156 134.562 396.232 134.837 396.239 135.077C396.267 135.299 396.27 135.64 396.246 136.099L395.899 142.72C396.961 141.554 398.161 141.006 399.5 141.076ZM423.797 148.328C423.734 149.546 423.376 150.439 422.726 151.005C422.096 151.553 421.412 151.808 420.673 151.769L413.573 151.397C413.543 151.956 413.848 152.443 414.488 152.857C415.127 153.271 415.776 153.495 416.435 153.53C417.593 153.59 418.508 153.518 419.18 153.313L419.516 153.21C420.007 153.016 420.412 152.927 420.732 152.944C421.371 152.977 421.896 153.455 422.309 154.378C422.54 154.931 422.646 155.397 422.626 155.777C422.533 157.554 420.359 158.332 416.105 158.109C414.627 158.031 413.322 157.712 412.19 157.152C411.078 156.574 410.225 155.848 409.63 154.976C408.457 153.292 407.922 151.451 408.027 149.454C408.159 146.938 409.073 144.973 410.769 143.559C412.486 142.127 414.563 141.475 417 141.603C419.776 141.748 421.762 142.834 422.958 144.859C423.582 145.933 423.862 147.09 423.797 148.328ZM417.431 148.865C418.189 148.905 418.586 148.605 418.619 147.966C418.643 147.507 418.483 147.128 418.138 146.83C417.813 146.532 417.321 146.366 416.662 146.332C416.023 146.298 415.37 146.534 414.702 147.04C414.036 147.526 413.687 148.068 413.656 148.668L417.431 148.865ZM436.783 143.15C437.157 143.29 437.455 143.516 437.679 143.828C437.924 144.121 438.03 144.588 437.996 145.227C437.963 145.866 437.737 146.555 437.317 147.294C436.898 148.033 436.329 148.384 435.61 148.346C435.25 148.327 434.905 148.229 434.574 148.051C434.263 147.875 433.837 147.773 433.298 147.744C432.759 147.716 432.24 147.879 431.74 148.233C431.261 148.589 431.007 149.036 430.979 149.575L430.649 155.867C430.625 156.326 430.587 156.675 430.535 156.912C430.503 157.131 430.4 157.386 430.224 157.677C429.897 158.181 429.105 158.399 427.847 158.334C426.888 158.283 426.208 158.077 425.806 157.716C425.501 157.42 425.344 156.981 425.334 156.399C425.345 156.2 425.36 155.91 425.38 155.531L425.931 145.015C425.955 144.556 425.983 144.217 426.014 143.998C426.067 143.76 426.17 143.505 426.325 143.233C426.633 142.709 427.426 142.48 428.704 142.547C429.902 142.61 430.639 142.878 430.915 143.354C431.118 143.685 431.21 144.02 431.192 144.359C431.3 144.225 431.448 144.062 431.639 143.872C431.849 143.683 432.272 143.435 432.909 143.128C433.546 142.821 434.094 142.679 434.554 142.703C435.033 142.728 435.431 142.779 435.747 142.856C436.065 142.912 436.41 143.011 436.783 143.15ZM439.47 154.376C439.691 153.987 440.005 153.734 440.412 153.615C440.838 153.497 441.481 153.46 442.34 153.505C443.219 153.551 443.838 153.774 444.198 154.174C444.577 154.574 444.745 155.184 444.703 156.002L444.677 156.482C444.652 156.961 444.613 157.32 444.561 157.557C444.53 157.776 444.425 158.041 444.249 158.352C443.899 158.914 443.115 159.164 441.897 159.1C440.698 159.037 439.909 158.805 439.53 158.405C439.171 157.986 439.021 157.217 439.08 156.098C439.121 155.319 439.251 154.745 439.47 154.376ZM443.669 151.082C443.284 151.162 442.772 151.185 442.133 151.151C441.494 151.118 440.987 151.041 440.613 150.921C440.239 150.802 439.978 150.608 439.832 150.34C439.706 150.073 439.628 149.838 439.599 149.637C439.589 149.436 439.595 149.126 439.617 148.706L440.115 139.209C440.137 138.79 440.163 138.481 440.194 138.282C440.245 138.065 440.358 137.83 440.531 137.579C440.704 137.328 440.983 137.162 441.368 137.082C441.754 136.982 442.266 136.949 442.906 136.982C443.545 137.016 444.051 137.102 444.424 137.242C444.798 137.362 445.048 137.565 445.173 137.852C445.319 138.12 445.397 138.365 445.405 138.585C445.435 138.787 445.438 139.098 445.416 139.517L444.919 149.014C444.897 149.434 444.86 149.742 444.81 149.94C444.78 150.138 444.678 150.363 444.504 150.615C444.332 150.846 444.053 151.002 443.669 151.082Z" fill="black"/>
<g clip-path="url(#clip0)">
<path d="M173.173 114.598L127.946 116.968C122.749 117.241 118.317 113.25 118.044 108.051L115.697 63.2698L179.743 59.9133L182.09 104.695C182.361 109.893 178.368 114.326 173.173 114.598Z" fill="#999999"/>
<path d="M173.173 114.598L173.044 112.136L127.817 114.506C123.981 114.698 120.715 111.759 120.507 107.922L118.289 65.6003L177.408 62.502L179.626 104.824C179.82 108.661 176.879 111.928 173.044 112.136L173.302 117.06C179.861 116.715 184.896 111.124 184.552 104.566L182.205 59.7842C182.171 59.1344 181.876 58.5139 181.392 58.0785C180.91 57.6444 180.262 57.4155 179.614 57.4494L115.567 60.806C114.919 60.84 114.298 61.1354 113.864 61.6175C113.428 62.1011 113.2 62.7491 113.234 63.3989L115.581 108.181C115.924 114.739 121.517 119.773 128.075 119.431L173.301 117.061L173.172 114.598L173.173 114.598Z" fill="#0E0E0E"/>
<path d="M167.564 33.3806L125.033 35.6096C120.452 35.8496 116.934 39.7583 117.174 44.3378L115.649 62.365C115.889 66.9445 119.796 70.464 124.378 70.2238L171.835 67.7367C176.416 67.4966 179.934 63.588 179.694 59.0085L176.294 41.2395C176.054 36.66 172.146 33.1405 167.564 33.3806Z" fill="white"/>
<path d="M167.564 33.3804L167.435 30.9166L124.904 33.1456C118.961 33.4584 114.4 38.5256 114.71 44.4668L117.174 44.3376L114.715 44.1287L113.191 62.1558L113.186 62.4938C113.499 68.4335 118.563 72.9962 124.507 72.6861L171.964 70.199C177.906 69.8861 182.468 64.8204 182.158 58.8792L182.117 58.5435L178.716 40.7746L176.293 41.2393L178.756 41.1103C178.443 35.1692 173.379 30.6065 167.435 30.9166L167.693 35.8415C170.912 35.6798 173.655 38.1494 173.83 41.3684L173.87 41.7027L177.272 59.4716L179.694 59.0083L177.231 59.1373C177.393 62.3556 174.925 65.0983 171.706 65.2741L124.249 67.7612C121.028 67.923 118.286 65.4533 118.112 62.2357L115.648 62.3648L118.107 62.5723L119.632 44.5452L119.637 44.2086C119.475 40.9889 121.943 38.2462 125.162 38.0704L167.693 35.8415L167.564 33.3804Z" fill="#0E0E0E"/>
<path d="M159.519 51.0921C159.305 47.0101 153.617 43.991 146.815 44.3474C140.013 44.7039 134.672 48.3011 134.886 52.383C135.1 56.465 140.787 59.4841 147.589 59.1276C154.392 58.7711 159.732 55.174 159.519 51.0921Z" fill="#FF694E"/>
<path d="M159.518 51.0921L161.982 50.963C161.903 49.3785 161.27 47.9177 160.339 46.7411C158.933 44.9675 156.911 43.7322 154.573 42.9162C152.231 42.1075 149.537 41.7357 146.687 41.8836C142.886 42.0885 139.461 43.1669 136.842 44.921C135.536 45.8036 134.421 46.8655 133.616 48.1402C132.813 49.4077 132.336 50.9266 132.423 52.5121C132.502 54.0938 133.135 55.556 134.066 56.7326C135.472 58.5048 137.495 59.7415 139.833 60.5561C142.174 61.3648 144.868 61.7381 147.72 61.59C151.521 61.3838 154.946 60.3068 157.564 58.5512C158.871 57.6686 159.985 56.6081 160.791 55.332C161.594 54.066 162.069 52.5457 161.982 50.963L157.056 51.2212C157.076 51.6781 156.964 52.1376 156.613 52.7044C156.098 53.5441 154.973 54.5246 153.364 55.269C151.763 56.02 149.711 56.5473 147.46 56.6639C144.461 56.8281 141.733 56.2106 139.924 55.2412C139.017 54.7601 138.349 54.2029 137.943 53.6843C137.535 53.1558 137.376 52.7119 137.349 52.2539C137.328 51.7957 137.44 51.3362 137.79 50.7694C138.307 49.9296 139.432 48.9505 141.04 48.2048C142.643 47.4551 144.694 46.9264 146.944 46.8099C149.944 46.647 152.671 47.2646 154.481 48.234C155.388 48.715 156.056 49.2722 156.461 49.7909C156.869 50.3179 157.028 50.7633 157.056 51.2212L159.518 51.0921Z" fill="#0E0E0E"/>
<path d="M144.378 177.859L99.149 180.23C93.9536 180.502 89.5198 176.511 89.2474 171.313L86.9004 126.53L150.946 123.173L153.293 167.956C153.565 173.155 149.573 177.587 144.378 177.859Z" fill="#999999"/>
<path d="M144.378 177.859L144.249 175.395L99.02 177.766C95.1858 177.96 91.918 175.02 91.7113 171.184L89.4933 128.861L148.613 125.763L150.831 168.085C151.025 171.922 148.082 175.189 144.249 175.395L144.507 180.322C151.064 179.977 156.099 174.386 155.757 167.827L153.41 123.044C153.376 122.394 153.079 121.775 152.597 121.34C152.113 120.906 151.465 120.677 150.817 120.711L86.7715 124.067C86.1231 124.101 85.5011 124.397 85.067 124.879C84.633 125.362 84.4026 126.009 84.4367 126.659L86.7837 171.442C87.1288 178 92.7211 183.034 99.2782 182.692L144.505 180.322L144.376 177.859L144.378 177.859Z" fill="#0E0E0E"/>
<path d="M110.246 157.29C112.073 159.575 116.081 161.577 120.869 161.807C125.608 162.075 129.766 160.539 131.841 158.487C132.819 157.539 134.381 157.563 135.329 158.541C136.277 159.519 136.252 161.081 135.275 162.029C131.844 165.312 126.495 167.022 120.612 166.732C114.67 166.401 109.484 164.101 106.428 160.413C105.566 159.357 105.721 157.803 106.776 156.941C107.831 156.079 109.384 156.234 110.248 157.289L110.246 157.29Z" fill="#0E0E0E"/>
<path d="M138.769 96.6404L96.2379 98.8693C91.657 99.1094 88.1389 103.018 88.379 107.599L86.8531 125.625C87.0932 130.206 91.0005 133.725 95.5828 133.485L143.04 130.998C147.621 130.758 151.139 126.849 150.899 122.268L147.498 104.501C147.258 99.9197 143.351 96.4002 138.769 96.6404V96.6404Z" fill="white"/>
<path d="M138.769 96.6404L138.64 94.178L96.109 96.407C90.1665 96.7198 85.6053 101.786 85.9153 107.728L88.3791 107.599L85.9202 107.39L84.3957 125.416L84.3894 125.754C84.7036 131.695 89.768 136.258 95.712 135.947L143.169 133.46C149.111 133.148 153.673 128.08 153.363 122.139L153.322 121.803L149.921 104.036L147.498 104.501L149.961 104.372C149.648 98.4306 144.584 93.8679 138.64 94.178L138.898 99.1029C142.117 98.9398 144.86 101.409 145.035 104.63L145.075 104.964L148.477 122.732L150.899 122.268L148.436 122.397C148.598 125.617 146.13 128.36 142.911 128.534L95.4538 131.021C92.2328 131.184 89.4914 128.715 89.3171 125.496L86.8532 125.625L89.3107 125.832L90.8366 107.807L90.8416 107.47C90.6798 104.249 93.148 101.506 96.3671 101.332L138.898 99.1029L138.769 96.6404Z" fill="#0E0E0E"/>
<path d="M130.723 114.354C130.509 110.272 124.822 107.252 118.019 107.609C111.217 107.965 105.876 111.563 106.09 115.644C106.304 119.725 111.992 122.746 118.794 122.389C125.596 122.033 130.937 118.434 130.723 114.354Z" fill="#FF694E"/>
<path d="M130.723 114.353L133.187 114.224C133.108 112.64 132.475 111.179 131.544 110.001C130.137 108.229 128.116 106.992 125.778 106.177C123.434 105.369 120.742 104.997 117.892 105.145C114.091 105.35 110.666 106.428 108.047 108.182C106.739 109.065 105.625 110.127 104.821 111.401C104.017 112.669 103.541 114.188 103.628 115.772C103.707 117.355 104.339 118.816 105.271 119.994C106.677 121.766 108.7 123.003 111.036 123.817C113.38 124.626 116.073 124.998 118.925 124.85C122.726 124.645 126.149 123.567 128.768 121.813C130.076 120.93 131.19 119.868 131.996 118.593C132.799 117.326 133.274 115.807 133.187 114.224L128.261 114.482C128.281 114.939 128.169 115.399 127.819 115.966C127.301 116.805 126.178 117.784 124.569 118.53C122.968 119.281 120.916 119.809 118.665 119.925C115.666 120.088 112.938 119.47 111.129 118.501C110.222 118.021 109.553 117.464 109.148 116.944C108.74 116.417 108.581 115.972 108.555 115.515C108.533 115.057 108.645 114.597 108.995 114.031C109.513 113.191 110.637 112.212 112.245 111.466C113.848 110.715 115.899 110.188 118.149 110.071C121.149 109.908 123.876 110.524 125.686 111.495C126.593 111.975 127.261 112.532 127.666 113.052C128.074 113.579 128.233 114.025 128.261 114.482L130.723 114.353Z" fill="#0E0E0E"/>
<path d="M208.423 174.503L163.196 176.873C158 177.145 153.567 173.155 153.294 167.956L150.947 123.173L214.993 119.817L217.34 164.6C217.612 169.798 213.618 174.231 208.423 174.503Z" fill="#FFB8F2"/>
<path d="M208.423 174.503L208.294 172.039L163.067 174.409C159.233 174.603 155.965 171.664 155.757 167.827L153.539 125.505L212.658 122.407L214.876 164.729C215.071 168.566 212.129 171.832 208.295 172.039L208.554 176.965C215.111 176.62 220.146 171.029 219.804 164.471L217.457 119.688C217.423 119.038 217.126 118.419 216.644 117.983C216.16 117.549 215.512 117.32 214.864 117.354L150.817 120.711C150.169 120.745 149.548 121.04 149.114 121.522C148.678 122.006 148.449 122.652 148.484 123.302L150.831 168.085C151.176 174.644 156.768 179.678 163.325 179.336L208.552 176.965L208.423 174.503Z" fill="black"/>
<path d="M202.814 93.2839L160.285 95.5128C155.702 95.753 152.184 99.6616 152.424 104.243L150.899 122.268C151.139 126.849 155.046 130.369 159.628 130.129L207.085 127.641C211.666 127.401 215.186 123.493 214.945 118.912L211.544 101.144C211.304 96.5633 207.396 93.0438 202.814 93.2839V93.2839Z" fill="white"/>
<path d="M202.814 93.2841L202.685 90.8216L160.156 93.0505C154.212 93.3634 149.652 98.4291 149.961 104.372L152.425 104.243L149.966 104.034L148.441 122.059L148.436 122.397C148.749 128.338 153.813 132.901 159.757 132.591L207.214 130.104C213.157 129.791 217.718 124.724 217.408 118.783L217.368 118.447L213.966 100.68L211.544 101.144L214.008 101.015C213.694 95.0743 208.629 90.5115 202.685 90.8216L202.943 95.7465C206.163 95.5834 208.906 98.053 209.08 101.273L209.12 101.608L212.522 119.375L214.946 118.912L212.482 119.041C212.645 122.261 210.175 125.003 206.956 125.178L159.499 127.665C156.278 127.828 153.537 125.358 153.363 122.139L150.899 122.268L153.358 122.476L154.882 104.45L154.888 104.114C154.725 100.892 157.193 98.1498 160.414 97.9754L202.943 95.7465L202.814 93.2841Z" fill="black"/>
<path d="M194.77 110.997C194.556 106.915 188.867 103.896 182.065 104.252C175.263 104.609 169.922 108.206 170.136 112.288C170.35 116.369 176.037 119.389 182.839 119.033C189.642 118.676 194.984 115.078 194.77 110.997Z" fill="#FF694E"/>
<path d="M194.77 110.997L197.233 110.868C197.154 109.283 196.522 107.822 195.589 106.644C194.183 104.872 192.161 103.636 189.825 102.821C187.481 102.012 184.788 101.64 181.937 101.788C178.136 101.993 174.712 103.072 172.093 104.826C170.786 105.708 169.672 106.77 168.866 108.045C168.064 109.312 167.586 110.831 167.674 112.415C167.752 113.999 168.386 115.459 169.317 116.637C170.724 118.41 172.745 119.646 175.083 120.461C177.426 121.269 180.119 121.641 182.97 121.493C186.771 121.289 190.196 120.21 192.815 118.456C194.121 117.573 195.236 116.511 196.041 115.237C196.844 113.969 197.32 112.45 197.234 110.868L192.306 111.126C192.326 111.583 192.216 112.042 191.864 112.609C191.348 113.449 190.224 114.428 188.615 115.174C187.013 115.925 184.962 116.452 182.711 116.569C179.711 116.731 176.985 116.114 175.175 115.145C174.268 114.665 173.6 114.108 173.194 113.588C172.786 113.061 172.628 112.615 172.6 112.159C172.58 111.7 172.69 111.241 173.041 110.674C173.558 109.834 174.683 108.855 176.291 108.11C177.893 107.358 179.945 106.831 182.194 106.715C185.195 106.552 187.921 107.168 189.731 108.139C190.639 108.618 191.307 109.176 191.711 109.696C192.121 110.223 192.278 110.668 192.306 111.126L194.77 110.997Z" fill="black"/>
<path d="M174.214 142.95C174.321 144.991 172.752 146.731 170.711 146.838C168.672 146.945 166.93 145.378 166.823 143.337C166.717 141.296 168.285 139.556 170.324 139.449C172.365 139.342 174.107 140.909 174.214 142.95V142.95Z" fill="black"/>
<path d="M172.331 154.163C172.687 160.967 178.491 166.19 185.292 165.834C192.095 165.477 197.321 159.676 196.965 152.872L172.331 154.163Z" fill="black"/>
<path d="M201.31 141.529C201.417 143.57 199.849 145.311 197.808 145.417C195.769 145.524 194.027 143.958 193.92 141.917C193.813 139.876 195.381 138.136 197.421 138.029C199.462 137.922 201.203 139.488 201.31 141.529V141.529Z" fill="black"/>
<path d="M110.168 146.306C110.275 148.347 108.707 150.087 106.666 150.194C104.625 150.301 102.885 148.734 102.778 146.693C102.671 144.652 104.238 142.912 106.279 142.805C108.32 142.698 110.061 144.265 110.168 146.306V146.306Z" fill="black"/>
<path d="M137.265 144.886C137.372 146.927 135.804 148.667 133.763 148.774C131.722 148.881 129.982 147.314 129.875 145.273C129.768 143.232 131.335 141.492 133.375 141.385C135.416 141.278 137.158 142.845 137.265 144.886V144.886Z" fill="black"/>
</g>
<defs>
<clipPath id="clip0">
<rect x="72.2285" y="35.9062" width="148" height="148" transform="rotate(-3 72.2285 35.9062)" fill="white"/>
</clipPath>
</defs>
</svg>
